STARTFONT 2.1
COMMENT Copyright (C) 1997-2018  MAMEDev and contributors
FONT -mamedev-uismall-Medium-R-Normal--16-120-96-96-P-100-ISO10646-1
SIZE 12 96 96
FONTBOUNDINGBOX 8 11 0 -2
STARTPROPERTIES 18
POINT_SIZE 120
PIXEL_SIZE 16
RESOLUTION_X 96
RESOLUTION_Y 96
FONT_ASCENT 9
FONT_DESCENT 2
AVERAGE_WIDTH 100
SPACING "P"
_GBDFED_INFO "Edited with gbdfed 1.5."
FOUNDRY "mamedev"
FAMILY_NAME "uismall"
WEIGHT_NAME "Medium"
SLANT "R"
SETWIDTH_NAME "Normal"
ADD_STYLE_NAME ""
CHARSET_REGISTRY "ISO10646"
CHARSET_ENCODING "1"
DEFAULT_CHAR 173
ENDPROPERTIES
CHARS 1024
STARTCHAR space
ENCODING 32
SWIDTH 250 0
DWIDTH 4 0
BBX 0 0 0 0
BITMAP
ENDCHAR
STARTCHAR exclam
ENCODING 33
SWIDTH 125 0
DWIDTH 2 0
BBX 1 7 0 0
BITMAP
80
80
80
80
80
00
80
ENDCHAR
STARTCHAR quotedbl
ENCODING 34
SWIDTH 250 0
DWIDTH 4 0
BBX 3 3 0 4
BITMAP
A0
A0
A0
ENDCHAR
STARTCHAR numbersign
ENCODING 35
SWIDTH 375 0
DWIDTH 6 0
BBX 5 5 0 2
BITMAP
50
F8
50
F8
50
ENDCHAR
STARTCHAR dollar
ENCODING 36
SWIDTH 375 0
DWIDTH 6 0
BBX 5 7 0 0
BITMAP
20
78
A0
70
28
F0
20
ENDCHAR
STARTCHAR percent
ENCODING 37
SWIDTH 375 0
DWIDTH 6 0
BBX 5 7 0 0
BITMAP
C8
C8
10
20
40
98
98
ENDCHAR
STARTCHAR ampersand
ENCODING 38
SWIDTH 375 0
DWIDTH 6 0
BBX 5 7 0 0
BITMAP
20
50
50
60
98
90
68
ENDCHAR
STARTCHAR quotesingle
ENCODING 39
SWIDTH 125 0
DWIDTH 2 0
BBX 1 3 0 4
BITMAP
80
80
80
ENDCHAR
STARTCHAR parenleft
ENCODING 40
SWIDTH 250 0
DWIDTH 4 0
BBX 3 8 0 -1
BITMAP
20
40
80
80
80
80
40
20
ENDCHAR
STARTCHAR parenright
ENCODING 41
SWIDTH 250 0
DWIDTH 4 0
BBX 3 8 0 -1
BITMAP
80
40
20
20
20
20
40
80
ENDCHAR
STARTCHAR asterisk
ENCODING 42
SWIDTH 375 0
DWIDTH 6 0
BBX 5 5 0 1
BITMAP
50
20
F8
20
50
ENDCHAR
STARTCHAR plus
ENCODING 43
SWIDTH 375 0
DWIDTH 6 0
BBX 5 5 0 1
BITMAP
20
20
F8
20
20
ENDCHAR
STARTCHAR comma
ENCODING 44
SWIDTH 187 0
DWIDTH 3 0
BBX 2 3 0 -1
BITMAP
40
40
80
ENDCHAR
STARTCHAR hyphen
ENCODING 45
SWIDTH 312 0
DWIDTH 5 0
BBX 4 1 0 3
BITMAP
F0
ENDCHAR
STARTCHAR period
ENCODING 46
SWIDTH 125 0
DWIDTH 2 0
BBX 1 1 0 0
BITMAP
80
ENDCHAR
STARTCHAR slash
ENCODING 47
SWIDTH 250 0
DWIDTH 4 0
BBX 4 8 0 -1
BITMAP
10
10
20
20
40
40
80
80
ENDCHAR
STARTCHAR zero
ENCODING 48
SWIDTH 375 0
DWIDTH 6 0
BBX 5 7 0 0
BITMAP
70
88
98
A8
C8
88
70
ENDCHAR
STARTCHAR one
ENCODING 49
SWIDTH 375 0
DWIDTH 6 0
BBX 3 7 1 0
BITMAP
40
C0
40
40
40
40
E0
ENDCHAR
STARTCHAR two
ENCODING 50
SWIDTH 375 0
DWIDTH 6 0
BBX 5 7 0 0
BITMAP
70
88
08
30
40
80
F8
ENDCHAR
STARTCHAR three
ENCODING 51
SWIDTH 375 0
DWIDTH 6 0
BBX 5 7 0 0
BITMAP
70
88
08
30
08
88
70
ENDCHAR
STARTCHAR four
ENCODING 52
SWIDTH 375 0
DWIDTH 6 0
BBX 5 7 0 0
BITMAP
10
30
50
90
F8
10
10
ENDCHAR
STARTCHAR five
ENCODING 53
SWIDTH 375 0
DWIDTH 6 0
BBX 5 7 0 0
BITMAP
F8
80
80
F0
08
88
70
ENDCHAR
STARTCHAR six
ENCODING 54
SWIDTH 375 0
DWIDTH 6 0
BBX 5 7 0 0
BITMAP
70
88
80
F0
88
88
70
ENDCHAR
STARTCHAR seven
ENCODING 55
SWIDTH 375 0
DWIDTH 6 0
BBX 5 7 0 0
BITMAP
F8
88
08
10
20
20
20
ENDCHAR
STARTCHAR eight
ENCODING 56
SWIDTH 375 0
DWIDTH 6 0
BBX 5 7 0 0
BITMAP
70
88
88
70
88
88
70
ENDCHAR
STARTCHAR nine
ENCODING 57
SWIDTH 375 0
DWIDTH 6 0
BBX 5 7 0 0
BITMAP
70
88
88
78
08
88
70
ENDCHAR
STARTCHAR colon
ENCODING 58
SWIDTH 125 0
DWIDTH 2 0
BBX 1 4 0 1
BITMAP
80
00
00
80
ENDCHAR
STARTCHAR semicolon
ENCODING 59
SWIDTH 187 0
DWIDTH 3 0
BBX 2 6 0 -1
BITMAP
40
00
00
40
40
80
ENDCHAR
STARTCHAR less
ENCODING 60
SWIDTH 312 0
DWIDTH 5 0
BBX 4 7 0 0
BITMAP
10
20
40
80
40
20
10
ENDCHAR
STARTCHAR equal
ENCODING 61
SWIDTH 375 0
DWIDTH 6 0
BBX 5 4 0 1
BITMAP
F8
00
00
F8
ENDCHAR
STARTCHAR greater
ENCODING 62
SWIDTH 312 0
DWIDTH 5 0
BBX 4 7 0 0
BITMAP
80
40
20
10
20
40
80
ENDCHAR
STARTCHAR question
ENCODING 63
SWIDTH 312 0
DWIDTH 5 0
BBX 4 7 0 0
BITMAP
60
90
10
20
40
00
40
ENDCHAR
STARTCHAR at
ENCODING 64
SWIDTH 375 0
DWIDTH 6 0
BBX 5 8 0 -1
BITMAP
60
90
88
B8
A8
90
80
70
ENDCHAR
STARTCHAR A
ENCODING 65
SWIDTH 375 0
DWIDTH 6 0
BBX 5 7 0 0
BITMAP
20
50
50
88
F8
88
88
ENDCHAR
STARTCHAR B
ENCODING 66
SWIDTH 375 0
DWIDTH 6 0
BBX 5 7 0 0
BITMAP
F0
88
88
F0
88
88
F0
ENDCHAR
STARTCHAR C
ENCODING 67
SWIDTH 375 0
DWIDTH 6 0
BBX 5 7 0 0
BITMAP
70
88
80
80
80
88
70
ENDCHAR
STARTCHAR D
ENCODING 68
SWIDTH 375 0
DWIDTH 6 0
BBX 5 7 0 0
BITMAP
E0
90
88
88
88
90
E0
ENDCHAR
STARTCHAR E
ENCODING 69
SWIDTH 375 0
DWIDTH 6 0
BBX 5 7 0 0
BITMAP
F8
80
80
E0
80
80
F8
ENDCHAR
STARTCHAR F
ENCODING 70
SWIDTH 375 0
DWIDTH 6 0
BBX 5 7 0 0
BITMAP
F8
80
80
E0
80
80
80
ENDCHAR
STARTCHAR G
ENCODING 71
SWIDTH 375 0
DWIDTH 6 0
BBX 5 7 0 0
BITMAP
78
80
80
B8
88
88
78
ENDCHAR
STARTCHAR H
ENCODING 72
SWIDTH 375 0
DWIDTH 6 0
BBX 5 7 0 0
BITMAP
88
88
88
F8
88
88
88
ENDCHAR
STARTCHAR I
ENCODING 73
SWIDTH 250 0
DWIDTH 4 0
BBX 3 7 0 0
BITMAP
E0
40
40
40
40
40
E0
ENDCHAR
STARTCHAR J
ENCODING 74
SWIDTH 375 0
DWIDTH 6 0
BBX 5 7 0 0
BITMAP
18
08
08
08
08
88
70
ENDCHAR
STARTCHAR K
ENCODING 75
SWIDTH 375 0
DWIDTH 6 0
BBX 5 7 0 0
BITMAP
88
90
A0
C0
A0
90
88
ENDCHAR
STARTCHAR L
ENCODING 76
SWIDTH 312 0
DWIDTH 5 0
BBX 4 7 0 0
BITMAP
80
80
80
80
80
80
F0
ENDCHAR
STARTCHAR M
ENCODING 77
SWIDTH 375 0
DWIDTH 6 0
BBX 5 7 0 0
BITMAP
88
D8
A8
A8
88
88
88
ENDCHAR
STARTCHAR N
ENCODING 78
SWIDTH 375 0
DWIDTH 6 0
BBX 5 7 0 0
BITMAP
88
C8
A8
98
88
88
88
ENDCHAR
STARTCHAR O
ENCODING 79
SWIDTH 375 0
DWIDTH 6 0
BBX 5 7 0 0
BITMAP
70
88
88
88
88
88
70
ENDCHAR
STARTCHAR P
ENCODING 80
SWIDTH 375 0
DWIDTH 6 0
BBX 5 7 0 0
BITMAP
F0
88
88
F0
80
80
80
ENDCHAR
STARTCHAR Q
ENCODING 81
SWIDTH 375 0
DWIDTH 6 0
BBX 5 7 0 0
BITMAP
70
88
88
88
A8
90
68
ENDCHAR
STARTCHAR R
ENCODING 82
SWIDTH 375 0
DWIDTH 6 0
BBX 5 7 0 0
BITMAP
F0
88
88
F0
A0
90
88
ENDCHAR
STARTCHAR S
ENCODING 83
SWIDTH 375 0
DWIDTH 6 0
BBX 5 7 0 0
BITMAP
70
88
80
70
08
88
70
ENDCHAR
STARTCHAR T
ENCODING 84
SWIDTH 375 0
DWIDTH 6 0
BBX 5 7 0 0
BITMAP
F8
20
20
20
20
20
20
ENDCHAR
STARTCHAR U
ENCODING 85
SWIDTH 375 0
DWIDTH 6 0
BBX 5 7 0 0
BITMAP
88
88
88
88
88
88
70
ENDCHAR
STARTCHAR V
ENCODING 86
SWIDTH 375 0
DWIDTH 6 0
BBX 5 7 0 0
BITMAP
88
88
88
50
50
20
20
ENDCHAR
STARTCHAR W
ENCODING 87
SWIDTH 375 0
DWIDTH 6 0
BBX 5 7 0 0
BITMAP
88
88
88
A8
A8
D8
88
ENDCHAR
STARTCHAR X
ENCODING 88
SWIDTH 375 0
DWIDTH 6 0
BBX 5 7 0 0
BITMAP
88
88
50
20
50
88
88
ENDCHAR
STARTCHAR Y
ENCODING 89
SWIDTH 375 0
DWIDTH 6 0
BBX 5 7 0 0
BITMAP
88
88
50
20
20
20
20
ENDCHAR
STARTCHAR Z
ENCODING 90
SWIDTH 375 0
DWIDTH 6 0
BBX 5 7 0 0
BITMAP
F8
08
10
20
40
80
F8
ENDCHAR
STARTCHAR bracketleft
ENCODING 91
SWIDTH 250 0
DWIDTH 4 0
BBX 3 9 0 -1
BITMAP
E0
80
80
80
80
80
80
80
E0
ENDCHAR
STARTCHAR backslash
ENCODING 92
SWIDTH 250 0
DWIDTH 4 0
BBX 4 8 0 -1
BITMAP
80
80
40
40
20
20
10
10
ENDCHAR
STARTCHAR bracketright
ENCODING 93
SWIDTH 250 0
DWIDTH 4 0
BBX 3 9 0 -1
BITMAP
E0
20
20
20
20
20
20
20
E0
ENDCHAR
STARTCHAR asciicircum
ENCODING 94
SWIDTH 375 0
DWIDTH 6 0
BBX 5 3 0 4
BITMAP
20
50
88
ENDCHAR
STARTCHAR underscore
ENCODING 95
SWIDTH 375 0
DWIDTH 6 0
BBX 6 1 0 -1
BITMAP
FC
ENDCHAR
STARTCHAR grave
ENCODING 96
SWIDTH 187 0
DWIDTH 3 0
BBX 2 3 0 4
BITMAP
80
80
40
ENDCHAR
STARTCHAR a
ENCODING 97
SWIDTH 312 0
DWIDTH 5 0
BBX 4 5 0 0
BITMAP
60
10
70
90
70
ENDCHAR
STARTCHAR b
ENCODING 98
SWIDTH 312 0
DWIDTH 5 0
BBX 4 7 0 0
BITMAP
80
80
E0
90
90
90
E0
ENDCHAR
STARTCHAR c
ENCODING 99
SWIDTH 312 0
DWIDTH 5 0
BBX 4 5 0 0
BITMAP
60
90
80
80
70
ENDCHAR
STARTCHAR d
ENCODING 100
SWIDTH 312 0
DWIDTH 5 0
BBX 4 7 0 0
BITMAP
10
10
70
90
90
90
70
ENDCHAR
STARTCHAR e
ENCODING 101
SWIDTH 312 0
DWIDTH 5 0
BBX 4 5 0 0
BITMAP
60
90
F0
80
70
ENDCHAR
STARTCHAR f
ENCODING 102
SWIDTH 250 0
DWIDTH 4 0
BBX 4 7 0 0
BITMAP
30
40
E0
40
40
40
40
ENDCHAR
STARTCHAR g
ENCODING 103
SWIDTH 312 0
DWIDTH 5 0
BBX 4 7 0 -2
BITMAP
70
90
90
90
70
10
60
ENDCHAR
STARTCHAR h
ENCODING 104
SWIDTH 312 0
DWIDTH 5 0
BBX 4 7 0 0
BITMAP
80
80
E0
90
90
90
90
ENDCHAR
STARTCHAR i
ENCODING 105
SWIDTH 187 0
DWIDTH 3 0
BBX 2 7 0 0
BITMAP
40
00
C0
40
40
40
40
ENDCHAR
STARTCHAR j
ENCODING 106
SWIDTH 250 0
DWIDTH 4 0
BBX 3 9 0 -2
BITMAP
20
00
60
20
20
20
20
A0
40
ENDCHAR
STARTCHAR k
ENCODING 107
SWIDTH 312 0
DWIDTH 5 0
BBX 4 7 0 0
BITMAP
80
80
90
A0
C0
A0
90
ENDCHAR
STARTCHAR l
ENCODING 108
SWIDTH 187 0
DWIDTH 3 0
BBX 2 7 0 0
BITMAP
C0
40
40
40
40
40
40
ENDCHAR
STARTCHAR m
ENCODING 109
SWIDTH 375 0
DWIDTH 6 0
BBX 5 5 0 0
BITMAP
F0
A8
A8
A8
A8
ENDCHAR
STARTCHAR n
ENCODING 110
SWIDTH 312 0
DWIDTH 5 0
BBX 4 5 0 0
BITMAP
E0
90
90
90
90
ENDCHAR
STARTCHAR o
ENCODING 111
SWIDTH 312 0
DWIDTH 5 0
BBX 4 5 0 0
BITMAP
60
90
90
90
60
ENDCHAR
STARTCHAR p
ENCODING 112
SWIDTH 312 0
DWIDTH 5 0
BBX 4 7 0 -2
BITMAP
E0
90
90
90
E0
80
80
ENDCHAR
STARTCHAR q
ENCODING 113
SWIDTH 312 0
DWIDTH 5 0
BBX 4 7 0 -2
BITMAP
70
90
90
90
70
10
10
ENDCHAR
STARTCHAR r
ENCODING 114
SWIDTH 312 0
DWIDTH 5 0
BBX 4 5 0 0
BITMAP
E0
90
80
80
80
ENDCHAR
STARTCHAR s
ENCODING 115
SWIDTH 312 0
DWIDTH 5 0
BBX 4 5 0 0
BITMAP
70
80
60
10
E0
ENDCHAR
STARTCHAR t
ENCODING 116
SWIDTH 250 0
DWIDTH 4 0
BBX 3 7 0 0
BITMAP
40
40
E0
40
40
40
20
ENDCHAR
STARTCHAR u
ENCODING 117
SWIDTH 312 0
DWIDTH 5 0
BBX 4 5 0 0
BITMAP
90
90
90
90
70
ENDCHAR
STARTCHAR v
ENCODING 118
SWIDTH 375 0
DWIDTH 6 0
BBX 5 5 0 0
BITMAP
88
88
50
50
20
ENDCHAR
STARTCHAR w
ENCODING 119
SWIDTH 375 0
DWIDTH 6 0
BBX 5 5 0 0
BITMAP
88
A8
A8
A8
50
ENDCHAR
STARTCHAR x
ENCODING 120
SWIDTH 375 0
DWIDTH 6 0
BBX 5 5 0 0
BITMAP
88
50
20
50
88
ENDCHAR
STARTCHAR y
ENCODING 121
SWIDTH 312 0
DWIDTH 5 0
BBX 4 7 0 -2
BITMAP
90
90
90
90
70
10
E0
ENDCHAR
STARTCHAR z
ENCODING 122
SWIDTH 312 0
DWIDTH 5 0
BBX 4 5 0 0
BITMAP
F0
10
60
80
F0
ENDCHAR
STARTCHAR braceleft
ENCODING 123
SWIDTH 250 0
DWIDTH 4 0
BBX 3 9 0 -1
BITMAP
20
40
40
40
80
40
40
40
20
ENDCHAR
STARTCHAR bar
ENCODING 124
SWIDTH 125 0
DWIDTH 2 0
BBX 1 9 0 -1
BITMAP
80
80
80
80
80
80
80
80
80
ENDCHAR
STARTCHAR braceright
ENCODING 125
SWIDTH 250 0
DWIDTH 4 0
BBX 3 9 0 -1
BITMAP
80
40
40
40
20
40
40
40
80
ENDCHAR
STARTCHAR asciitilde
ENCODING 126
SWIDTH 375 0
DWIDTH 6 0
BBX 5 3 0 3
BITMAP
40
A8
10
ENDCHAR
STARTCHAR nbsp
ENCODING 160
SWIDTH 250 0
DWIDTH 4 0
BBX 0 0 0 0
BITMAP
ENDCHAR
STARTCHAR exclamdown
ENCODING 161
SWIDTH 125 0
DWIDTH 2 0
BBX 1 7 0 -1
BITMAP
80
00
80
80
80
80
80
ENDCHAR
STARTCHAR cent
ENCODING 162
SWIDTH 312 0
DWIDTH 5 0
BBX 4 6 0 0
BITMAP
20
70
80
80
70
20
ENDCHAR
STARTCHAR sterling
ENCODING 163
SWIDTH 375 0
DWIDTH 6 0
BBX 5 7 0 0
BITMAP
38
40
E0
40
40
E0
D8
ENDCHAR
STARTCHAR currency
ENCODING 164
SWIDTH 312 0
DWIDTH 5 0
BBX 4 6 0 0
BITMAP
90
60
90
90
60
90
ENDCHAR
STARTCHAR yen
ENCODING 165
SWIDTH 375 0
DWIDTH 6 0
BBX 5 7 0 0
BITMAP
88
50
20
F8
20
F8
20
ENDCHAR
STARTCHAR brokenbar
ENCODING 166
SWIDTH 125 0
DWIDTH 2 0
BBX 1 9 0 -1
BITMAP
80
80
80
80
00
80
80
80
80
ENDCHAR
STARTCHAR section
ENCODING 167
SWIDTH 312 0
DWIDTH 5 0
BBX 4 9 0 -1
BITMAP
60
90
80
E0
90
70
10
90
60
ENDCHAR
STARTCHAR dieresis
ENCODING 168
SWIDTH 250 0
DWIDTH 4 0
BBX 3 1 0 7
BITMAP
A0
ENDCHAR
STARTCHAR copyright
ENCODING 169
SWIDTH 562 0
DWIDTH 9 0
BBX 8 9 0 -1
BITMAP
3C
42
99
A5
A1
A5
99
42
3C
ENDCHAR
STARTCHAR ordfeminine
ENCODING 170
SWIDTH 312 0
DWIDTH 5 0
BBX 4 7 0 1
BITMAP
60
10
70
90
70
00
F0
ENDCHAR
STARTCHAR guillemotleft
ENCODING 171
SWIDTH 375 0
DWIDTH 6 0
BBX 5 5 0 1
BITMAP
28
50
A0
50
28
ENDCHAR
STARTCHAR logicalnot
ENCODING 172
SWIDTH 437 0
DWIDTH 7 0
BBX 6 4 0 1
BITMAP
FC
04
04
04
ENDCHAR
STARTCHAR subst
ENCODING 173
SWIDTH 312 0
DWIDTH 5 0
BBX 4 8 0 -1
BITMAP
F0
90
90
90
90
90
90
F0
ENDCHAR
STARTCHAR registered
ENCODING 174
SWIDTH 562 0
DWIDTH 9 0
BBX 8 9 0 -1
BITMAP
3C
42
B9
A5
B9
A9
A5
42
3C
ENDCHAR
STARTCHAR macron
ENCODING 175
SWIDTH 312 0
DWIDTH 5 0
BBX 4 1 0 7
BITMAP
F0
ENDCHAR
STARTCHAR degree
ENCODING 176
SWIDTH 250 0
DWIDTH 4 0
BBX 3 3 0 4
BITMAP
40
A0
40
ENDCHAR
STARTCHAR plusminus
ENCODING 177
SWIDTH 375 0
DWIDTH 6 0
BBX 5 7 0 0
BITMAP
20
20
F8
20
20
00
F8
ENDCHAR
STARTCHAR 2sup
ENCODING 178
SWIDTH 250 0
DWIDTH 4 0
BBX 3 5 0 3
BITMAP
C0
20
40
80
E0
ENDCHAR
STARTCHAR 3sup
ENCODING 179
SWIDTH 250 0
DWIDTH 4 0
BBX 3 5 0 3
BITMAP
C0
20
40
20
C0
ENDCHAR
STARTCHAR acute
ENCODING 180
SWIDTH 250 0
DWIDTH 4 0
BBX 3 3 0 5
BITMAP
20
40
80
ENDCHAR
STARTCHAR mu
ENCODING 181
SWIDTH 312 0
DWIDTH 5 0
BBX 5 7 0 -2
BITMAP
90
90
90
90
E8
80
80
ENDCHAR
STARTCHAR paragraph
ENCODING 182
SWIDTH 437 0
DWIDTH 7 0
BBX 6 9 0 -2
BITMAP
7C
E8
E8
E8
68
28
28
28
28
ENDCHAR
STARTCHAR periodcentered
ENCODING 183
SWIDTH 187 0
DWIDTH 3 0
BBX 2 2 0 2
BITMAP
C0
C0
ENDCHAR
STARTCHAR cedilla
ENCODING 184
SWIDTH 187 0
DWIDTH 3 0
BBX 2 2 0 -2
BITMAP
40
C0
ENDCHAR
STARTCHAR 1sup
ENCODING 185
SWIDTH 250 0
DWIDTH 4 0
BBX 3 5 0 3
BITMAP
40
C0
40
40
E0
ENDCHAR
STARTCHAR ordmasculine
ENCODING 186
SWIDTH 312 0
DWIDTH 5 0
BBX 4 7 0 1
BITMAP
60
90
90
90
60
00
F0
ENDCHAR
STARTCHAR guillemotright
ENCODING 187
SWIDTH 375 0
DWIDTH 6 0
BBX 5 5 0 1
BITMAP
A0
50
28
50
A0
ENDCHAR
STARTCHAR onequarter
ENCODING 188
SWIDTH 500 0
DWIDTH 8 0
BBX 7 9 0 -1
BITMAP
40
42
44
48
12
26
4A
8E
02
ENDCHAR
STARTCHAR onehalf
ENCODING 189
SWIDTH 500 0
DWIDTH 8 0
BBX 7 9 0 -1
BITMAP
40
42
44
48
14
2A
44
88
0E
ENDCHAR
STARTCHAR threequarters
ENCODING 190
SWIDTH 500 0
DWIDTH 8 0
BBX 7 9 0 -1
BITMAP
E0
22
44
28
D2
26
4A
8E
02
ENDCHAR
STARTCHAR questiondown
ENCODING 191
SWIDTH 312 0
DWIDTH 5 0
BBX 4 7 0 -1
BITMAP
20
00
20
40
80
90
60
ENDCHAR
STARTCHAR Agrave
ENCODING 192
SWIDTH 375 0
DWIDTH 6 0
BBX 5 9 0 0
BITMAP
20
10
00
20
50
88
F8
88
88
ENDCHAR
STARTCHAR Aacute
ENCODING 193
SWIDTH 375 0
DWIDTH 6 0
BBX 5 9 0 0
BITMAP
10
20
00
20
50
88
F8
88
88
ENDCHAR
STARTCHAR Acircumflex
ENCODING 194
SWIDTH 375 0
DWIDTH 6 0
BBX 5 9 0 0
BITMAP
20
50
00
20
50
88
F8
88
88
ENDCHAR
STARTCHAR Atilde
ENCODING 195
SWIDTH 375 0
DWIDTH 6 0
BBX 5 9 0 0
BITMAP
50
A0
00
20
50
88
F8
88
88
ENDCHAR
STARTCHAR Adieresis
ENCODING 196
SWIDTH 375 0
DWIDTH 6 0
BBX 5 9 0 0
BITMAP
50
00
20
50
50
88
F8
88
88
ENDCHAR
STARTCHAR Aring
ENCODING 197
SWIDTH 375 0
DWIDTH 6 0
BBX 5 9 0 0
BITMAP
20
50
20
00
70
88
F8
88
88
ENDCHAR
STARTCHAR AE
ENCODING 198
SWIDTH 500 0
DWIDTH 8 0
BBX 7 7 0 0
BITMAP
3E
50
50
9C
F0
90
9E
ENDCHAR
STARTCHAR Ccedilla
ENCODING 199
SWIDTH 375 0
DWIDTH 6 0
BBX 5 9 0 -2
BITMAP
70
88
80
80
80
88
70
20
40
ENDCHAR
STARTCHAR Egrave
ENCODING 200
SWIDTH 375 0
DWIDTH 6 0
BBX 5 9 0 0
BITMAP
20
10
00
F8
80
E0
80
80
F8
ENDCHAR
STARTCHAR Eacute
ENCODING 201
SWIDTH 375 0
DWIDTH 6 0
BBX 5 9 0 0
BITMAP
20
40
00
F8
80
E0
80
80
F8
ENDCHAR
STARTCHAR Ecircumflex
ENCODING 202
SWIDTH 375 0
DWIDTH 6 0
BBX 5 9 0 0
BITMAP
20
50
00
F8
80
E0
80
80
F8
ENDCHAR
STARTCHAR Edieresis
ENCODING 203
SWIDTH 375 0
DWIDTH 6 0
BBX 5 9 0 0
BITMAP
50
00
F8
80
80
E0
80
80
F8
ENDCHAR
STARTCHAR Igrave
ENCODING 204
SWIDTH 250 0
DWIDTH 4 0
BBX 3 9 0 0
BITMAP
80
40
00
E0
40
40
40
40
E0
ENDCHAR
STARTCHAR Iacute
ENCODING 205
SWIDTH 250 0
DWIDTH 4 0
BBX 3 9 0 0
BITMAP
20
40
00
E0
40
40
40
40
E0
ENDCHAR
STARTCHAR Icircumflex
ENCODING 206
SWIDTH 250 0
DWIDTH 4 0
BBX 3 9 0 0
BITMAP
40
A0
00
E0
40
40
40
40
E0
ENDCHAR
STARTCHAR Idieresis
ENCODING 207
SWIDTH 250 0
DWIDTH 4 0
BBX 3 9 0 0
BITMAP
A0
00
E0
40
40
40
40
40
E0
ENDCHAR
STARTCHAR Eth
ENCODING 208
SWIDTH 437 0
DWIDTH 7 0
BBX 6 7 0 0
BITMAP
70
48
44
F4
44
48
70
ENDCHAR
STARTCHAR Ntilde
ENCODING 209
SWIDTH 375 0
DWIDTH 6 0
BBX 5 9 0 0
BITMAP
50
A0
00
88
C8
A8
98
88
88
ENDCHAR
STARTCHAR Ograve
ENCODING 210
SWIDTH 375 0
DWIDTH 6 0
BBX 5 9 0 0
BITMAP
40
20
00
70
88
88
88
88
70
ENDCHAR
STARTCHAR Oacute
ENCODING 211
SWIDTH 375 0
DWIDTH 6 0
BBX 5 9 0 0
BITMAP
10
20
00
70
88
88
88
88
70
ENDCHAR
STARTCHAR Ocircumflex
ENCODING 212
SWIDTH 375 0
DWIDTH 6 0
BBX 5 9 0 0
BITMAP
20
50
00
70
88
88
88
88
70
ENDCHAR
STARTCHAR Otilde
ENCODING 213
SWIDTH 375 0
DWIDTH 6 0
BBX 5 9 0 0
BITMAP
50
A0
00
70
88
88
88
88
70
ENDCHAR
STARTCHAR Odieresis
ENCODING 214
SWIDTH 375 0
DWIDTH 6 0
BBX 5 9 0 0
BITMAP
50
00
70
88
88
88
88
88
70
ENDCHAR
STARTCHAR multiply
ENCODING 215
SWIDTH 375 0
DWIDTH 6 0
BBX 5 5 0 1
BITMAP
88
50
20
50
88
ENDCHAR
STARTCHAR Oslash
ENCODING 216
SWIDTH 375 0
DWIDTH 6 0
BBX 5 7 0 0
BITMAP
68
90
A8
A8
A8
48
B0
ENDCHAR
STARTCHAR Ugrave
ENCODING 217
SWIDTH 375 0
DWIDTH 6 0
BBX 5 9 0 0
BITMAP
40
20
88
88
88
88
88
88
70
ENDCHAR
STARTCHAR Uacute
ENCODING 218
SWIDTH 375 0
DWIDTH 6 0
BBX 5 9 0 0
BITMAP
10
20
88
88
88
88
88
88
70
ENDCHAR
STARTCHAR Ucircumflex
ENCODING 219
SWIDTH 375 0
DWIDTH 6 0
BBX 5 9 0 0
BITMAP
20
50
00
88
88
88
88
88
70
ENDCHAR
STARTCHAR Udieresis
ENCODING 220
SWIDTH 375 0
DWIDTH 6 0
BBX 5 9 0 0
BITMAP
50
00
88
88
88
88
88
88
70
ENDCHAR
STARTCHAR Yacute
ENCODING 221
SWIDTH 375 0
DWIDTH 6 0
BBX 5 9 0 0
BITMAP
10
20
88
88
50
20
20
20
20
ENDCHAR
STARTCHAR Thorn
ENCODING 222
SWIDTH 375 0
DWIDTH 6 0
BBX 5 8 0 0
BITMAP
80
80
F0
88
88
F0
80
80
ENDCHAR
STARTCHAR germandbls
ENCODING 223
SWIDTH 375 0
DWIDTH 6 0
BBX 5 7 0 0
BITMAP
F0
88
88
B0
88
A8
B0
ENDCHAR
STARTCHAR agrave
ENCODING 224
SWIDTH 312 0
DWIDTH 5 0
BBX 4 8 0 0
BITMAP
40
20
00
60
10
70
90
70
ENDCHAR
STARTCHAR aacute
ENCODING 225
SWIDTH 312 0
DWIDTH 5 0
BBX 4 8 0 0
BITMAP
20
40
00
60
10
70
90
70
ENDCHAR
STARTCHAR acircumflex
ENCODING 226
SWIDTH 312 0
DWIDTH 5 0
BBX 4 8 0 0
BITMAP
20
50
00
60
10
70
90
70
ENDCHAR
STARTCHAR atilde
ENCODING 227
SWIDTH 312 0
DWIDTH 5 0
BBX 4 8 0 0
BITMAP
50
A0
00
60
10
70
90
70
ENDCHAR
STARTCHAR adieresis
ENCODING 228
SWIDTH 312 0
DWIDTH 5 0
BBX 4 7 0 0
BITMAP
50
00
60
10
70
90
70
ENDCHAR
STARTCHAR aring
ENCODING 229
SWIDTH 312 0
DWIDTH 5 0
BBX 4 9 0 0
BITMAP
20
50
20
00
60
10
70
90
70
ENDCHAR
STARTCHAR ae
ENCODING 230
SWIDTH 500 0
DWIDTH 8 0
BBX 7 5 0 0
BITMAP
6C
12
7E
90
6E
ENDCHAR
STARTCHAR ccedilla
ENCODING 231
SWIDTH 312 0
DWIDTH 5 0
BBX 4 7 0 -2
BITMAP
60
90
80
80
70
20
40
ENDCHAR
STARTCHAR egrave
ENCODING 232
SWIDTH 312 0
DWIDTH 5 0
BBX 4 8 0 0
BITMAP
40
20
00
60
90
F0
80
70
ENDCHAR
STARTCHAR eacute
ENCODING 233
SWIDTH 312 0
DWIDTH 5 0
BBX 4 8 0 0
BITMAP
20
40
00
60
90
F0
80
70
ENDCHAR
STARTCHAR ecircumflex
ENCODING 234
SWIDTH 312 0
DWIDTH 5 0
BBX 4 8 0 0
BITMAP
20
50
00
60
90
F0
80
70
ENDCHAR
STARTCHAR edieresis
ENCODING 235
SWIDTH 312 0
DWIDTH 5 0
BBX 4 7 0 0
BITMAP
50
00
60
90
F0
80
70
ENDCHAR
STARTCHAR igrave
ENCODING 236
SWIDTH 187 0
DWIDTH 3 0
BBX 2 8 0 0
BITMAP
80
40
00
C0
40
40
40
40
ENDCHAR
STARTCHAR iacute
ENCODING 237
SWIDTH 187 0
DWIDTH 3 0
BBX 2 8 0 0
BITMAP
40
80
00
C0
40
40
40
40
ENDCHAR
STARTCHAR icircumflex
ENCODING 238
SWIDTH 187 0
DWIDTH 3 0
BBX 3 8 0 0
BITMAP
40
A0
00
C0
40
40
40
40
ENDCHAR
STARTCHAR idieresis
ENCODING 239
SWIDTH 187 0
DWIDTH 3 0
BBX 3 7 0 0
BITMAP
A0
00
C0
40
40
40
40
ENDCHAR
STARTCHAR eth
ENCODING 240
SWIDTH 312 0
DWIDTH 5 0
BBX 4 8 0 0
BITMAP
50
20
50
10
70
90
90
60
ENDCHAR
STARTCHAR ntilde
ENCODING 241
SWIDTH 312 0
DWIDTH 5 0
BBX 4 8 0 0
BITMAP
50
A0
00
E0
90
90
90
90
ENDCHAR
STARTCHAR ograve
ENCODING 242
SWIDTH 312 0
DWIDTH 5 0
BBX 4 8 0 0
BITMAP
40
20
00
60
90
90
90
60
ENDCHAR
STARTCHAR oacute
ENCODING 243
SWIDTH 312 0
DWIDTH 5 0
BBX 4 8 0 0
BITMAP
20
40
00
60
90
90
90
60
ENDCHAR
STARTCHAR ocircumflex
ENCODING 244
SWIDTH 312 0
DWIDTH 5 0
BBX 4 8 0 0
BITMAP
20
50
00
60
90
90
90
60
ENDCHAR
STARTCHAR otilde
ENCODING 245
SWIDTH 312 0
DWIDTH 5 0
BBX 4 8 0 0
BITMAP
50
A0
00
60
90
90
90
60
ENDCHAR
STARTCHAR odieresis
ENCODING 246
SWIDTH 312 0
DWIDTH 5 0
BBX 4 7 0 0
BITMAP
50
00
60
90
90
90
60
ENDCHAR
STARTCHAR divide
ENCODING 247
SWIDTH 375 0
DWIDTH 6 0
BBX 5 5 0 1
BITMAP
20
00
F8
00
20
ENDCHAR
STARTCHAR oslash
ENCODING 248
SWIDTH 312 0
DWIDTH 5 0
BBX 5 6 0 0
BITMAP
08
70
B0
D0
D0
F0
ENDCHAR
STARTCHAR ugrave
ENCODING 249
SWIDTH 312 0
DWIDTH 5 0
BBX 4 8 0 0
BITMAP
40
20
00
90
90
90
90
70
ENDCHAR
STARTCHAR uacute
ENCODING 250
SWIDTH 312 0
DWIDTH 5 0
BBX 4 8 0 0
BITMAP
20
40
00
90
90
90
90
70
ENDCHAR
STARTCHAR ucircumflex
ENCODING 251
SWIDTH 312 0
DWIDTH 5 0
BBX 4 8 0 0
BITMAP
20
50
00
90
90
90
90
70
ENDCHAR
STARTCHAR udieresis
ENCODING 252
SWIDTH 312 0
DWIDTH 5 0
BBX 4 7 0 0
BITMAP
50
00
90
90
90
90
70
ENDCHAR
STARTCHAR yacute
ENCODING 253
SWIDTH 312 0
DWIDTH 5 0
BBX 4 10 0 -2
BITMAP
20
40
00
90
90
90
90
70
10
E0
ENDCHAR
STARTCHAR thorn
ENCODING 254
SWIDTH 312 0
DWIDTH 5 0
BBX 4 7 0 -2
BITMAP
80
E0
90
90
90
E0
80
ENDCHAR
STARTCHAR ydieresis
ENCODING 255
SWIDTH 250 0
DWIDTH 4 0
BBX 4 9 0 -2
BITMAP
50
00
90
90
90
90
70
10
E0
ENDCHAR
STARTCHAR Amacron
ENCODING 256
SWIDTH 375 0
DWIDTH 6 0
BBX 5 9 0 0
BITMAP
70
00
20
50
50
88
F8
88
88
ENDCHAR
STARTCHAR amacron
ENCODING 257
SWIDTH 312 0
DWIDTH 5 0
BBX 4 7 0 0
BITMAP
70
00
60
10
70
90
70
ENDCHAR
STARTCHAR Abreve
ENCODING 258
SWIDTH 375 0
DWIDTH 6 0
BBX 5 9 0 0
BITMAP
50
70
00
20
50
88
F8
88
88
ENDCHAR
STARTCHAR abreve
ENCODING 259
SWIDTH 312 0
DWIDTH 5 0
BBX 4 8 0 0
BITMAP
50
70
00
60
10
70
90
70
ENDCHAR
STARTCHAR Aogonek
ENCODING 260
SWIDTH 375 0
DWIDTH 6 0
BBX 5 9 0 -2
BITMAP
20
50
50
88
F8
88
88
10
08
ENDCHAR
STARTCHAR aogonek
ENCODING 261
SWIDTH 312 0
DWIDTH 5 0
BBX 4 7 0 -2
BITMAP
60
10
70
90
70
20
10
ENDCHAR
STARTCHAR Cacute
ENCODING 262
SWIDTH 375 0
DWIDTH 6 0
BBX 5 9 0 0
BITMAP
10
20
00
70
88
80
80
88
70
ENDCHAR
STARTCHAR cacute
ENCODING 263
SWIDTH 312 0
DWIDTH 5 0
BBX 4 8 0 0
BITMAP
20
40
00
60
90
80
80
70
ENDCHAR
STARTCHAR Ccircumflex
ENCODING 264
SWIDTH 375 0
DWIDTH 6 0
BBX 5 9 0 0
BITMAP
20
50
00
70
88
80
80
88
70
ENDCHAR
STARTCHAR ccircumflex
ENCODING 265
SWIDTH 312 0
DWIDTH 5 0
BBX 4 8 0 0
BITMAP
20
50
00
60
90
80
80
70
ENDCHAR
STARTCHAR char266
ENCODING 266
SWIDTH 375 0
DWIDTH 6 0
BBX 5 9 0 0
BITMAP
20
00
70
88
80
80
80
88
70
ENDCHAR
STARTCHAR char267
ENCODING 267
SWIDTH 312 0
DWIDTH 5 0
BBX 4 7 0 0
BITMAP
20
00
60
90
80
80
70
ENDCHAR
STARTCHAR Ccaron
ENCODING 268
SWIDTH 375 0
DWIDTH 6 0
BBX 5 9 0 0
BITMAP
50
20
00
70
88
80
80
88
70
ENDCHAR
STARTCHAR ccaron
ENCODING 269
SWIDTH 312 0
DWIDTH 5 0
BBX 4 8 0 0
BITMAP
50
20
00
60
90
80
80
70
ENDCHAR
STARTCHAR Dcaron
ENCODING 270
SWIDTH 375 0
DWIDTH 6 0
BBX 5 9 0 0
BITMAP
50
20
00
E0
90
88
88
90
E0
ENDCHAR
STARTCHAR dcaron
ENCODING 271
SWIDTH 437 0
DWIDTH 7 0
BBX 6 8 0 0
BITMAP
04
14
18
70
90
90
90
70
ENDCHAR
STARTCHAR char272
ENCODING 272
SWIDTH 437 0
DWIDTH 7 0
BBX 6 7 0 0
BITMAP
70
48
44
F4
44
48
70
ENDCHAR
STARTCHAR char273
ENCODING 273
SWIDTH 375 0
DWIDTH 6 0
BBX 5 7 0 0
BITMAP
10
78
10
70
90
90
70
ENDCHAR
STARTCHAR Emacron
ENCODING 274
SWIDTH 375 0
DWIDTH 6 0
BBX 5 9 0 0
BITMAP
70
00
F8
80
80
E0
80
80
F8
ENDCHAR
STARTCHAR emacron
ENCODING 275
SWIDTH 312 0
DWIDTH 5 0
BBX 4 7 0 0
BITMAP
70
00
60
90
F0
80
70
ENDCHAR
STARTCHAR Ebreve
ENCODING 276
SWIDTH 375 0
DWIDTH 6 0
BBX 5 9 0 0
BITMAP
50
70
00
F8
80
E0
80
80
F8
ENDCHAR
STARTCHAR ebreve
ENCODING 277
SWIDTH 312 0
DWIDTH 5 0
BBX 4 8 0 0
BITMAP
50
70
00
60
90
F0
80
70
ENDCHAR
STARTCHAR char278
ENCODING 278
SWIDTH 375 0
DWIDTH 6 0
BBX 5 9 0 0
BITMAP
20
00
F8
80
80
E0
80
80
F8
ENDCHAR
STARTCHAR char279
ENCODING 279
SWIDTH 312 0
DWIDTH 5 0
BBX 4 7 0 0
BITMAP
20
00
60
90
F0
80
70
ENDCHAR
STARTCHAR Eogonek
ENCODING 280
SWIDTH 375 0
DWIDTH 6 0
BBX 5 9 0 -2
BITMAP
F8
80
80
E0
80
80
F8
10
08
ENDCHAR
STARTCHAR eogonek
ENCODING 281
SWIDTH 312 0
DWIDTH 5 0
BBX 4 7 0 -2
BITMAP
60
90
F0
80
70
20
10
ENDCHAR
STARTCHAR Ecaron
ENCODING 282
SWIDTH 375 0
DWIDTH 6 0
BBX 5 9 0 0
BITMAP
50
20
00
F8
80
E0
80
80
F8
ENDCHAR
STARTCHAR ecaron
ENCODING 283
SWIDTH 312 0
DWIDTH 5 0
BBX 4 8 0 0
BITMAP
50
20
00
60
90
F0
80
70
ENDCHAR
STARTCHAR Gcircumflex
ENCODING 284
SWIDTH 375 0
DWIDTH 6 0
BBX 5 9 0 0
BITMAP
20
50
00
78
80
80
B8
88
78
ENDCHAR
STARTCHAR gcircumflex
ENCODING 285
SWIDTH 312 0
DWIDTH 5 0
BBX 4 10 0 -2
BITMAP
20
50
00
70
90
90
90
70
10
60
ENDCHAR
STARTCHAR Gcaron
ENCODING 286
SWIDTH 375 0
DWIDTH 6 0
BBX 5 9 0 0
BITMAP
50
20
00
78
80
80
B8
88
78
ENDCHAR
STARTCHAR gcaron
ENCODING 287
SWIDTH 312 0
DWIDTH 5 0
BBX 4 10 0 -2
BITMAP
50
20
00
70
90
90
90
70
10
60
ENDCHAR
STARTCHAR char288
ENCODING 288
SWIDTH 375 0
DWIDTH 6 0
BBX 5 9 0 0
BITMAP
20
00
78
80
80
B8
88
88
78
ENDCHAR
STARTCHAR char289
ENCODING 289
SWIDTH 312 0
DWIDTH 5 0
BBX 4 9 0 -2
BITMAP
20
00
70
90
90
90
70
10
60
ENDCHAR
STARTCHAR Gcedilla
ENCODING 290
SWIDTH 375 0
DWIDTH 6 0
BBX 5 9 0 -2
BITMAP
78
80
80
B8
88
88
78
10
20
ENDCHAR
STARTCHAR gcedilla
ENCODING 291
SWIDTH 312 0
DWIDTH 5 0
BBX 4 11 0 -2
BITMAP
40
40
20
00
70
90
90
90
70
10
60
ENDCHAR
STARTCHAR Hcircumflex
ENCODING 292
SWIDTH 375 0
DWIDTH 6 0
BBX 5 9 0 0
BITMAP
20
50
00
88
88
F8
88
88
88
ENDCHAR
STARTCHAR hciurcumflex
ENCODING 293
SWIDTH 312 0
DWIDTH 5 0
BBX 4 9 0 0
BITMAP
20
50
00
80
80
E0
90
90
90
ENDCHAR
STARTCHAR char294
ENCODING 294
SWIDTH 500 0
DWIDTH 8 0
BBX 7 7 0 0
BITMAP
44
FE
44
7C
44
44
44
ENDCHAR
STARTCHAR char295
ENCODING 295
SWIDTH 375 0
DWIDTH 6 0
BBX 5 7 0 0
BITMAP
40
F0
40
70
48
48
48
ENDCHAR
STARTCHAR Itilde
ENCODING 296
SWIDTH 250 0
DWIDTH 4 0
BBX 4 9 0 0
BITMAP
50
A0
00
E0
40
40
40
40
E0
ENDCHAR
STARTCHAR itilde
ENCODING 297
SWIDTH 250 0
DWIDTH 4 0
BBX 4 8 0 0
BITMAP
50
A0
00
60
20
20
20
20
ENDCHAR
STARTCHAR Imacron
ENCODING 298
SWIDTH 250 0
DWIDTH 4 0
BBX 3 9 0 0
BITMAP
E0
00
E0
40
40
40
40
40
E0
ENDCHAR
STARTCHAR imacron
ENCODING 299
SWIDTH 187 0
DWIDTH 3 0
BBX 3 7 0 0
BITMAP
E0
00
C0
40
40
40
40
ENDCHAR
STARTCHAR Ibreve
ENCODING 300
SWIDTH 250 0
DWIDTH 4 0
BBX 3 9 0 0
BITMAP
A0
E0
00
E0
40
40
40
40
E0
ENDCHAR
STARTCHAR ibreve
ENCODING 301
SWIDTH 187 0
DWIDTH 3 0
BBX 3 8 0 0
BITMAP
A0
E0
00
C0
40
40
40
40
ENDCHAR
STARTCHAR Iogonek
ENCODING 302
SWIDTH 250 0
DWIDTH 4 0
BBX 3 9 0 -2
BITMAP
E0
40
40
40
40
40
E0
40
20
ENDCHAR
STARTCHAR iogonek
ENCODING 303
SWIDTH 187 0
DWIDTH 3 0
BBX 2 9 0 -2
BITMAP
40
00
C0
40
40
40
40
80
40
ENDCHAR
STARTCHAR char304
ENCODING 304
SWIDTH 250 0
DWIDTH 4 0
BBX 3 9 0 0
BITMAP
40
00
E0
40
40
40
40
40
E0
ENDCHAR
STARTCHAR dotlessi
ENCODING 305
SWIDTH 187 0
DWIDTH 3 0
BBX 2 5 0 0
BITMAP
C0
40
40
40
40
ENDCHAR
STARTCHAR IJ
ENCODING 306
SWIDTH 500 0
DWIDTH 8 0
BBX 7 7 0 0
BITMAP
E6
42
42
42
42
42
EC
ENDCHAR
STARTCHAR ij
ENCODING 307
SWIDTH 375 0
DWIDTH 6 0
BBX 5 9 0 -2
BITMAP
48
00
D8
48
48
48
48
08
30
ENDCHAR
STARTCHAR Jcircumflex
ENCODING 308
SWIDTH 375 0
DWIDTH 6 0
BBX 5 9 0 0
BITMAP
10
28
00
18
08
08
08
88
70
ENDCHAR
STARTCHAR jcircumflex
ENCODING 309
SWIDTH 250 0
DWIDTH 4 0
BBX 3 10 0 -2
BITMAP
40
A0
00
60
20
20
20
20
A0
40
ENDCHAR
STARTCHAR Kcedilla
ENCODING 310
SWIDTH 375 0
DWIDTH 6 0
BBX 5 9 0 -2
BITMAP
88
90
A0
C0
A0
90
88
20
40
ENDCHAR
STARTCHAR kcedilla
ENCODING 311
SWIDTH 312 0
DWIDTH 5 0
BBX 4 9 0 -2
BITMAP
80
80
90
A0
C0
A0
90
20
40
ENDCHAR
STARTCHAR kra
ENCODING 312
SWIDTH 312 0
DWIDTH 5 0
BBX 4 5 0 0
BITMAP
90
A0
C0
A0
90
ENDCHAR
STARTCHAR Lacute
ENCODING 313
SWIDTH 312 0
DWIDTH 5 0
BBX 4 9 0 0
BITMAP
10
20
80
80
80
80
80
80
F0
ENDCHAR
STARTCHAR lacute
ENCODING 314
SWIDTH 187 0
DWIDTH 3 0
BBX 2 9 0 0
BITMAP
40
80
00
C0
40
40
40
40
40
ENDCHAR
STARTCHAR Lcedilla
ENCODING 315
SWIDTH 312 0
DWIDTH 5 0
BBX 4 9 0 -2
BITMAP
80
80
80
80
80
80
F0
20
40
ENDCHAR
STARTCHAR lcedilla
ENCODING 316
SWIDTH 187 0
DWIDTH 3 0
BBX 3 9 0 -2
BITMAP
C0
40
40
40
40
40
40
20
40
ENDCHAR
STARTCHAR Lcaron
ENCODING 317
SWIDTH 312 0
DWIDTH 5 0
BBX 4 8 0 0
BITMAP
10
90
A0
80
80
80
80
F0
ENDCHAR
STARTCHAR lcaron
ENCODING 318
SWIDTH 312 0
DWIDTH 5 0
BBX 4 8 0 0
BITMAP
10
D0
60
40
40
40
40
40
ENDCHAR
STARTCHAR char319
ENCODING 319
SWIDTH 312 0
DWIDTH 5 0
BBX 4 7 0 0
BITMAP
80
80
80
90
80
80
F0
ENDCHAR
STARTCHAR char320
ENCODING 320
SWIDTH 312 0
DWIDTH 5 0
BBX 4 7 0 0
BITMAP
C0
40
40
50
40
40
40
ENDCHAR
STARTCHAR Lslash
ENCODING 321
SWIDTH 375 0
DWIDTH 6 0
BBX 5 7 0 0
BITMAP
40
40
70
C0
40
40
78
ENDCHAR
STARTCHAR lslash
ENCODING 322
SWIDTH 250 0
DWIDTH 4 0
BBX 3 7 0 0
BITMAP
C0
40
60
C0
40
40
40
ENDCHAR
STARTCHAR Nacute
ENCODING 323
SWIDTH 375 0
DWIDTH 6 0
BBX 5 9 0 0
BITMAP
10
20
88
C8
A8
98
88
88
88
ENDCHAR
STARTCHAR nacute
ENCODING 324
SWIDTH 312 0
DWIDTH 5 0
BBX 4 8 0 0
BITMAP
20
40
00
E0
90
90
90
90
ENDCHAR
STARTCHAR Ncedilla
ENCODING 325
SWIDTH 375 0
DWIDTH 6 0
BBX 5 9 0 -2
BITMAP
88
C8
A8
98
88
88
88
20
40
ENDCHAR
STARTCHAR ncedilla
ENCODING 326
SWIDTH 312 0
DWIDTH 5 0
BBX 4 7 0 -2
BITMAP
E0
90
90
90
90
20
40
ENDCHAR
STARTCHAR Ncaron
ENCODING 327
SWIDTH 375 0
DWIDTH 6 0
BBX 5 9 0 0
BITMAP
50
20
00
88
C8
A8
98
88
88
ENDCHAR
STARTCHAR ncaron
ENCODING 328
SWIDTH 312 0
DWIDTH 5 0
BBX 4 8 0 0
BITMAP
50
20
00
E0
90
90
90
90
ENDCHAR
STARTCHAR char329
ENCODING 329
SWIDTH 375 0
DWIDTH 6 0
BBX 5 9 0 0
BITMAP
40
40
80
00
70
48
48
48
48
ENDCHAR
STARTCHAR Eng
ENCODING 330
SWIDTH 375 0
DWIDTH 6 0
BBX 5 9 0 -2
BITMAP
88
C8
A8
98
88
88
88
08
10
ENDCHAR
STARTCHAR eng
ENCODING 331
SWIDTH 312 0
DWIDTH 5 0
BBX 4 7 0 -2
BITMAP
E0
90
90
90
90
10
20
ENDCHAR
STARTCHAR Omacron
ENCODING 332
SWIDTH 375 0
DWIDTH 6 0
BBX 5 9 0 0
BITMAP
70
00
70
88
88
88
88
88
70
ENDCHAR
STARTCHAR omacron
ENCODING 333
SWIDTH 312 0
DWIDTH 5 0
BBX 4 7 0 0
BITMAP
70
00
60
90
90
90
60
ENDCHAR
STARTCHAR Obreve
ENCODING 334
SWIDTH 375 0
DWIDTH 6 0
BBX 5 9 0 0
BITMAP
50
70
00
70
88
88
88
88
70
ENDCHAR
STARTCHAR obreve
ENCODING 335
SWIDTH 312 0
DWIDTH 5 0
BBX 4 8 0 0
BITMAP
50
70
00
60
90
90
90
60
ENDCHAR
STARTCHAR char336
ENCODING 336
SWIDTH 375 0
DWIDTH 6 0
BBX 5 9 0 0
BITMAP
48
90
00
70
88
88
88
88
70
ENDCHAR
STARTCHAR char337
ENCODING 337
SWIDTH 312 0
DWIDTH 5 0
BBX 5 8 0 0
BITMAP
48
90
00
60
90
90
90
60
ENDCHAR
STARTCHAR OE
ENCODING 338
SWIDTH 500 0
DWIDTH 8 0
BBX 7 7 0 0
BITMAP
7E
90
90
9C
90
90
7E
ENDCHAR
STARTCHAR oe
ENCODING 339
SWIDTH 437 0
DWIDTH 7 0
BBX 6 5 0 0
BITMAP
58
A4
BC
A0
5C
ENDCHAR
STARTCHAR Racute
ENCODING 340
SWIDTH 375 0
DWIDTH 6 0
BBX 5 9 0 0
BITMAP
10
20
00
F0
88
88
F0
90
88
ENDCHAR
STARTCHAR racute
ENCODING 341
SWIDTH 312 0
DWIDTH 5 0
BBX 4 8 0 0
BITMAP
20
40
00
E0
90
80
80
80
ENDCHAR
STARTCHAR Rcedilla
ENCODING 342
SWIDTH 375 0
DWIDTH 6 0
BBX 5 9 0 -2
BITMAP
F0
88
88
F0
A0
90
88
20
40
ENDCHAR
STARTCHAR rcedilla
ENCODING 343
SWIDTH 312 0
DWIDTH 5 0
BBX 4 7 0 -2
BITMAP
E0
90
80
80
80
40
80
ENDCHAR
STARTCHAR Rcaron
ENCODING 344
SWIDTH 375 0
DWIDTH 6 0
BBX 5 9 0 0
BITMAP
50
20
00
F0
88
88
F0
90
88
ENDCHAR
STARTCHAR rcaron
ENCODING 345
SWIDTH 312 0
DWIDTH 5 0
BBX 4 8 0 0
BITMAP
50
20
00
E0
90
80
80
80
ENDCHAR
STARTCHAR Sacute
ENCODING 346
SWIDTH 375 0
DWIDTH 6 0
BBX 5 9 0 0
BITMAP
10
20
00
78
80
70
08
88
70
ENDCHAR
STARTCHAR sacute
ENCODING 347
SWIDTH 312 0
DWIDTH 5 0
BBX 4 8 0 0
BITMAP
20
40
00
70
80
60
10
E0
ENDCHAR
STARTCHAR Scircumflex
ENCODING 348
SWIDTH 375 0
DWIDTH 6 0
BBX 5 9 0 0
BITMAP
20
50
00
78
80
70
08
88
70
ENDCHAR
STARTCHAR scircumflex
ENCODING 349
SWIDTH 312 0
DWIDTH 5 0
BBX 4 8 0 0
BITMAP
20
50
00
70
80
60
10
E0
ENDCHAR
STARTCHAR Scedilla
ENCODING 350
SWIDTH 375 0
DWIDTH 6 0
BBX 5 9 0 -2
BITMAP
70
88
80
70
08
88
70
20
40
ENDCHAR
STARTCHAR scedilla
ENCODING 351
SWIDTH 312 0
DWIDTH 5 0
BBX 4 7 0 -2
BITMAP
70
80
60
10
E0
20
40
ENDCHAR
STARTCHAR Scaron
ENCODING 352
SWIDTH 375 0
DWIDTH 6 0
BBX 5 9 0 0
BITMAP
50
20
00
78
80
70
08
88
70
ENDCHAR
STARTCHAR scaron
ENCODING 353
SWIDTH 312 0
DWIDTH 5 0
BBX 4 8 0 0
BITMAP
50
20
00
70
80
60
10
E0
ENDCHAR
STARTCHAR Tcedilla
ENCODING 354
SWIDTH 375 0
DWIDTH 6 0
BBX 5 9 0 -2
BITMAP
F8
20
20
20
20
20
20
10
20
ENDCHAR
STARTCHAR tcedilla
ENCODING 355
SWIDTH 250 0
DWIDTH 4 0
BBX 3 9 0 -2
BITMAP
40
40
E0
40
40
40
20
20
40
ENDCHAR
STARTCHAR Tcaron
ENCODING 356
SWIDTH 375 0
DWIDTH 6 0
BBX 5 9 0 0
BITMAP
50
20
00
F8
20
20
20
20
20
ENDCHAR
STARTCHAR tcaron
ENCODING 357
SWIDTH 312 0
DWIDTH 5 0
BBX 5 9 0 0
BITMAP
08
08
50
40
E0
40
40
40
20
ENDCHAR
STARTCHAR char358
ENCODING 358
SWIDTH 375 0
DWIDTH 6 0
BBX 5 7 0 0
BITMAP
F8
20
20
70
20
20
20
ENDCHAR
STARTCHAR char359
ENCODING 359
SWIDTH 250 0
DWIDTH 4 0
BBX 3 7 0 0
BITMAP
40
40
E0
40
E0
40
20
ENDCHAR
STARTCHAR Utilde
ENCODING 360
SWIDTH 375 0
DWIDTH 6 0
BBX 5 9 0 0
BITMAP
50
A0
00
88
88
88
88
88
70
ENDCHAR
STARTCHAR utilde
ENCODING 361
SWIDTH 312 0
DWIDTH 5 0
BBX 4 8 0 0
BITMAP
50
A0
00
90
90
90
90
70
ENDCHAR
STARTCHAR Umacron
ENCODING 362
SWIDTH 375 0
DWIDTH 6 0
BBX 5 9 0 0
BITMAP
70
00
88
88
88
88
88
88
70
ENDCHAR
STARTCHAR umacron
ENCODING 363
SWIDTH 312 0
DWIDTH 5 0
BBX 4 7 0 0
BITMAP
70
00
90
90
90
90
70
ENDCHAR
STARTCHAR Ubreve
ENCODING 364
SWIDTH 375 0
DWIDTH 6 0
BBX 5 9 0 0
BITMAP
50
70
00
88
88
88
88
88
70
ENDCHAR
STARTCHAR ubreve
ENCODING 365
SWIDTH 312 0
DWIDTH 5 0
BBX 4 8 0 0
BITMAP
50
70
00
90
90
90
90
70
ENDCHAR
STARTCHAR Uring
ENCODING 366
SWIDTH 375 0
DWIDTH 6 0
BBX 5 9 0 0
BITMAP
20
50
20
88
88
88
88
88
70
ENDCHAR
STARTCHAR uring
ENCODING 367
SWIDTH 312 0
DWIDTH 5 0
BBX 4 9 0 0
BITMAP
20
50
20
00
90
90
90
90
70
ENDCHAR
STARTCHAR char368
ENCODING 368
SWIDTH 375 0
DWIDTH 6 0
BBX 5 9 0 0
BITMAP
48
90
00
88
88
88
88
88
70
ENDCHAR
STARTCHAR char369
ENCODING 369
SWIDTH 312 0
DWIDTH 5 0
BBX 5 8 0 0
BITMAP
48
90
00
90
90
90
90
70
ENDCHAR
STARTCHAR Uogonek
ENCODING 370
SWIDTH 375 0
DWIDTH 6 0
BBX 5 9 0 -2
BITMAP
88
88
88
88
88
88
70
20
10
ENDCHAR
STARTCHAR uogonek
ENCODING 371
SWIDTH 312 0
DWIDTH 5 0
BBX 4 7 0 -2
BITMAP
90
90
90
90
70
20
10
ENDCHAR
STARTCHAR Wcircumflex
ENCODING 372
SWIDTH 375 0
DWIDTH 6 0
BBX 5 9 0 0
BITMAP
20
50
00
88
88
88
A8
D8
88
ENDCHAR
STARTCHAR wcircumflex
ENCODING 373
SWIDTH 375 0
DWIDTH 6 0
BBX 5 8 0 0
BITMAP
20
50
00
88
A8
A8
A8
50
ENDCHAR
STARTCHAR Ycircumflex
ENCODING 374
SWIDTH 375 0
DWIDTH 6 0
BBX 5 9 0 0
BITMAP
20
50
00
88
88
50
20
20
20
ENDCHAR
STARTCHAR ycircumflex
ENCODING 375
SWIDTH 312 0
DWIDTH 5 0
BBX 4 10 0 -2
BITMAP
20
50
00
90
90
90
90
70
10
E0
ENDCHAR
STARTCHAR Ydieresis
ENCODING 376
SWIDTH 375 0
DWIDTH 6 0
BBX 5 9 0 0
BITMAP
50
00
88
88
50
20
20
20
20
ENDCHAR
STARTCHAR Zacute
ENCODING 377
SWIDTH 375 0
DWIDTH 6 0
BBX 5 9 0 0
BITMAP
10
20
00
F8
08
30
40
80
F8
ENDCHAR
STARTCHAR zacute
ENCODING 378
SWIDTH 312 0
DWIDTH 5 0
BBX 4 8 0 0
BITMAP
20
40
00
F0
10
60
80
F0
ENDCHAR
STARTCHAR char379
ENCODING 379
SWIDTH 375 0
DWIDTH 6 0
BBX 5 9 0 0
BITMAP
20
00
F8
08
10
20
40
80
F8
ENDCHAR
STARTCHAR char380
ENCODING 380
SWIDTH 312 0
DWIDTH 5 0
BBX 4 7 0 0
BITMAP
20
00
F0
10
60
80
F0
ENDCHAR
STARTCHAR Zcaron
ENCODING 381
SWIDTH 375 0
DWIDTH 6 0
BBX 5 9 0 0
BITMAP
50
20
00
F8
08
30
40
80
F8
ENDCHAR
STARTCHAR zcaron
ENCODING 382
SWIDTH 312 0
DWIDTH 5 0
BBX 4 8 0 0
BITMAP
50
20
00
F0
10
60
80
F0
ENDCHAR
STARTCHAR char383
ENCODING 383
SWIDTH 250 0
DWIDTH 4 0
BBX 3 7 0 0
BITMAP
60
80
80
80
80
80
80
ENDCHAR
STARTCHAR char384
ENCODING 384
SWIDTH 375 0
DWIDTH 6 0
BBX 5 7 0 0
BITMAP
40
F0
40
70
48
48
70
ENDCHAR
STARTCHAR char385
ENCODING 385
SWIDTH 500 0
DWIDTH 8 0
BBX 7 7 0 0
BITMAP
7C
A2
22
3C
22
22
3C
ENDCHAR
STARTCHAR char386
ENCODING 386
SWIDTH 375 0
DWIDTH 6 0
BBX 5 7 0 0
BITMAP
F0
80
80
F0
88
88
F0
ENDCHAR
STARTCHAR char387
ENCODING 387
SWIDTH 312 0
DWIDTH 5 0
BBX 4 7 0 0
BITMAP
F0
80
E0
90
90
90
E0
ENDCHAR
STARTCHAR char388
ENCODING 388
SWIDTH 437 0
DWIDTH 7 0
BBX 6 7 0 0
BITMAP
40
C0
40
78
44
44
78
ENDCHAR
STARTCHAR char389
ENCODING 389
SWIDTH 375 0
DWIDTH 6 0
BBX 5 7 0 0
BITMAP
40
C0
70
48
48
48
70
ENDCHAR
STARTCHAR char390
ENCODING 390
SWIDTH 375 0
DWIDTH 6 0
BBX 5 7 0 0
BITMAP
70
88
08
08
08
88
70
ENDCHAR
STARTCHAR char391
ENCODING 391
SWIDTH 375 0
DWIDTH 6 0
BBX 5 9 0 0
BITMAP
08
10
70
88
80
80
80
88
70
ENDCHAR
STARTCHAR char392
ENCODING 392
SWIDTH 312 0
DWIDTH 5 0
BBX 4 7 0 0
BITMAP
10
20
60
90
80
80
70
ENDCHAR
STARTCHAR char393
ENCODING 393
SWIDTH 437 0
DWIDTH 7 0
BBX 6 7 0 0
BITMAP
70
48
44
F4
44
48
70
ENDCHAR
STARTCHAR char394
ENCODING 394
SWIDTH 500 0
DWIDTH 8 0
BBX 7 7 0 0
BITMAP
78
A4
22
22
22
24
38
ENDCHAR
STARTCHAR char395
ENCODING 395
SWIDTH 375 0
DWIDTH 6 0
BBX 5 7 0 0
BITMAP
78
08
08
78
88
88
78
ENDCHAR
STARTCHAR char396
ENCODING 396
SWIDTH 312 0
DWIDTH 5 0
BBX 4 7 0 0
BITMAP
F0
10
70
90
90
90
70
ENDCHAR
STARTCHAR char397
ENCODING 397
SWIDTH 312 0
DWIDTH 5 0
BBX 4 7 0 -1
BITMAP
60
90
90
60
20
10
60
ENDCHAR
STARTCHAR char398
ENCODING 398
SWIDTH 375 0
DWIDTH 6 0
BBX 5 7 0 0
BITMAP
F8
08
08
38
08
08
F8
ENDCHAR
STARTCHAR char399
ENCODING 399
SWIDTH 375 0
DWIDTH 6 0
BBX 5 7 0 0
BITMAP
70
88
08
F8
88
88
70
ENDCHAR
STARTCHAR char400
ENCODING 400
SWIDTH 375 0
DWIDTH 6 0
BBX 5 7 0 0
BITMAP
70
88
80
60
80
88
70
ENDCHAR
STARTCHAR char401
ENCODING 401
SWIDTH 437 0
DWIDTH 7 0
BBX 6 9 0 -2
BITMAP
7C
40
40
70
40
40
40
40
80
ENDCHAR
STARTCHAR char402
ENCODING 402
SWIDTH 250 0
DWIDTH 4 0
BBX 4 9 0 -2
BITMAP
30
40
40
E0
40
40
40
40
80
ENDCHAR
STARTCHAR char403
ENCODING 403
SWIDTH 375 0
DWIDTH 6 0
BBX 5 9 0 0
BITMAP
08
10
78
80
80
B8
88
88
78
ENDCHAR
STARTCHAR char404
ENCODING 404
SWIDTH 375 0
DWIDTH 6 0
BBX 5 9 0 -2
BITMAP
88
88
88
50
50
20
20
50
20
ENDCHAR
STARTCHAR hv
ENCODING 405
SWIDTH 500 0
DWIDTH 8 0
BBX 7 7 0 0
BITMAP
80
80
E2
92
94
94
88
ENDCHAR
STARTCHAR char406
ENCODING 406
SWIDTH 250 0
DWIDTH 4 0
BBX 3 7 0 0
BITMAP
80
80
80
80
80
A0
40
ENDCHAR
STARTCHAR char407
ENCODING 407
SWIDTH 250 0
DWIDTH 4 0
BBX 3 7 0 0
BITMAP
E0
40
40
E0
40
40
E0
ENDCHAR
STARTCHAR char408
ENCODING 408
SWIDTH 437 0
DWIDTH 7 0
BBX 6 7 0 0
BITMAP
8C
94
A0
C0
A0
90
88
ENDCHAR
STARTCHAR char409
ENCODING 409
SWIDTH 312 0
DWIDTH 5 0
BBX 4 8 0 0
BITMAP
60
80
80
90
A0
C0
A0
90
ENDCHAR
STARTCHAR char410
ENCODING 410
SWIDTH 250 0
DWIDTH 4 0
BBX 3 7 0 0
BITMAP
C0
40
40
E0
40
40
40
ENDCHAR
STARTCHAR char412
ENCODING 412
SWIDTH 375 0
DWIDTH 6 0
BBX 5 7 0 0
BITMAP
A8
A8
A8
A8
A8
A8
58
ENDCHAR
STARTCHAR char413
ENCODING 413
SWIDTH 437 0
DWIDTH 7 0
BBX 6 9 0 -2
BITMAP
44
64
54
4C
44
44
44
40
80
ENDCHAR
STARTCHAR char414
ENCODING 414
SWIDTH 312 0
DWIDTH 5 0
BBX 4 7 0 -2
BITMAP
E0
90
90
90
90
10
10
ENDCHAR
STARTCHAR char415
ENCODING 415
SWIDTH 375 0
DWIDTH 6 0
BBX 5 7 0 0
BITMAP
70
88
88
F8
88
88
70
ENDCHAR
STARTCHAR Ohorn
ENCODING 416
SWIDTH 437 0
DWIDTH 7 0
BBX 6 7 0 0
BITMAP
74
8C
88
88
88
88
70
ENDCHAR
STARTCHAR ohorn
ENCODING 417
SWIDTH 375 0
DWIDTH 6 0
BBX 5 5 0 0
BITMAP
68
98
90
90
60
ENDCHAR
STARTCHAR char420
ENCODING 420
SWIDTH 500 0
DWIDTH 8 0
BBX 7 7 0 0
BITMAP
7C
A2
22
3C
20
20
20
ENDCHAR
STARTCHAR char421
ENCODING 421
SWIDTH 312 0
DWIDTH 5 0
BBX 4 9 0 -2
BITMAP
40
80
E0
90
90
90
E0
80
80
ENDCHAR
STARTCHAR char422
ENCODING 422
SWIDTH 375 0
DWIDTH 6 0
BBX 6 8 0 -1
BITMAP
80
F0
88
88
F0
90
88
04
ENDCHAR
STARTCHAR char423
ENCODING 423
SWIDTH 375 0
DWIDTH 6 0
BBX 5 7 0 0
BITMAP
70
88
08
70
80
88
70
ENDCHAR
STARTCHAR char424
ENCODING 424
SWIDTH 312 0
DWIDTH 5 0
BBX 4 5 0 0
BITMAP
E0
10
60
80
70
ENDCHAR
STARTCHAR char425
ENCODING 425
SWIDTH 375 0
DWIDTH 6 0
BBX 5 7 0 0
BITMAP
F8
80
40
20
40
80
F8
ENDCHAR
STARTCHAR char426
ENCODING 426
SWIDTH 375 0
DWIDTH 6 0
BBX 5 9 0 -2
BITMAP
40
A0
60
20
20
20
20
28
10
ENDCHAR
STARTCHAR char427
ENCODING 427
SWIDTH 250 0
DWIDTH 4 0
BBX 3 9 0 -2
BITMAP
40
40
E0
40
40
40
20
20
40
ENDCHAR
STARTCHAR char428
ENCODING 428
SWIDTH 375 0
DWIDTH 6 0
BBX 5 7 0 0
BITMAP
78
A0
A0
20
20
20
20
ENDCHAR
STARTCHAR char429
ENCODING 429
SWIDTH 250 0
DWIDTH 4 0
BBX 4 8 0 0
BITMAP
20
50
40
E0
40
40
40
20
ENDCHAR
STARTCHAR char430
ENCODING 430
SWIDTH 375 0
DWIDTH 6 0
BBX 5 9 0 -2
BITMAP
F8
20
20
20
20
20
20
20
10
ENDCHAR
STARTCHAR Uhorn
ENCODING 431
SWIDTH 500 0
DWIDTH 8 0
BBX 7 8 0 0
BITMAP
02
8A
8C
88
88
88
88
70
ENDCHAR
STARTCHAR uhorn
ENCODING 432
SWIDTH 437 0
DWIDTH 7 0
BBX 6 6 0 0
BITMAP
04
94
98
90
90
70
ENDCHAR
STARTCHAR char433
ENCODING 433
SWIDTH 375 0
DWIDTH 6 0
BBX 5 7 0 0
BITMAP
50
88
88
88
88
88
70
ENDCHAR
STARTCHAR char434
ENCODING 434
SWIDTH 375 0
DWIDTH 6 0
BBX 5 7 0 0
BITMAP
98
A8
88
88
90
A0
C0
ENDCHAR
STARTCHAR char435
ENCODING 435
SWIDTH 500 0
DWIDTH 8 0
BBX 7 7 0 0
BITMAP
8C
8A
50
20
20
20
20
ENDCHAR
STARTCHAR char436
ENCODING 436
SWIDTH 437 0
DWIDTH 7 0
BBX 6 9 0 -2
BITMAP
0C
14
90
90
90
90
70
10
E0
ENDCHAR
STARTCHAR char437
ENCODING 437
SWIDTH 375 0
DWIDTH 6 0
BBX 5 7 0 0
BITMAP
F8
08
10
F8
40
80
F8
ENDCHAR
STARTCHAR char438
ENCODING 438
SWIDTH 312 0
DWIDTH 5 0
BBX 4 5 0 0
BITMAP
F0
20
F0
40
F0
ENDCHAR
STARTCHAR char439
ENCODING 439
SWIDTH 375 0
DWIDTH 6 0
BBX 5 8 0 -1
BITMAP
F8
08
10
20
10
08
88
70
ENDCHAR
STARTCHAR char440
ENCODING 440
SWIDTH 375 0
DWIDTH 6 0
BBX 5 8 0 -1
BITMAP
F8
80
40
20
40
80
88
70
ENDCHAR
STARTCHAR char441
ENCODING 441
SWIDTH 312 0
DWIDTH 5 0
BBX 4 7 0 -2
BITMAP
F0
80
60
40
80
90
60
ENDCHAR
STARTCHAR char442
ENCODING 442
SWIDTH 312 0
DWIDTH 5 0
BBX 4 7 0 -2
BITMAP
F0
10
60
10
60
80
70
ENDCHAR
STARTCHAR char443
ENCODING 443
SWIDTH 375 0
DWIDTH 6 0
BBX 5 7 0 0
BITMAP
70
88
10
F8
40
80
F8
ENDCHAR
STARTCHAR char444
ENCODING 444
SWIDTH 375 0
DWIDTH 6 0
BBX 5 7 0 0
BITMAP
F8
48
40
70
08
08
70
ENDCHAR
STARTCHAR char445
ENCODING 445
SWIDTH 312 0
DWIDTH 5 0
BBX 4 5 0 0
BITMAP
F0
40
60
10
60
ENDCHAR
STARTCHAR char446
ENCODING 446
SWIDTH 312 0
DWIDTH 5 0
BBX 4 6 0 0
BITMAP
40
E0
40
60
10
E0
ENDCHAR
STARTCHAR char447
ENCODING 447
SWIDTH 312 0
DWIDTH 5 0
BBX 4 7 0 -2
BITMAP
A0
D0
90
A0
C0
80
80
ENDCHAR
STARTCHAR char448
ENCODING 448
SWIDTH 125 0
DWIDTH 2 0
BBX 1 7 0 0
BITMAP
80
80
80
80
80
80
80
ENDCHAR
STARTCHAR char449
ENCODING 449
SWIDTH 250 0
DWIDTH 4 0
BBX 3 7 0 0
BITMAP
A0
A0
A0
A0
A0
A0
A0
ENDCHAR
STARTCHAR char450
ENCODING 450
SWIDTH 250 0
DWIDTH 4 0
BBX 3 7 0 0
BITMAP
40
40
E0
40
E0
40
40
ENDCHAR
STARTCHAR char451
ENCODING 451
SWIDTH 125 0
DWIDTH 2 0
BBX 1 7 0 0
BITMAP
80
80
80
80
80
00
80
ENDCHAR
STARTCHAR char452
ENCODING 452
SWIDTH 562 0
DWIDTH 9 0
BBX 8 9 0 0
BITMAP
0A
04
00
EF
91
92
94
98
EF
ENDCHAR
STARTCHAR char453
ENCODING 453
SWIDTH 562 0
DWIDTH 9 0
BBX 8 8 0 0
BITMAP
05
E2
90
9F
91
96
98
EF
ENDCHAR
STARTCHAR char454
ENCODING 454
SWIDTH 562 0
DWIDTH 9 0
BBX 8 8 0 0
BITMAP
05
12
10
7F
91
96
98
7F
ENDCHAR
STARTCHAR LJ
ENCODING 455
SWIDTH 562 0
DWIDTH 9 0
BBX 8 7 0 0
BITMAP
83
81
81
81
81
89
F6
ENDCHAR
STARTCHAR Lj
ENCODING 456
SWIDTH 437 0
DWIDTH 7 0
BBX 6 9 0 -2
BITMAP
84
80
8C
84
84
84
F4
04
18
ENDCHAR
STARTCHAR lj
ENCODING 457
SWIDTH 375 0
DWIDTH 6 0
BBX 5 9 0 -2
BITMAP
C8
40
58
48
48
48
48
08
30
ENDCHAR
STARTCHAR NJ
ENCODING 458
SWIDTH 562 0
DWIDTH 9 0
BBX 8 7 0 0
BITMAP
93
91
D1
B1
91
91
9E
ENDCHAR
STARTCHAR Nj
ENCODING 459
SWIDTH 562 0
DWIDTH 9 0
BBX 8 9 0 -2
BITMAP
89
C8
AB
99
89
89
89
01
06
ENDCHAR
STARTCHAR nj
ENCODING 460
SWIDTH 500 0
DWIDTH 8 0
BBX 7 9 0 -2
BITMAP
02
00
E6
92
92
92
92
02
0C
ENDCHAR
STARTCHAR Acaron
ENCODING 461
SWIDTH 375 0
DWIDTH 6 0
BBX 5 9 0 0
BITMAP
50
20
00
20
50
88
F8
88
88
ENDCHAR
STARTCHAR acaron
ENCODING 462
SWIDTH 312 0
DWIDTH 5 0
BBX 4 8 0 0
BITMAP
50
20
00
60
10
70
90
70
ENDCHAR
STARTCHAR Icaron
ENCODING 463
SWIDTH 250 0
DWIDTH 4 0
BBX 3 9 0 0
BITMAP
A0
40
00
E0
40
40
40
40
E0
ENDCHAR
STARTCHAR icaron
ENCODING 464
SWIDTH 187 0
DWIDTH 3 0
BBX 3 8 0 0
BITMAP
A0
40
00
C0
40
40
40
40
ENDCHAR
STARTCHAR Ocaron
ENCODING 465
SWIDTH 375 0
DWIDTH 6 0
BBX 5 9 0 0
BITMAP
50
20
00
70
88
88
88
88
70
ENDCHAR
STARTCHAR ocaron
ENCODING 466
SWIDTH 312 0
DWIDTH 5 0
BBX 4 8 0 0
BITMAP
50
20
00
60
90
90
90
60
ENDCHAR
STARTCHAR Ucaron
ENCODING 467
SWIDTH 375 0
DWIDTH 6 0
BBX 5 9 0 0
BITMAP
50
20
88
88
88
88
88
88
70
ENDCHAR
STARTCHAR ucaron
ENCODING 468
SWIDTH 312 0
DWIDTH 5 0
BBX 4 8 0 0
BITMAP
50
20
00
90
90
90
90
70
ENDCHAR
STARTCHAR char469
ENCODING 469
SWIDTH 375 0
DWIDTH 6 0
BBX 5 9 0 0
BITMAP
70
00
50
00
88
88
88
88
70
ENDCHAR
STARTCHAR char470
ENCODING 470
SWIDTH 312 0
DWIDTH 5 0
BBX 4 9 0 0
BITMAP
70
00
50
00
90
90
90
90
70
ENDCHAR
STARTCHAR char477
ENCODING 477
SWIDTH 312 0
DWIDTH 5 0
BBX 4 5 0 0
BITMAP
E0
10
F0
90
60
ENDCHAR
STARTCHAR char479
ENCODING 479
SWIDTH 312 0
DWIDTH 5 0
BBX 4 9 0 0
BITMAP
70
00
50
00
60
10
70
90
70
ENDCHAR
STARTCHAR char481
ENCODING 481
SWIDTH 312 0
DWIDTH 5 0
BBX 4 9 0 0
BITMAP
70
00
20
00
60
10
70
90
70
ENDCHAR
STARTCHAR AEmacron
ENCODING 482
SWIDTH 500 0
DWIDTH 8 0
BBX 7 9 0 0
BITMAP
3C
00
3E
50
50
9C
F0
90
9E
ENDCHAR
STARTCHAR aemacron
ENCODING 483
SWIDTH 500 0
DWIDTH 8 0
BBX 7 7 0 0
BITMAP
3C
00
6C
12
7E
90
6E
ENDCHAR
STARTCHAR char484
ENCODING 484
SWIDTH 437 0
DWIDTH 7 0
BBX 6 7 0 0
BITMAP
78
80
80
88
BC
88
78
ENDCHAR
STARTCHAR Gcaron
ENCODING 486
SWIDTH 375 0
DWIDTH 6 0
BBX 5 9 0 0
BITMAP
50
20
00
78
80
80
B8
88
78
ENDCHAR
STARTCHAR gcaron
ENCODING 487
SWIDTH 312 0
DWIDTH 5 0
BBX 4 10 0 -2
BITMAP
50
20
00
70
90
90
90
70
10
60
ENDCHAR
STARTCHAR Kcaron
ENCODING 488
SWIDTH 375 0
DWIDTH 6 0
BBX 5 9 0 0
BITMAP
50
20
88
90
A0
C0
A0
90
88
ENDCHAR
STARTCHAR kcaron
ENCODING 489
SWIDTH 312 0
DWIDTH 5 0
BBX 4 9 0 0
BITMAP
50
20
80
80
90
A0
C0
A0
90
ENDCHAR
STARTCHAR Oogonek
ENCODING 490
SWIDTH 375 0
DWIDTH 6 0
BBX 5 9 0 -2
BITMAP
70
88
88
88
88
88
70
20
10
ENDCHAR
STARTCHAR oogonek
ENCODING 491
SWIDTH 312 0
DWIDTH 5 0
BBX 4 7 0 -2
BITMAP
60
90
90
90
60
40
20
ENDCHAR
STARTCHAR char492
ENCODING 492
SWIDTH 375 0
DWIDTH 6 0
BBX 5 11 0 -2
BITMAP
70
00
70
88
88
88
88
88
70
20
10
ENDCHAR
STARTCHAR char493
ENCODING 493
SWIDTH 312 0
DWIDTH 5 0
BBX 4 9 0 -2
BITMAP
70
00
60
90
90
90
60
40
20
ENDCHAR
STARTCHAR char494
ENCODING 494
SWIDTH 375 0
DWIDTH 6 0
BBX 5 10 0 -1
BITMAP
50
20
00
F8
10
20
10
08
88
70
ENDCHAR
STARTCHAR char495
ENCODING 495
SWIDTH 312 0
DWIDTH 5 0
BBX 4 10 0 -2
BITMAP
50
20
00
F0
10
60
20
10
90
60
ENDCHAR
STARTCHAR jcaron
ENCODING 496
SWIDTH 250 0
DWIDTH 4 0
BBX 3 10 0 -2
BITMAP
A0
40
00
60
20
20
20
20
A0
40
ENDCHAR
STARTCHAR DZ
ENCODING 497
SWIDTH 562 0
DWIDTH 9 0
BBX 8 7 0 0
BITMAP
EF
91
92
94
94
98
EF
ENDCHAR
STARTCHAR Dz
ENCODING 498
SWIDTH 562 0
DWIDTH 9 0
BBX 8 7 0 0
BITMAP
E0
90
9F
91
96
98
EF
ENDCHAR
STARTCHAR dz
ENCODING 499
SWIDTH 562 0
DWIDTH 9 0
BBX 8 7 0 0
BITMAP
10
10
7F
91
96
98
7F
ENDCHAR
STARTCHAR Gacute
ENCODING 500
SWIDTH 375 0
DWIDTH 6 0
BBX 5 9 0 0
BITMAP
10
20
00
78
80
80
B8
88
78
ENDCHAR
STARTCHAR gacute
ENCODING 501
SWIDTH 312 0
DWIDTH 5 0
BBX 4 10 0 -2
BITMAP
20
40
00
70
90
90
90
70
10
60
ENDCHAR
STARTCHAR char502
ENCODING 502
SWIDTH 500 0
DWIDTH 8 0
BBX 7 7 0 0
BITMAP
90
90
92
F2
94
94
88
ENDCHAR
STARTCHAR char503
ENCODING 503
SWIDTH 375 0
DWIDTH 6 0
BBX 5 8 0 -1
BITMAP
B0
C8
88
90
A0
C0
80
80
ENDCHAR
STARTCHAR Ngrave
ENCODING 504
SWIDTH 375 0
DWIDTH 6 0
BBX 5 9 0 0
BITMAP
40
20
88
C8
A8
98
88
88
88
ENDCHAR
STARTCHAR ngrave
ENCODING 505
SWIDTH 312 0
DWIDTH 5 0
BBX 4 8 0 0
BITMAP
40
20
00
E0
90
90
90
90
ENDCHAR
STARTCHAR AEacute
ENCODING 508
SWIDTH 500 0
DWIDTH 8 0
BBX 7 9 0 0
BITMAP
08
10
00
3E
50
9C
F0
90
9E
ENDCHAR
STARTCHAR aeacute
ENCODING 509
SWIDTH 500 0
DWIDTH 8 0
BBX 7 8 0 0
BITMAP
08
10
00
6C
12
7E
90
6C
ENDCHAR
STARTCHAR char512
ENCODING 512
SWIDTH 375 0
DWIDTH 6 0
BBX 5 9 0 0
BITMAP
90
48
00
20
50
88
F8
88
88
ENDCHAR
STARTCHAR char513
ENCODING 513
SWIDTH 312 0
DWIDTH 5 0
BBX 5 8 0 0
BITMAP
90
48
00
60
10
70
90
70
ENDCHAR
STARTCHAR char514
ENCODING 514
SWIDTH 375 0
DWIDTH 6 0
BBX 5 9 0 0
BITMAP
70
50
00
20
50
88
F8
88
88
ENDCHAR
STARTCHAR char515
ENCODING 515
SWIDTH 312 0
DWIDTH 5 0
BBX 4 8 0 0
BITMAP
70
50
00
60
10
70
90
70
ENDCHAR
STARTCHAR char516
ENCODING 516
SWIDTH 375 0
DWIDTH 6 0
BBX 5 9 0 0
BITMAP
90
48
00
F8
80
E0
80
80
F8
ENDCHAR
STARTCHAR char517
ENCODING 517
SWIDTH 312 0
DWIDTH 5 0
BBX 5 8 0 0
BITMAP
90
48
00
60
90
F0
80
70
ENDCHAR
STARTCHAR char518
ENCODING 518
SWIDTH 375 0
DWIDTH 6 0
BBX 5 9 0 0
BITMAP
70
50
00
F8
80
E0
80
80
F8
ENDCHAR
STARTCHAR char519
ENCODING 519
SWIDTH 312 0
DWIDTH 5 0
BBX 4 8 0 0
BITMAP
70
50
00
60
90
F0
80
70
ENDCHAR
STARTCHAR char520
ENCODING 520
SWIDTH 312 0
DWIDTH 5 0
BBX 5 9 0 0
BITMAP
90
48
00
70
20
20
20
20
70
ENDCHAR
STARTCHAR char521
ENCODING 521
SWIDTH 312 0
DWIDTH 5 0
BBX 5 8 0 0
BITMAP
90
48
00
60
20
20
20
20
ENDCHAR
STARTCHAR char522
ENCODING 522
SWIDTH 250 0
DWIDTH 4 0
BBX 3 9 0 0
BITMAP
E0
A0
00
E0
40
40
40
40
E0
ENDCHAR
STARTCHAR char523
ENCODING 523
SWIDTH 187 0
DWIDTH 3 0
BBX 3 8 0 0
BITMAP
E0
A0
00
C0
40
40
40
40
ENDCHAR
STARTCHAR char524
ENCODING 524
SWIDTH 375 0
DWIDTH 6 0
BBX 5 9 0 0
BITMAP
90
48
00
70
88
88
88
88
70
ENDCHAR
STARTCHAR char525
ENCODING 525
SWIDTH 312 0
DWIDTH 5 0
BBX 5 8 0 0
BITMAP
90
48
00
60
90
90
90
60
ENDCHAR
STARTCHAR char526
ENCODING 526
SWIDTH 375 0
DWIDTH 6 0
BBX 5 9 0 0
BITMAP
70
50
00
70
88
88
88
88
70
ENDCHAR
STARTCHAR char527
ENCODING 527
SWIDTH 312 0
DWIDTH 5 0
BBX 4 8 0 0
BITMAP
70
50
00
60
90
90
90
60
ENDCHAR
STARTCHAR char528
ENCODING 528
SWIDTH 375 0
DWIDTH 6 0
BBX 5 9 0 0
BITMAP
90
48
00
F0
88
88
F0
90
88
ENDCHAR
STARTCHAR char529
ENCODING 529
SWIDTH 312 0
DWIDTH 5 0
BBX 5 8 0 0
BITMAP
90
48
00
E0
90
80
80
80
ENDCHAR
STARTCHAR char530
ENCODING 530
SWIDTH 375 0
DWIDTH 6 0
BBX 5 9 0 0
BITMAP
70
50
00
F0
88
88
F0
90
88
ENDCHAR
STARTCHAR char531
ENCODING 531
SWIDTH 312 0
DWIDTH 5 0
BBX 4 8 0 0
BITMAP
70
50
00
E0
90
80
80
80
ENDCHAR
STARTCHAR char532
ENCODING 532
SWIDTH 375 0
DWIDTH 6 0
BBX 5 8 0 1
BITMAP
90
48
00
88
88
88
88
70
ENDCHAR
STARTCHAR char533
ENCODING 533
SWIDTH 312 0
DWIDTH 5 0
BBX 5 8 0 0
BITMAP
90
48
00
90
90
90
90
70
ENDCHAR
STARTCHAR char534
ENCODING 534
SWIDTH 375 0
DWIDTH 6 0
BBX 5 9 0 0
BITMAP
70
50
00
88
88
88
88
88
70
ENDCHAR
STARTCHAR char535
ENCODING 535
SWIDTH 312 0
DWIDTH 5 0
BBX 4 8 0 0
BITMAP
70
50
00
90
90
90
90
70
ENDCHAR
STARTCHAR char540
ENCODING 540
SWIDTH 375 0
DWIDTH 6 0
BBX 5 8 0 -1
BITMAP
70
88
08
30
C8
08
30
C0
ENDCHAR
STARTCHAR char541
ENCODING 541
SWIDTH 312 0
DWIDTH 5 0
BBX 4 7 0 -2
BITMAP
60
90
20
D0
10
20
C0
ENDCHAR
STARTCHAR Hcaron
ENCODING 542
SWIDTH 375 0
DWIDTH 6 0
BBX 5 9 0 0
BITMAP
50
20
88
88
88
F8
88
88
88
ENDCHAR
STARTCHAR hcaron
ENCODING 543
SWIDTH 312 0
DWIDTH 5 0
BBX 4 9 0 0
BITMAP
50
20
80
80
E0
90
90
90
90
ENDCHAR
STARTCHAR char544
ENCODING 544
SWIDTH 375 0
DWIDTH 6 0
BBX 5 9 0 -2
BITMAP
B0
C8
88
88
88
88
88
08
08
ENDCHAR
STARTCHAR char546
ENCODING 546
SWIDTH 375 0
DWIDTH 6 0
BBX 5 7 0 0
BITMAP
10
48
88
70
88
88
70
ENDCHAR
STARTCHAR char547
ENCODING 547
SWIDTH 312 0
DWIDTH 5 0
BBX 4 6 0 0
BITMAP
90
90
60
90
90
60
ENDCHAR
STARTCHAR char548
ENCODING 548
SWIDTH 375 0
DWIDTH 6 0
BBX 5 9 0 -2
BITMAP
F8
08
10
20
40
80
F8
08
10
ENDCHAR
STARTCHAR char549
ENCODING 549
SWIDTH 312 0
DWIDTH 5 0
BBX 4 7 0 -2
BITMAP
F0
10
60
80
F0
10
20
ENDCHAR
STARTCHAR char550
ENCODING 550
SWIDTH 375 0
DWIDTH 6 0
BBX 5 9 0 0
BITMAP
20
00
20
50
50
88
F8
88
88
ENDCHAR
STARTCHAR char551
ENCODING 551
SWIDTH 312 0
DWIDTH 5 0
BBX 4 7 0 0
BITMAP
20
00
60
10
70
90
70
ENDCHAR
STARTCHAR Ecedilla
ENCODING 552
SWIDTH 375 0
DWIDTH 6 0
BBX 5 9 0 -2
BITMAP
F8
80
80
E0
80
80
F8
20
40
ENDCHAR
STARTCHAR ecedilla
ENCODING 553
SWIDTH 312 0
DWIDTH 5 0
BBX 4 7 0 -2
BITMAP
60
90
F0
80
70
20
40
ENDCHAR
STARTCHAR char555
ENCODING 555
SWIDTH 312 0
DWIDTH 5 0
BBX 4 9 0 0
BITMAP
70
00
50
00
60
90
90
90
60
ENDCHAR
STARTCHAR char558
ENCODING 558
SWIDTH 375 0
DWIDTH 6 0
BBX 5 9 0 0
BITMAP
20
00
70
88
88
88
88
88
70
ENDCHAR
STARTCHAR char559
ENCODING 559
SWIDTH 312 0
DWIDTH 5 0
BBX 4 7 0 0
BITMAP
20
00
60
90
90
90
60
ENDCHAR
STARTCHAR char561
ENCODING 561
SWIDTH 312 0
DWIDTH 5 0
BBX 4 9 0 0
BITMAP
70
00
20
00
60
90
90
90
60
ENDCHAR
STARTCHAR Ymacron
ENCODING 562
SWIDTH 375 0
DWIDTH 6 0
BBX 5 9 0 0
BITMAP
70
00
88
88
50
20
20
20
20
ENDCHAR
STARTCHAR ymacron
ENCODING 563
SWIDTH 312 0
DWIDTH 5 0
BBX 4 9 0 -2
BITMAP
70
00
90
90
90
90
70
10
E0
ENDCHAR
STARTCHAR dotlessj
ENCODING 567
SWIDTH 250 0
DWIDTH 4 0
BBX 3 7 0 -2
BITMAP
60
20
20
20
20
A0
40
ENDCHAR
STARTCHAR char568
ENCODING 568
SWIDTH 500 0
DWIDTH 8 0
BBX 7 7 0 0
BITMAP
10
10
7C
92
92
92
6C
ENDCHAR
STARTCHAR char569
ENCODING 569
SWIDTH 500 0
DWIDTH 8 0
BBX 7 7 0 -2
BITMAP
6C
92
92
92
7C
10
10
ENDCHAR
STARTCHAR char573
ENCODING 573
SWIDTH 375 0
DWIDTH 6 0
BBX 5 7 0 0
BITMAP
40
40
40
F0
40
40
78
ENDCHAR
STARTCHAR char575
ENCODING 575
SWIDTH 312 0
DWIDTH 5 0
BBX 4 7 0 -2
BITMAP
70
80
60
10
E0
40
30
ENDCHAR
STARTCHAR char576
ENCODING 576
SWIDTH 312 0
DWIDTH 5 0
BBX 4 7 0 -2
BITMAP
F0
10
60
80
C0
40
30
ENDCHAR
STARTCHAR char577
ENCODING 577
SWIDTH 312 0
DWIDTH 5 0
BBX 4 7 0 0
BITMAP
60
90
10
60
40
40
40
ENDCHAR
STARTCHAR char578
ENCODING 578
SWIDTH 312 0
DWIDTH 5 0
BBX 4 5 0 0
BITMAP
60
90
10
60
40
ENDCHAR
STARTCHAR char579
ENCODING 579
SWIDTH 437 0
DWIDTH 7 0
BBX 6 7 0 0
BITMAP
78
44
78
44
F4
44
78
ENDCHAR
STARTCHAR char580
ENCODING 580
SWIDTH 500 0
DWIDTH 8 0
BBX 7 7 0 0
BITMAP
44
44
44
FE
44
44
38
ENDCHAR
STARTCHAR char581
ENCODING 581
SWIDTH 375 0
DWIDTH 6 0
BBX 5 7 0 0
BITMAP
20
20
50
50
88
88
88
ENDCHAR
STARTCHAR char584
ENCODING 584
SWIDTH 437 0
DWIDTH 7 0
BBX 6 7 0 0
BITMAP
18
08
08
3C
08
88
70
ENDCHAR
STARTCHAR char585
ENCODING 585
SWIDTH 312 0
DWIDTH 5 0
BBX 4 9 0 -2
BITMAP
20
00
60
20
F0
20
20
A0
40
ENDCHAR
STARTCHAR char586
ENCODING 586
SWIDTH 437 0
DWIDTH 7 0
BBX 7 9 0 -2
BITMAP
70
88
88
88
88
98
68
08
06
ENDCHAR
STARTCHAR char587
ENCODING 587
SWIDTH 375 0
DWIDTH 6 0
BBX 6 6 0 -2
BITMAP
70
90
90
70
10
0C
ENDCHAR
STARTCHAR char588
ENCODING 588
SWIDTH 437 0
DWIDTH 7 0
BBX 6 7 0 0
BITMAP
78
44
44
F8
50
48
44
ENDCHAR
STARTCHAR char589
ENCODING 589
SWIDTH 375 0
DWIDTH 6 0
BBX 5 5 0 0
BITMAP
70
48
E0
40
40
ENDCHAR
STARTCHAR char590
ENCODING 590
SWIDTH 500 0
DWIDTH 8 0
BBX 7 7 0 0
BITMAP
44
FE
44
28
10
10
10
ENDCHAR
STARTCHAR char591
ENCODING 591
SWIDTH 437 0
DWIDTH 7 0
BBX 6 7 0 -2
BITMAP
48
FC
48
48
38
08
70
ENDCHAR
STARTCHAR char592
ENCODING 592
SWIDTH 312 0
DWIDTH 5 0
BBX 4 5 0 0
BITMAP
E0
90
E0
80
60
ENDCHAR
STARTCHAR char593
ENCODING 593
SWIDTH 312 0
DWIDTH 5 0
BBX 4 5 0 0
BITMAP
70
90
90
B0
50
ENDCHAR
STARTCHAR char594
ENCODING 594
SWIDTH 312 0
DWIDTH 5 0
BBX 4 5 0 0
BITMAP
A0
D0
90
90
E0
ENDCHAR
STARTCHAR char595
ENCODING 595
SWIDTH 312 0
DWIDTH 5 0
BBX 4 7 0 0
BITMAP
60
80
E0
90
90
90
E0
ENDCHAR
STARTCHAR char596
ENCODING 596
SWIDTH 312 0
DWIDTH 5 0
BBX 4 5 0 0
BITMAP
60
90
10
10
E0
ENDCHAR
STARTCHAR char598
ENCODING 598
SWIDTH 312 0
DWIDTH 5 0
BBX 5 9 0 -2
BITMAP
10
10
70
90
90
90
70
10
08
ENDCHAR
STARTCHAR char599
ENCODING 599
SWIDTH 437 0
DWIDTH 7 0
BBX 6 7 0 0
BITMAP
0C
14
70
90
90
90
70
ENDCHAR
STARTCHAR char600
ENCODING 600
SWIDTH 312 0
DWIDTH 5 0
BBX 4 5 0 0
BITMAP
60
90
F0
10
E0
ENDCHAR
STARTCHAR char601
ENCODING 601
SWIDTH 312 0
DWIDTH 5 0
BBX 4 5 0 0
BITMAP
E0
10
F0
90
60
ENDCHAR
STARTCHAR char603
ENCODING 603
SWIDTH 312 0
DWIDTH 5 0
BBX 4 5 0 0
BITMAP
70
80
60
80
70
ENDCHAR
STARTCHAR char604
ENCODING 604
SWIDTH 312 0
DWIDTH 5 0
BBX 4 5 0 0
BITMAP
E0
10
60
10
E0
ENDCHAR
STARTCHAR char606
ENCODING 606
SWIDTH 312 0
DWIDTH 5 0
BBX 4 5 0 0
BITMAP
60
90
A0
90
60
ENDCHAR
STARTCHAR char607
ENCODING 607
SWIDTH 312 0
DWIDTH 5 0
BBX 4 7 0 -2
BITMAP
60
20
F0
20
20
A0
40
ENDCHAR
STARTCHAR char608
ENCODING 608
SWIDTH 375 0
DWIDTH 6 0
BBX 5 9 0 -2
BITMAP
08
10
70
90
90
90
70
10
60
ENDCHAR
STARTCHAR char610
ENCODING 610
SWIDTH 312 0
DWIDTH 5 0
BBX 4 5 0 0
BITMAP
70
80
B0
90
70
ENDCHAR
STARTCHAR char611
ENCODING 611
SWIDTH 375 0
DWIDTH 6 0
BBX 5 7 0 -2
BITMAP
88
88
50
50
20
50
20
ENDCHAR
STARTCHAR char613
ENCODING 613
SWIDTH 312 0
DWIDTH 5 0
BBX 4 7 0 -2
BITMAP
90
90
90
90
70
10
10
ENDCHAR
STARTCHAR char614
ENCODING 614
SWIDTH 312 0
DWIDTH 5 0
BBX 4 7 0 0
BITMAP
60
80
E0
90
90
90
90
ENDCHAR
STARTCHAR char615
ENCODING 615
SWIDTH 312 0
DWIDTH 5 0
BBX 4 9 0 -2
BITMAP
60
80
E0
90
90
90
90
10
20
ENDCHAR
STARTCHAR char616
ENCODING 616
SWIDTH 250 0
DWIDTH 4 0
BBX 3 7 0 0
BITMAP
40
00
C0
40
E0
40
40
ENDCHAR
STARTCHAR char617
ENCODING 617
SWIDTH 250 0
DWIDTH 4 0
BBX 3 5 0 0
BITMAP
80
80
80
A0
40
ENDCHAR
STARTCHAR char618
ENCODING 618
SWIDTH 250 0
DWIDTH 4 0
BBX 3 5 0 0
BITMAP
E0
40
40
40
E0
ENDCHAR
STARTCHAR char619
ENCODING 619
SWIDTH 250 0
DWIDTH 4 0
BBX 3 7 0 0
BITMAP
C0
40
40
E0
40
40
40
ENDCHAR
STARTCHAR char621
ENCODING 621
SWIDTH 250 0
DWIDTH 4 0
BBX 3 9 0 -2
BITMAP
C0
40
40
40
40
40
40
40
20
ENDCHAR
STARTCHAR char622
ENCODING 622
SWIDTH 437 0
DWIDTH 7 0
BBX 6 9 0 -2
BITMAP
C0
40
7C
44
58
48
44
04
38
ENDCHAR
STARTCHAR char623
ENCODING 623
SWIDTH 375 0
DWIDTH 6 0
BBX 5 5 0 0
BITMAP
A8
A8
A8
A8
78
ENDCHAR
STARTCHAR char624
ENCODING 624
SWIDTH 375 0
DWIDTH 6 0
BBX 5 7 0 -2
BITMAP
A8
A8
A8
A8
78
08
08
ENDCHAR
STARTCHAR char625
ENCODING 625
SWIDTH 375 0
DWIDTH 6 0
BBX 5 7 0 -2
BITMAP
F0
A8
A8
A8
A8
08
10
ENDCHAR
STARTCHAR char626
ENCODING 626
SWIDTH 375 0
DWIDTH 6 0
BBX 5 7 0 -2
BITMAP
70
48
48
48
48
40
80
ENDCHAR
STARTCHAR char627
ENCODING 627
SWIDTH 375 0
DWIDTH 6 0
BBX 5 7 0 -2
BITMAP
E0
90
90
90
90
10
08
ENDCHAR
STARTCHAR char628
ENCODING 628
SWIDTH 312 0
DWIDTH 5 0
BBX 4 5 0 0
BITMAP
90
D0
B0
90
90
ENDCHAR
STARTCHAR char630
ENCODING 630
SWIDTH 437 0
DWIDTH 7 0
BBX 6 5 0 0
BITMAP
7C
A0
B8
A0
7C
ENDCHAR
STARTCHAR char631
ENCODING 631
SWIDTH 375 0
DWIDTH 6 0
BBX 5 5 0 0
BITMAP
70
88
A8
A8
50
ENDCHAR
STARTCHAR char632
ENCODING 632
SWIDTH 375 0
DWIDTH 6 0
BBX 5 9 0 -2
BITMAP
20
20
70
A8
A8
A8
70
20
20
ENDCHAR
STARTCHAR char633
ENCODING 633
SWIDTH 312 0
DWIDTH 5 0
BBX 4 5 0 0
BITMAP
10
10
10
90
70
ENDCHAR
STARTCHAR char634
ENCODING 634
SWIDTH 312 0
DWIDTH 5 0
BBX 4 7 0 0
BITMAP
10
10
10
10
10
90
70
ENDCHAR
STARTCHAR char636
ENCODING 636
SWIDTH 312 0
DWIDTH 5 0
BBX 4 7 0 -2
BITMAP
E0
90
80
80
80
80
80
ENDCHAR
STARTCHAR char637
ENCODING 637
SWIDTH 312 0
DWIDTH 5 0
BBX 4 7 0 -2
BITMAP
E0
90
80
80
80
80
40
ENDCHAR
STARTCHAR char640
ENCODING 640
SWIDTH 312 0
DWIDTH 5 0
BBX 4 5 0 0
BITMAP
E0
90
E0
A0
90
ENDCHAR
STARTCHAR char641
ENCODING 641
SWIDTH 312 0
DWIDTH 5 0
BBX 4 5 0 0
BITMAP
90
A0
E0
90
E0
ENDCHAR
STARTCHAR char642
ENCODING 642
SWIDTH 312 0
DWIDTH 5 0
BBX 4 7 0 -2
BITMAP
70
80
60
10
E0
80
40
ENDCHAR
STARTCHAR char643
ENCODING 643
SWIDTH 375 0
DWIDTH 6 0
BBX 5 10 0 -2
BITMAP
10
28
20
20
20
20
20
20
A0
40
ENDCHAR
STARTCHAR char644
ENCODING 644
SWIDTH 250 0
DWIDTH 4 0
BBX 4 9 0 -2
BITMAP
10
20
20
20
F0
20
20
A0
40
ENDCHAR
STARTCHAR char647
ENCODING 647
SWIDTH 250 0
DWIDTH 4 0
BBX 3 7 0 -2
BITMAP
80
40
40
40
E0
40
40
ENDCHAR
STARTCHAR char648
ENCODING 648
SWIDTH 250 0
DWIDTH 4 0
BBX 3 9 0 -2
BITMAP
40
40
E0
40
40
40
40
40
20
ENDCHAR
STARTCHAR char649
ENCODING 649
SWIDTH 437 0
DWIDTH 7 0
BBX 6 5 0 0
BITMAP
48
48
FC
48
38
ENDCHAR
STARTCHAR char651
ENCODING 651
SWIDTH 312 0
DWIDTH 5 0
BBX 4 5 0 0
BITMAP
B0
90
90
A0
C0
ENDCHAR
STARTCHAR char652
ENCODING 652
SWIDTH 375 0
DWIDTH 6 0
BBX 5 5 0 0
BITMAP
20
50
50
88
88
ENDCHAR
STARTCHAR char653
ENCODING 653
SWIDTH 375 0
DWIDTH 6 0
BBX 5 5 0 0
BITMAP
50
A8
A8
A8
88
ENDCHAR
STARTCHAR char654
ENCODING 654
SWIDTH 312 0
DWIDTH 5 0
BBX 4 7 0 0
BITMAP
70
80
E0
90
90
90
90
ENDCHAR
STARTCHAR char656
ENCODING 656
SWIDTH 312 0
DWIDTH 5 0
BBX 5 7 0 -2
BITMAP
F0
10
60
80
F0
10
08
ENDCHAR
STARTCHAR char658
ENCODING 658
SWIDTH 312 0
DWIDTH 5 0
BBX 4 7 0 -2
BITMAP
F0
10
60
20
10
90
60
ENDCHAR
STARTCHAR char660
ENCODING 660
SWIDTH 312 0
DWIDTH 5 0
BBX 4 7 0 0
BITMAP
60
90
10
20
40
40
40
ENDCHAR
STARTCHAR char661
ENCODING 661
SWIDTH 312 0
DWIDTH 5 0
BBX 4 7 0 0
BITMAP
60
90
80
40
20
20
20
ENDCHAR
STARTCHAR char662
ENCODING 662
SWIDTH 312 0
DWIDTH 5 0
BBX 4 7 0 0
BITMAP
40
40
40
20
10
90
60
ENDCHAR
STARTCHAR char663
ENCODING 663
SWIDTH 312 0
DWIDTH 5 0
BBX 4 7 0 -2
BITMAP
60
90
80
80
80
90
60
ENDCHAR
STARTCHAR char664
ENCODING 664
SWIDTH 375 0
DWIDTH 6 0
BBX 5 7 0 0
BITMAP
70
88
88
A8
88
88
70
ENDCHAR
STARTCHAR char665
ENCODING 665
SWIDTH 312 0
DWIDTH 5 0
BBX 4 5 0 0
BITMAP
E0
90
E0
90
E0
ENDCHAR
STARTCHAR char666
ENCODING 666
SWIDTH 312 0
DWIDTH 5 0
BBX 4 5 0 0
BITMAP
60
90
50
90
60
ENDCHAR
STARTCHAR char667
ENCODING 667
SWIDTH 375 0
DWIDTH 6 0
BBX 5 6 0 0
BITMAP
18
70
80
B0
90
70
ENDCHAR
STARTCHAR char668
ENCODING 668
SWIDTH 312 0
DWIDTH 5 0
BBX 4 5 0 0
BITMAP
90
90
F0
90
90
ENDCHAR
STARTCHAR char669
ENCODING 669
SWIDTH 312 0
DWIDTH 5 0
BBX 4 9 0 -2
BITMAP
20
00
60
20
20
20
70
A0
40
ENDCHAR
STARTCHAR char670
ENCODING 670
SWIDTH 312 0
DWIDTH 5 0
BBX 4 7 0 -2
BITMAP
90
50
30
50
90
10
10
ENDCHAR
STARTCHAR char671
ENCODING 671
SWIDTH 312 0
DWIDTH 5 0
BBX 4 5 0 0
BITMAP
80
80
80
80
F0
ENDCHAR
STARTCHAR char672
ENCODING 672
SWIDTH 312 0
DWIDTH 5 0
BBX 5 8 0 -2
BITMAP
18
70
90
90
90
70
10
10
ENDCHAR
STARTCHAR char673
ENCODING 673
SWIDTH 312 0
DWIDTH 5 0
BBX 4 7 0 0
BITMAP
60
90
10
20
40
E0
40
ENDCHAR
STARTCHAR char674
ENCODING 674
SWIDTH 312 0
DWIDTH 5 0
BBX 4 7 0 0
BITMAP
60
90
80
40
20
70
20
ENDCHAR
STARTCHAR char675
ENCODING 675
SWIDTH 562 0
DWIDTH 9 0
BBX 8 7 0 0
BITMAP
10
10
7F
91
96
98
7F
ENDCHAR
STARTCHAR char676
ENCODING 676
SWIDTH 562 0
DWIDTH 9 0
BBX 8 10 0 -2
BITMAP
10
10
10
7F
91
96
92
71
01
0E
ENDCHAR
STARTCHAR char678
ENCODING 678
SWIDTH 500 0
DWIDTH 8 0
BBX 7 7 0 0
BITMAP
40
40
EE
50
4C
42
3C
ENDCHAR
STARTCHAR char679
ENCODING 679
SWIDTH 437 0
DWIDTH 7 0
BBX 6 10 0 -2
BITMAP
08
54
50
F0
50
50
50
30
50
20
ENDCHAR
STARTCHAR char681
ENCODING 681
SWIDTH 500 0
DWIDTH 8 0
BBX 7 9 0 -2
BITMAP
30
40
FC
52
52
52
52
02
04
ENDCHAR
STARTCHAR char682
ENCODING 682
SWIDTH 437 0
DWIDTH 7 0
BBX 6 7 0 0
BITMAP
C0
40
5C
60
58
44
78
ENDCHAR
STARTCHAR char683
ENCODING 683
SWIDTH 437 0
DWIDTH 7 0
BBX 6 7 0 0
BITMAP
C0
40
7C
44
58
60
7C
ENDCHAR
STARTCHAR char684
ENCODING 684
SWIDTH 375 0
DWIDTH 6 0
BBX 5 7 0 0
BITMAP
A8
A8
50
00
A8
A8
50
ENDCHAR
STARTCHAR char685
ENCODING 685
SWIDTH 312 0
DWIDTH 5 0
BBX 4 7 0 0
BITMAP
F0
90
90
00
F0
90
90
ENDCHAR
STARTCHAR char686
ENCODING 686
SWIDTH 375 0
DWIDTH 6 0
BBX 5 7 0 -2
BITMAP
88
48
48
48
38
08
08
ENDCHAR
STARTCHAR char687
ENCODING 687
SWIDTH 437 0
DWIDTH 7 0
BBX 7 7 0 -2
BITMAP
88
48
48
48
38
08
06
ENDCHAR
STARTCHAR char891
ENCODING 891
SWIDTH 312 0
DWIDTH 5 0
BBX 4 5 0 0
BITMAP
60
90
10
10
E0
ENDCHAR
STARTCHAR char892
ENCODING 892
SWIDTH 312 0
DWIDTH 5 0
BBX 4 5 0 0
BITMAP
70
80
A0
80
70
ENDCHAR
STARTCHAR char893
ENCODING 893
SWIDTH 312 0
DWIDTH 5 0
BBX 4 5 0 0
BITMAP
E0
10
50
10
E0
ENDCHAR
STARTCHAR semicolon
ENCODING 894
SWIDTH 187 0
DWIDTH 3 0
BBX 2 6 0 -1
BITMAP
40
00
00
40
40
80
ENDCHAR
STARTCHAR J
ENCODING 895
SWIDTH 375 0
DWIDTH 6 0
BBX 5 7 0 0
BITMAP
18
08
08
08
08
88
70
ENDCHAR
STARTCHAR char902
ENCODING 902
SWIDTH 437 0
DWIDTH 7 0
BBX 6 7 0 0
BITMAP
90
A8
28
44
7C
44
44
ENDCHAR
STARTCHAR char904
ENCODING 904
SWIDTH 500 0
DWIDTH 8 0
BBX 7 7 0 0
BITMAP
BE
A0
20
38
20
20
3E
ENDCHAR
STARTCHAR char905
ENCODING 905
SWIDTH 500 0
DWIDTH 8 0
BBX 7 7 0 0
BITMAP
A2
A2
22
3E
22
22
22
ENDCHAR
STARTCHAR char905
ENCODING 906
SWIDTH 375 0
DWIDTH 6 0
BBX 5 7 0 0
BITMAP
B8
90
10
10
10
10
38
ENDCHAR
STARTCHAR char907
ENCODING 908
SWIDTH 500 0
DWIDTH 8 0
BBX 7 7 0 0
BITMAP
9C
A2
22
22
22
22
1C
ENDCHAR
STARTCHAR char910
ENCODING 910
SWIDTH 500 0
DWIDTH 8 0
BBX 7 7 0 0
BITMAP
A2
A2
14
08
08
08
08
ENDCHAR
STARTCHAR char911
ENCODING 911
SWIDTH 500 0
DWIDTH 8 0
BBX 7 7 0 0
BITMAP
9C
A2
22
22
22
14
36
ENDCHAR
STARTCHAR char913
ENCODING 913
SWIDTH 375 0
DWIDTH 6 0
BBX 5 7 0 0
BITMAP
20
50
50
88
F8
88
88
ENDCHAR
STARTCHAR char914
ENCODING 914
SWIDTH 375 0
DWIDTH 6 0
BBX 5 7 0 0
BITMAP
F0
88
88
F0
88
88
F0
ENDCHAR
STARTCHAR char915
ENCODING 915
SWIDTH 375 0
DWIDTH 6 0
BBX 5 7 0 0
BITMAP
F8
80
80
80
80
80
80
ENDCHAR
STARTCHAR char916
ENCODING 916
SWIDTH 375 0
DWIDTH 6 0
BBX 5 7 0 0
BITMAP
20
20
50
50
88
88
F8
ENDCHAR
STARTCHAR char917
ENCODING 917
SWIDTH 375 0
DWIDTH 6 0
BBX 5 7 0 0
BITMAP
F8
80
80
E0
80
80
F8
ENDCHAR
STARTCHAR char918
ENCODING 918
SWIDTH 375 0
DWIDTH 6 0
BBX 5 7 0 0
BITMAP
F8
08
10
20
40
80
F8
ENDCHAR
STARTCHAR char919
ENCODING 919
SWIDTH 375 0
DWIDTH 6 0
BBX 5 7 0 0
BITMAP
88
88
88
F8
88
88
88
ENDCHAR
STARTCHAR char920
ENCODING 920
SWIDTH 375 0
DWIDTH 6 0
BBX 5 7 0 0
BITMAP
70
88
88
F8
88
88
70
ENDCHAR
STARTCHAR char921
ENCODING 921
SWIDTH 250 0
DWIDTH 4 0
BBX 3 7 0 0
BITMAP
E0
40
40
40
40
40
E0
ENDCHAR
STARTCHAR char922
ENCODING 922
SWIDTH 375 0
DWIDTH 6 0
BBX 5 7 0 0
BITMAP
88
90
A0
C0
A0
90
88
ENDCHAR
STARTCHAR char923
ENCODING 923
SWIDTH 375 0
DWIDTH 6 0
BBX 5 7 0 0
BITMAP
20
20
50
50
50
88
88
ENDCHAR
STARTCHAR char924
ENCODING 924
SWIDTH 375 0
DWIDTH 6 0
BBX 5 7 0 0
BITMAP
88
D8
A8
88
88
88
88
ENDCHAR
STARTCHAR char925
ENCODING 925
SWIDTH 375 0
DWIDTH 6 0
BBX 5 7 0 0
BITMAP
88
C8
A8
98
88
88
88
ENDCHAR
STARTCHAR char926
ENCODING 926
SWIDTH 375 0
DWIDTH 6 0
BBX 5 7 0 0
BITMAP
F8
88
00
70
00
88
F8
ENDCHAR
STARTCHAR char927
ENCODING 927
SWIDTH 375 0
DWIDTH 6 0
BBX 5 7 0 0
BITMAP
70
88
88
88
88
88
70
ENDCHAR
STARTCHAR char928
ENCODING 928
SWIDTH 375 0
DWIDTH 6 0
BBX 5 7 0 0
BITMAP
F8
88
88
88
88
88
88
ENDCHAR
STARTCHAR char929
ENCODING 929
SWIDTH 375 0
DWIDTH 6 0
BBX 5 7 0 0
BITMAP
F0
88
88
F0
80
80
80
ENDCHAR
STARTCHAR char931
ENCODING 931
SWIDTH 375 0
DWIDTH 6 0
BBX 5 7 0 0
BITMAP
F8
80
40
20
40
80
F8
ENDCHAR
STARTCHAR char932
ENCODING 932
SWIDTH 375 0
DWIDTH 6 0
BBX 5 7 0 0
BITMAP
F8
20
20
20
20
20
20
ENDCHAR
STARTCHAR char933
ENCODING 933
SWIDTH 375 0
DWIDTH 6 0
BBX 5 7 0 0
BITMAP
88
88
50
20
20
20
20
ENDCHAR
STARTCHAR char934
ENCODING 934
SWIDTH 375 0
DWIDTH 6 0
BBX 5 7 0 0
BITMAP
20
70
A8
A8
A8
70
20
ENDCHAR
STARTCHAR char935
ENCODING 935
SWIDTH 375 0
DWIDTH 6 0
BBX 5 7 0 0
BITMAP
88
88
50
20
50
88
88
ENDCHAR
STARTCHAR char936
ENCODING 936
SWIDTH 375 0
DWIDTH 6 0
BBX 5 7 0 0
BITMAP
20
A8
A8
A8
70
20
20
ENDCHAR
STARTCHAR char937
ENCODING 937
SWIDTH 375 0
DWIDTH 6 0
BBX 5 7 0 0
BITMAP
70
88
88
88
88
50
D8
ENDCHAR
STARTCHAR char938
ENCODING 938
SWIDTH 250 0
DWIDTH 4 0
BBX 3 9 0 0
BITMAP
A0
00
E0
40
40
40
40
40
E0
ENDCHAR
STARTCHAR char939
ENCODING 939
SWIDTH 375 0
DWIDTH 6 0
BBX 5 9 0 0
BITMAP
50
00
88
88
50
20
20
20
20
ENDCHAR
STARTCHAR char945
ENCODING 940
SWIDTH 375 0
DWIDTH 6 0
BBX 5 8 0 0
BITMAP
10
20
00
68
90
90
90
68
ENDCHAR
STARTCHAR char949
ENCODING 941
SWIDTH 312 0
DWIDTH 5 0
BBX 4 8 0 0
BITMAP
20
40
00
70
80
60
80
70
ENDCHAR
STARTCHAR char951
ENCODING 942
SWIDTH 312 0
DWIDTH 5 0
BBX 4 10 0 -2
BITMAP
20
40
00
A0
D0
90
90
90
10
10
ENDCHAR
STARTCHAR char953
ENCODING 943
SWIDTH 250 0
DWIDTH 4 0
BBX 3 8 0 0
BITMAP
40
80
00
80
80
80
A0
40
ENDCHAR
STARTCHAR char945
ENCODING 945
SWIDTH 375 0
DWIDTH 6 0
BBX 5 5 0 0
BITMAP
68
90
90
90
68
ENDCHAR
STARTCHAR char946
ENCODING 946
SWIDTH 312 0
DWIDTH 5 0
BBX 4 9 0 -2
BITMAP
60
90
90
E0
90
90
E0
80
80
ENDCHAR
STARTCHAR char947
ENCODING 947
SWIDTH 312 0
DWIDTH 5 0
BBX 4 7 0 -2
BITMAP
90
50
50
50
20
20
20
ENDCHAR
STARTCHAR char948
ENCODING 948
SWIDTH 312 0
DWIDTH 5 0
BBX 4 7 0 0
BITMAP
70
40
20
50
90
90
60
ENDCHAR
STARTCHAR char949
ENCODING 949
SWIDTH 312 0
DWIDTH 5 0
BBX 4 5 0 0
BITMAP
70
80
60
80
70
ENDCHAR
STARTCHAR char950
ENCODING 950
SWIDTH 312 0
DWIDTH 5 0
BBX 4 9 0 -2
BITMAP
50
20
40
40
80
80
70
10
20
ENDCHAR
STARTCHAR char951
ENCODING 951
SWIDTH 312 0
DWIDTH 5 0
BBX 4 7 0 -2
BITMAP
A0
D0
90
90
90
10
10
ENDCHAR
STARTCHAR char952
ENCODING 952
SWIDTH 375 0
DWIDTH 6 0
BBX 5 7 0 0
BITMAP
30
48
88
F8
88
90
60
ENDCHAR
STARTCHAR char953
ENCODING 953
SWIDTH 250 0
DWIDTH 4 0
BBX 3 5 0 0
BITMAP
80
80
80
A0
40
ENDCHAR
STARTCHAR char954
ENCODING 954
SWIDTH 312 0
DWIDTH 5 0
BBX 4 5 0 0
BITMAP
90
A0
C0
A0
90
ENDCHAR
STARTCHAR char955
ENCODING 955
SWIDTH 312 0
DWIDTH 5 0
BBX 4 7 0 0
BITMAP
80
40
20
20
50
90
90
ENDCHAR
STARTCHAR char956
ENCODING 956
SWIDTH 375 0
DWIDTH 6 0
BBX 5 7 0 -2
BITMAP
90
90
90
90
E8
80
80
ENDCHAR
STARTCHAR char957
ENCODING 957
SWIDTH 312 0
DWIDTH 5 0
BBX 4 5 0 0
BITMAP
90
90
90
A0
C0
ENDCHAR
STARTCHAR char958
ENCODING 958
SWIDTH 312 0
DWIDTH 5 0
BBX 4 9 0 -2
BITMAP
70
80
80
70
80
80
70
10
60
ENDCHAR
STARTCHAR char959
ENCODING 959
SWIDTH 312 0
DWIDTH 5 0
BBX 4 5 0 0
BITMAP
60
90
90
90
60
ENDCHAR
STARTCHAR char960
ENCODING 960
SWIDTH 375 0
DWIDTH 6 0
BBX 5 5 0 0
BITMAP
F8
50
50
50
88
ENDCHAR
STARTCHAR char961
ENCODING 961
SWIDTH 312 0
DWIDTH 5 0
BBX 4 7 0 -2
BITMAP
60
90
90
90
E0
80
80
ENDCHAR
STARTCHAR char962
ENCODING 962
SWIDTH 312 0
DWIDTH 5 0
BBX 4 7 0 -2
BITMAP
60
90
80
80
60
10
60
ENDCHAR
STARTCHAR char963
ENCODING 963
SWIDTH 375 0
DWIDTH 6 0
BBX 5 5 0 0
BITMAP
78
90
90
90
60
ENDCHAR
STARTCHAR char964
ENCODING 964
SWIDTH 375 0
DWIDTH 6 0
BBX 5 5 0 0
BITMAP
78
A0
20
20
10
ENDCHAR
STARTCHAR char965
ENCODING 965
SWIDTH 375 0
DWIDTH 6 0
BBX 5 5 0 0
BITMAP
C8
48
48
48
30
ENDCHAR
STARTCHAR char966
ENCODING 966
SWIDTH 375 0
DWIDTH 6 0
BBX 5 8 0 -2
BITMAP
20
70
A8
A8
A8
70
20
20
ENDCHAR
STARTCHAR char967
ENCODING 967
SWIDTH 375 0
DWIDTH 6 0
BBX 5 7 0 -2
BITMAP
88
88
50
20
50
88
88
ENDCHAR
STARTCHAR char967
ENCODING 968
SWIDTH 375 0
DWIDTH 6 0
BBX 5 6 0 -2
BITMAP
A8
A8
A8
70
20
40
ENDCHAR
STARTCHAR char968
ENCODING 969
SWIDTH 375 0
DWIDTH 6 0
BBX 5 5 0 0
BITMAP
50
88
A8
A8
50
ENDCHAR
STARTCHAR char970
ENCODING 970
SWIDTH 312 0
DWIDTH 5 0
BBX 4 7 0 0
BITMAP
A0
00
40
40
40
50
20
ENDCHAR
STARTCHAR char971
ENCODING 971
SWIDTH 375 0
DWIDTH 6 0
BBX 5 7 0 0
BITMAP
50
00
C8
48
48
48
30
ENDCHAR
STARTCHAR char972
ENCODING 972
SWIDTH 312 0
DWIDTH 5 0
BBX 4 8 0 0
BITMAP
20
40
00
60
90
90
90
60
ENDCHAR
STARTCHAR char973
ENCODING 973
SWIDTH 375 0
DWIDTH 6 0
BBX 5 8 0 0
BITMAP
10
20
00
C8
48
48
48
30
ENDCHAR
STARTCHAR char974
ENCODING 974
SWIDTH 375 0
DWIDTH 6 0
BBX 5 8 0 0
BITMAP
10
20
00
50
88
A8
A8
50
ENDCHAR
STARTCHAR char1024
ENCODING 1024
SWIDTH 375 0
DWIDTH 6 0
BBX 5 9 0 0
BITMAP
40
20
00
F8
80
E0
80
80
F8
ENDCHAR
STARTCHAR char1025
ENCODING 1025
SWIDTH 375 0
DWIDTH 6 0
BBX 5 9 0 0
BITMAP
50
00
F8
80
80
E0
80
80
F8
ENDCHAR
STARTCHAR char1026
ENCODING 1026
SWIDTH 437 0
DWIDTH 7 0
BBX 6 9 0 -2
BITMAP
F0
40
58
64
44
44
44
04
08
ENDCHAR
STARTCHAR char1027
ENCODING 1027
SWIDTH 375 0
DWIDTH 6 0
BBX 5 9 0 0
BITMAP
10
20
00
F8
80
80
80
80
80
ENDCHAR
STARTCHAR char1028
ENCODING 1028
SWIDTH 375 0
DWIDTH 6 0
BBX 5 7 0 0
BITMAP
70
88
80
F0
80
88
70
ENDCHAR
STARTCHAR char1029
ENCODING 1029
SWIDTH 375 0
DWIDTH 6 0
BBX 5 7 0 0
BITMAP
70
88
80
70
08
88
70
ENDCHAR
STARTCHAR char1030
ENCODING 1030
SWIDTH 250 0
DWIDTH 4 0
BBX 3 7 0 0
BITMAP
E0
40
40
40
40
40
E0
ENDCHAR
STARTCHAR char1031
ENCODING 1031
SWIDTH 250 0
DWIDTH 4 0
BBX 3 9 0 0
BITMAP
A0
00
E0
40
40
40
40
40
E0
ENDCHAR
STARTCHAR char1032
ENCODING 1032
SWIDTH 375 0
DWIDTH 6 0
BBX 5 7 0 0
BITMAP
18
08
08
08
08
88
70
ENDCHAR
STARTCHAR char1033
ENCODING 1033
SWIDTH 562 0
DWIDTH 9 0
BBX 8 7 0 0
BITMAP
38
48
48
4E
49
49
8E
ENDCHAR
STARTCHAR char1034
ENCODING 1034
SWIDTH 562 0
DWIDTH 9 0
BBX 8 7 0 0
BITMAP
88
88
88
FE
89
89
8E
ENDCHAR
STARTCHAR char1035
ENCODING 1035
SWIDTH 437 0
DWIDTH 7 0
BBX 6 7 0 0
BITMAP
F0
40
58
64
44
44
44
ENDCHAR
STARTCHAR char1036
ENCODING 1036
SWIDTH 375 0
DWIDTH 6 0
BBX 5 9 0 0
BITMAP
10
20
00
88
B0
C0
A0
90
88
ENDCHAR
STARTCHAR char1037
ENCODING 1037
SWIDTH 375 0
DWIDTH 6 0
BBX 5 9 0 0
BITMAP
40
20
00
88
98
A8
C8
88
88
ENDCHAR
STARTCHAR char1038
ENCODING 1038
SWIDTH 375 0
DWIDTH 6 0
BBX 5 9 0 0
BITMAP
50
70
00
88
88
50
20
20
20
ENDCHAR
STARTCHAR char1039
ENCODING 1039
SWIDTH 375 0
DWIDTH 6 0
BBX 5 8 0 -1
BITMAP
88
88
88
88
88
88
F8
20
ENDCHAR
STARTCHAR char1040
ENCODING 1040
SWIDTH 375 0
DWIDTH 6 0
BBX 5 7 0 0
BITMAP
20
50
50
88
F8
88
88
ENDCHAR
STARTCHAR char1041
ENCODING 1041
SWIDTH 375 0
DWIDTH 6 0
BBX 5 7 0 0
BITMAP
F0
80
80
F0
88
88
F0
ENDCHAR
STARTCHAR char1042
ENCODING 1042
SWIDTH 375 0
DWIDTH 6 0
BBX 5 7 0 0
BITMAP
F0
88
88
F0
88
88
F0
ENDCHAR
STARTCHAR char1043
ENCODING 1043
SWIDTH 375 0
DWIDTH 6 0
BBX 5 7 0 0
BITMAP
F8
80
80
80
80
80
80
ENDCHAR
STARTCHAR char1044
ENCODING 1044
SWIDTH 437 0
DWIDTH 7 0
BBX 6 8 0 -1
BITMAP
38
28
48
48
48
48
FC
84
ENDCHAR
STARTCHAR char1045
ENCODING 1045
SWIDTH 375 0
DWIDTH 6 0
BBX 5 7 0 0
BITMAP
F8
80
80
E0
80
80
F8
ENDCHAR
STARTCHAR char1046
ENCODING 1046
SWIDTH 500 0
DWIDTH 8 0
BBX 7 7 0 0
BITMAP
92
92
54
38
54
92
92
ENDCHAR
STARTCHAR char1047
ENCODING 1047
SWIDTH 375 0
DWIDTH 6 0
BBX 5 7 0 0
BITMAP
70
88
08
30
08
88
70
ENDCHAR
STARTCHAR char1048
ENCODING 1048
SWIDTH 375 0
DWIDTH 6 0
BBX 5 7 0 0
BITMAP
88
88
98
A8
C8
88
88
ENDCHAR
STARTCHAR char1049
ENCODING 1049
SWIDTH 375 0
DWIDTH 6 0
BBX 5 9 0 0
BITMAP
50
70
00
88
98
A8
C8
88
88
ENDCHAR
STARTCHAR char1050
ENCODING 1050
SWIDTH 375 0
DWIDTH 6 0
BBX 5 7 0 0
BITMAP
88
90
A0
C0
A0
90
88
ENDCHAR
STARTCHAR char1051
ENCODING 1051
SWIDTH 375 0
DWIDTH 6 0
BBX 5 7 0 0
BITMAP
38
48
48
48
48
48
88
ENDCHAR
STARTCHAR char1052
ENCODING 1052
SWIDTH 375 0
DWIDTH 6 0
BBX 5 7 0 0
BITMAP
88
D8
A8
88
88
88
88
ENDCHAR
STARTCHAR char1053
ENCODING 1053
SWIDTH 375 0
DWIDTH 6 0
BBX 5 7 0 0
BITMAP
88
88
88
F8
88
88
88
ENDCHAR
STARTCHAR char1054
ENCODING 1054
SWIDTH 375 0
DWIDTH 6 0
BBX 5 7 0 0
BITMAP
70
88
88
88
88
88
70
ENDCHAR
STARTCHAR char1055
ENCODING 1055
SWIDTH 375 0
DWIDTH 6 0
BBX 5 7 0 0
BITMAP
F8
88
88
88
88
88
88
ENDCHAR
STARTCHAR char1056
ENCODING 1056
SWIDTH 375 0
DWIDTH 6 0
BBX 5 7 0 0
BITMAP
F0
88
88
F0
80
80
80
ENDCHAR
STARTCHAR char1057
ENCODING 1057
SWIDTH 375 0
DWIDTH 6 0
BBX 5 7 0 0
BITMAP
70
88
80
80
80
88
70
ENDCHAR
STARTCHAR char1058
ENCODING 1058
SWIDTH 375 0
DWIDTH 6 0
BBX 5 7 0 0
BITMAP
F8
20
20
20
20
20
20
ENDCHAR
STARTCHAR char1059
ENCODING 1059
SWIDTH 375 0
DWIDTH 6 0
BBX 5 7 0 0
BITMAP
88
88
88
50
20
40
80
ENDCHAR
STARTCHAR char1060
ENCODING 1060
SWIDTH 375 0
DWIDTH 6 0
BBX 5 7 0 0
BITMAP
20
70
A8
A8
A8
70
20
ENDCHAR
STARTCHAR char1061
ENCODING 1061
SWIDTH 375 0
DWIDTH 6 0
BBX 5 7 0 0
BITMAP
88
88
50
20
50
88
88
ENDCHAR
STARTCHAR char1062
ENCODING 1062
SWIDTH 375 0
DWIDTH 6 0
BBX 5 8 0 -1
BITMAP
90
90
90
90
90
90
F8
08
ENDCHAR
STARTCHAR char1063
ENCODING 1063
SWIDTH 375 0
DWIDTH 6 0
BBX 5 7 0 0
BITMAP
88
88
88
98
68
08
08
ENDCHAR
STARTCHAR char1064
ENCODING 1064
SWIDTH 375 0
DWIDTH 6 0
BBX 5 7 0 0
BITMAP
A8
A8
A8
A8
A8
A8
F8
ENDCHAR
STARTCHAR char1065
ENCODING 1065
SWIDTH 437 0
DWIDTH 7 0
BBX 6 8 0 -1
BITMAP
A8
A8
A8
A8
A8
A8
FC
04
ENDCHAR
STARTCHAR char1066
ENCODING 1066
SWIDTH 375 0
DWIDTH 6 0
BBX 5 7 0 0
BITMAP
C0
40
40
70
48
48
70
ENDCHAR
STARTCHAR char1067
ENCODING 1067
SWIDTH 437 0
DWIDTH 7 0
BBX 6 7 0 0
BITMAP
84
84
84
E4
94
94
E4
ENDCHAR
STARTCHAR char1068
ENCODING 1068
SWIDTH 312 0
DWIDTH 5 0
BBX 4 7 0 0
BITMAP
80
80
80
E0
90
90
E0
ENDCHAR
STARTCHAR char1069
ENCODING 1069
SWIDTH 375 0
DWIDTH 6 0
BBX 5 7 0 0
BITMAP
70
88
08
78
08
88
70
ENDCHAR
STARTCHAR char1070
ENCODING 1070
SWIDTH 437 0
DWIDTH 7 0
BBX 6 7 0 0
BITMAP
98
A4
A4
E4
A4
A4
98
ENDCHAR
STARTCHAR char1071
ENCODING 1071
SWIDTH 375 0
DWIDTH 6 0
BBX 5 7 0 0
BITMAP
78
88
88
78
28
48
88
ENDCHAR
STARTCHAR char1072
ENCODING 1072
SWIDTH 312 0
DWIDTH 5 0
BBX 4 5 0 0
BITMAP
60
10
70
90
70
ENDCHAR
STARTCHAR char1073
ENCODING 1073
SWIDTH 312 0
DWIDTH 5 0
BBX 4 7 0 0
BITMAP
60
80
E0
90
90
90
60
ENDCHAR
STARTCHAR char1074
ENCODING 1074
SWIDTH 312 0
DWIDTH 5 0
BBX 4 5 0 0
BITMAP
E0
90
E0
90
E0
ENDCHAR
STARTCHAR char1075
ENCODING 1075
SWIDTH 312 0
DWIDTH 5 0
BBX 4 5 0 0
BITMAP
F0
80
80
80
80
ENDCHAR
STARTCHAR char1076
ENCODING 1076
SWIDTH 375 0
DWIDTH 6 0
BBX 5 6 0 -1
BITMAP
30
50
50
50
F8
88
ENDCHAR
STARTCHAR char1077
ENCODING 1077
SWIDTH 312 0
DWIDTH 5 0
BBX 4 5 0 0
BITMAP
60
90
F0
80
70
ENDCHAR
STARTCHAR char1078
ENCODING 1078
SWIDTH 375 0
DWIDTH 6 0
BBX 5 5 0 0
BITMAP
A8
A8
70
A8
A8
ENDCHAR
STARTCHAR char1079
ENCODING 1079
SWIDTH 312 0
DWIDTH 5 0
BBX 4 5 0 0
BITMAP
60
90
20
90
60
ENDCHAR
STARTCHAR char1080
ENCODING 1080
SWIDTH 312 0
DWIDTH 5 0
BBX 4 5 0 0
BITMAP
90
B0
D0
90
90
ENDCHAR
STARTCHAR char1081
ENCODING 1081
SWIDTH 312 0
DWIDTH 5 0
BBX 4 8 0 0
BITMAP
50
70
00
90
B0
D0
90
90
ENDCHAR
STARTCHAR char1082
ENCODING 1082
SWIDTH 312 0
DWIDTH 5 0
BBX 4 5 0 0
BITMAP
90
A0
C0
A0
90
ENDCHAR
STARTCHAR char1083
ENCODING 1083
SWIDTH 312 0
DWIDTH 5 0
BBX 4 5 0 0
BITMAP
30
50
50
50
90
ENDCHAR
STARTCHAR char1084
ENCODING 1084
SWIDTH 375 0
DWIDTH 6 0
BBX 5 5 0 0
BITMAP
88
D8
A8
88
88
ENDCHAR
STARTCHAR char1085
ENCODING 1085
SWIDTH 312 0
DWIDTH 5 0
BBX 4 5 0 0
BITMAP
90
90
F0
90
90
ENDCHAR
STARTCHAR char1086
ENCODING 1086
SWIDTH 312 0
DWIDTH 5 0
BBX 4 5 0 0
BITMAP
60
90
90
90
60
ENDCHAR
STARTCHAR char1087
ENCODING 1087
SWIDTH 312 0
DWIDTH 5 0
BBX 4 5 0 0
BITMAP
F0
90
90
90
90
ENDCHAR
STARTCHAR char1088
ENCODING 1088
SWIDTH 312 0
DWIDTH 5 0
BBX 4 7 0 -2
BITMAP
E0
90
90
90
E0
80
80
ENDCHAR
STARTCHAR char1089
ENCODING 1089
SWIDTH 312 0
DWIDTH 5 0
BBX 4 5 0 0
BITMAP
60
90
80
80
70
ENDCHAR
STARTCHAR char1090
ENCODING 1090
SWIDTH 375 0
DWIDTH 6 0
BBX 5 5 0 0
BITMAP
F8
20
20
20
20
ENDCHAR
STARTCHAR char1091
ENCODING 1091
SWIDTH 312 0
DWIDTH 5 0
BBX 4 7 0 -2
BITMAP
90
90
90
90
70
10
E0
ENDCHAR
STARTCHAR char1092
ENCODING 1092
SWIDTH 375 0
DWIDTH 6 0
BBX 5 9 0 -2
BITMAP
20
20
70
A8
A8
A8
70
20
20
ENDCHAR
STARTCHAR char1093
ENCODING 1093
SWIDTH 375 0
DWIDTH 6 0
BBX 5 5 0 0
BITMAP
88
50
20
50
88
ENDCHAR
STARTCHAR char1094
ENCODING 1094
SWIDTH 375 0
DWIDTH 6 0
BBX 5 6 0 -1
BITMAP
90
90
90
90
F8
08
ENDCHAR
STARTCHAR char1095
ENCODING 1095
SWIDTH 250 0
DWIDTH 4 0
BBX 4 5 0 0
BITMAP
90
90
70
10
10
ENDCHAR
STARTCHAR char1096
ENCODING 1096
SWIDTH 375 0
DWIDTH 6 0
BBX 5 5 0 0
BITMAP
A8
A8
A8
A8
F8
ENDCHAR
STARTCHAR char1097
ENCODING 1097
SWIDTH 437 0
DWIDTH 7 0
BBX 6 6 0 -1
BITMAP
A8
A8
A8
A8
FC
04
ENDCHAR
STARTCHAR char1098
ENCODING 1098
SWIDTH 375 0
DWIDTH 6 0
BBX 5 5 0 0
BITMAP
C0
40
70
48
70
ENDCHAR
STARTCHAR char1099
ENCODING 1099
SWIDTH 437 0
DWIDTH 7 0
BBX 6 5 0 0
BITMAP
84
84
E4
94
E4
ENDCHAR
STARTCHAR char1100
ENCODING 1100
SWIDTH 312 0
DWIDTH 5 0
BBX 4 5 0 0
BITMAP
80
80
E0
90
E0
ENDCHAR
STARTCHAR char1101
ENCODING 1101
SWIDTH 312 0
DWIDTH 5 0
BBX 4 5 0 0
BITMAP
E0
10
70
10
E0
ENDCHAR
STARTCHAR char1102
ENCODING 1102
SWIDTH 375 0
DWIDTH 6 0
BBX 5 5 0 0
BITMAP
90
A8
E8
A8
90
ENDCHAR
STARTCHAR char1103
ENCODING 1103
SWIDTH 312 0
DWIDTH 5 0
BBX 4 5 0 0
BITMAP
70
90
70
50
90
ENDCHAR
STARTCHAR char1104
ENCODING 1104
SWIDTH 312 0
DWIDTH 5 0
BBX 4 8 0 0
BITMAP
40
20
00
60
90
F0
80
70
ENDCHAR
STARTCHAR char1105
ENCODING 1105
SWIDTH 312 0
DWIDTH 5 0
BBX 4 7 0 0
BITMAP
50
00
60
90
F0
80
70
ENDCHAR
STARTCHAR char1106
ENCODING 1106
SWIDTH 375 0
DWIDTH 6 0
BBX 5 9 0 -2
BITMAP
40
F0
40
70
48
48
48
08
10
ENDCHAR
STARTCHAR char1107
ENCODING 1107
SWIDTH 312 0
DWIDTH 5 0
BBX 4 8 0 0
BITMAP
20
40
00
F0
80
80
80
80
ENDCHAR
STARTCHAR char1108
ENCODING 1108
SWIDTH 312 0
DWIDTH 5 0
BBX 4 5 0 0
BITMAP
70
80
E0
80
70
ENDCHAR
STARTCHAR char1109
ENCODING 1109
SWIDTH 312 0
DWIDTH 5 0
BBX 4 5 0 0
BITMAP
70
80
60
10
E0
ENDCHAR
STARTCHAR char1110
ENCODING 1110
SWIDTH 187 0
DWIDTH 3 0
BBX 2 7 0 0
BITMAP
40
00
C0
40
40
40
40
ENDCHAR
STARTCHAR char1111
ENCODING 1111
SWIDTH 187 0
DWIDTH 3 0
BBX 3 7 0 0
BITMAP
A0
00
C0
40
40
40
40
ENDCHAR
STARTCHAR char1112
ENCODING 1112
SWIDTH 250 0
DWIDTH 4 0
BBX 3 9 0 -2
BITMAP
20
00
60
20
20
20
20
A0
40
ENDCHAR
STARTCHAR char1113
ENCODING 1113
SWIDTH 437 0
DWIDTH 7 0
BBX 6 5 0 0
BITMAP
30
50
58
54
98
ENDCHAR
STARTCHAR char1114
ENCODING 1114
SWIDTH 437 0
DWIDTH 7 0
BBX 6 5 0 0
BITMAP
90
90
F8
94
98
ENDCHAR
STARTCHAR char1115
ENCODING 1115
SWIDTH 375 0
DWIDTH 6 0
BBX 5 7 0 0
BITMAP
40
F0
40
70
48
48
48
ENDCHAR
STARTCHAR char1116
ENCODING 1116
SWIDTH 312 0
DWIDTH 5 0
BBX 4 8 0 0
BITMAP
20
40
00
90
A0
C0
A0
90
ENDCHAR
STARTCHAR char1117
ENCODING 1117
SWIDTH 312 0
DWIDTH 5 0
BBX 4 8 0 0
BITMAP
40
20
00
90
B0
D0
90
90
ENDCHAR
STARTCHAR char1118
ENCODING 1118
SWIDTH 312 0
DWIDTH 5 0
BBX 4 10 0 -2
BITMAP
50
70
00
90
90
90
90
70
10
E0
ENDCHAR
STARTCHAR char1119
ENCODING 1119
SWIDTH 312 0
DWIDTH 5 0
BBX 4 6 0 -1
BITMAP
90
90
90
90
F0
20
ENDCHAR
STARTCHAR char1120
ENCODING 1120
SWIDTH 375 0
DWIDTH 6 0
BBX 5 7 0 0
BITMAP
50
88
88
A8
A8
A8
50
ENDCHAR
STARTCHAR char1121
ENCODING 1121
SWIDTH 375 0
DWIDTH 6 0
BBX 5 5 0 0
BITMAP
88
A8
A8
A8
50
ENDCHAR
STARTCHAR char1122
ENCODING 1122
SWIDTH 375 0
DWIDTH 6 0
BBX 5 7 0 0
BITMAP
40
F0
40
70
48
48
70
ENDCHAR
STARTCHAR char1123
ENCODING 1123
SWIDTH 375 0
DWIDTH 6 0
BBX 5 7 0 0
BITMAP
40
40
F0
40
70
48
70
ENDCHAR
STARTCHAR char1124
ENCODING 1124
SWIDTH 437 0
DWIDTH 7 0
BBX 6 7 0 0
BITMAP
98
A4
A0
F8
A0
A4
98
ENDCHAR
STARTCHAR char1125
ENCODING 1125
SWIDTH 375 0
DWIDTH 6 0
BBX 5 5 0 0
BITMAP
98
A0
F8
A0
98
ENDCHAR
STARTCHAR char1126
ENCODING 1126
SWIDTH 375 0
DWIDTH 6 0
BBX 5 7 0 0
BITMAP
20
50
50
F8
A8
A8
A8
ENDCHAR
STARTCHAR char1127
ENCODING 1127
SWIDTH 375 0
DWIDTH 6 0
BBX 5 5 0 0
BITMAP
20
50
70
A8
A8
ENDCHAR
STARTCHAR char1128
ENCODING 1128
SWIDTH 500 0
DWIDTH 8 0
BBX 7 7 0 0
BITMAP
88
94
94
FC
AA
AA
AA
ENDCHAR
STARTCHAR char1129
ENCODING 1129
SWIDTH 500 0
DWIDTH 8 0
BBX 7 5 0 0
BITMAP
88
94
FC
AA
AA
ENDCHAR
STARTCHAR char1130
ENCODING 1130
SWIDTH 500 0
DWIDTH 8 0
BBX 7 7 0 0
BITMAP
FE
44
28
7C
92
92
92
ENDCHAR
STARTCHAR char1131
ENCODING 1131
SWIDTH 375 0
DWIDTH 6 0
BBX 5 5 0 0
BITMAP
F8
50
70
A8
A8
ENDCHAR
STARTCHAR char1130
ENCODING 1132
SWIDTH 500 0
DWIDTH 8 0
BBX 7 7 0 0
BITMAP
BE
94
88
FC
AA
AA
AA
ENDCHAR
STARTCHAR char1131
ENCODING 1133
SWIDTH 500 0
DWIDTH 8 0
BBX 7 5 0 0
BITMAP
BE
94
FC
AA
AA
ENDCHAR
STARTCHAR char1134
ENCODING 1134
SWIDTH 375 0
DWIDTH 6 0
BBX 5 11 0 -2
BITMAP
50
20
00
F0
08
70
08
08
F0
80
78
ENDCHAR
STARTCHAR char1135
ENCODING 1135
SWIDTH 312 0
DWIDTH 5 0
BBX 4 10 0 -2
BITMAP
50
20
00
E0
10
60
10
E0
80
70
ENDCHAR
STARTCHAR char1136
ENCODING 1136
SWIDTH 375 0
DWIDTH 6 0
BBX 5 7 0 0
BITMAP
A8
A8
A8
70
20
20
20
ENDCHAR
STARTCHAR char1137
ENCODING 1137
SWIDTH 375 0
DWIDTH 6 0
BBX 5 7 0 -2
BITMAP
A8
A8
A8
A8
70
20
20
ENDCHAR
STARTCHAR char1138
ENCODING 1138
SWIDTH 375 0
DWIDTH 6 0
BBX 5 7 0 0
BITMAP
70
88
88
F8
88
88
70
ENDCHAR
STARTCHAR char1139
ENCODING 1139
SWIDTH 312 0
DWIDTH 5 0
BBX 4 5 0 0
BITMAP
60
90
F0
90
60
ENDCHAR
STARTCHAR char1140
ENCODING 1140
SWIDTH 437 0
DWIDTH 7 0
BBX 6 7 0 0
BITMAP
8C
88
88
50
50
20
20
ENDCHAR
STARTCHAR char1141
ENCODING 1141
SWIDTH 437 0
DWIDTH 7 0
BBX 6 5 0 0
BITMAP
8C
88
50
50
20
ENDCHAR
STARTCHAR char1142
ENCODING 1142
SWIDTH 437 0
DWIDTH 7 0
BBX 6 9 0 0
BITMAP
90
48
00
8C
88
50
50
20
20
ENDCHAR
STARTCHAR char1143
ENCODING 1143
SWIDTH 437 0
DWIDTH 7 0
BBX 6 8 0 0
BITMAP
90
48
00
8C
88
50
50
20
ENDCHAR
STARTCHAR char1150
ENCODING 1150
SWIDTH 375 0
DWIDTH 6 0
BBX 5 9 0 0
BITMAP
70
00
50
88
88
A8
A8
A8
50
ENDCHAR
STARTCHAR char1151
ENCODING 1151
SWIDTH 375 0
DWIDTH 6 0
BBX 5 7 0 0
BITMAP
70
00
88
A8
A8
A8
50
ENDCHAR
STARTCHAR char1162
ENCODING 1162
SWIDTH 437 0
DWIDTH 7 0
BBX 6 11 0 -2
BITMAP
50
70
00
88
98
A8
C8
88
8C
04
08
ENDCHAR
STARTCHAR char1163
ENCODING 1163
SWIDTH 375 0
DWIDTH 6 0
BBX 5 10 0 -2
BITMAP
50
70
00
90
B0
D0
90
98
08
10
ENDCHAR
STARTCHAR char1164
ENCODING 1164
SWIDTH 375 0
DWIDTH 6 0
BBX 5 7 0 0
BITMAP
40
E0
40
70
48
48
70
ENDCHAR
STARTCHAR char1165
ENCODING 1165
SWIDTH 375 0
DWIDTH 6 0
BBX 5 6 0 0
BITMAP
40
E0
40
70
48
70
ENDCHAR
STARTCHAR char1166
ENCODING 1166
SWIDTH 375 0
DWIDTH 6 0
BBX 5 7 0 0
BITMAP
F0
88
A8
F0
A0
80
80
ENDCHAR
STARTCHAR char1168
ENCODING 1168
SWIDTH 375 0
DWIDTH 6 0
BBX 5 8 0 0
BITMAP
08
F8
80
80
80
80
80
80
ENDCHAR
STARTCHAR char1169
ENCODING 1169
SWIDTH 312 0
DWIDTH 5 0
BBX 4 6 0 0
BITMAP
10
F0
80
80
80
80
ENDCHAR
STARTCHAR char1170
ENCODING 1170
SWIDTH 437 0
DWIDTH 7 0
BBX 6 7 0 0
BITMAP
7C
40
40
F0
40
40
40
ENDCHAR
STARTCHAR char1171
ENCODING 1171
SWIDTH 375 0
DWIDTH 6 0
BBX 5 5 0 0
BITMAP
78
40
F0
40
40
ENDCHAR
STARTCHAR char1172
ENCODING 1172
SWIDTH 375 0
DWIDTH 6 0
BBX 5 9 0 -2
BITMAP
F8
80
80
E0
90
88
08
90
60
ENDCHAR
STARTCHAR char1173
ENCODING 1173
SWIDTH 312 0
DWIDTH 5 0
BBX 4 7 0 -2
BITMAP
F0
80
E0
90
90
10
E0
ENDCHAR
STARTCHAR char1174
ENCODING 1174
SWIDTH 500 0
DWIDTH 8 0
BBX 7 8 0 -1
BITMAP
92
92
54
38
54
92
92
02
ENDCHAR
STARTCHAR char1175
ENCODING 1175
SWIDTH 375 0
DWIDTH 6 0
BBX 5 6 0 -1
BITMAP
A8
A8
70
A8
A8
08
ENDCHAR
STARTCHAR char1176
ENCODING 1176
SWIDTH 375 0
DWIDTH 6 0
BBX 5 9 0 -2
BITMAP
70
88
08
30
08
88
70
20
40
ENDCHAR
STARTCHAR char1177
ENCODING 1177
SWIDTH 312 0
DWIDTH 5 0
BBX 4 7 0 -2
BITMAP
60
90
20
90
60
20
40
ENDCHAR
STARTCHAR char1178
ENCODING 1178
SWIDTH 375 0
DWIDTH 6 0
BBX 5 8 0 -1
BITMAP
88
90
A0
C0
A0
90
88
08
ENDCHAR
STARTCHAR char1179
ENCODING 1179
SWIDTH 312 0
DWIDTH 5 0
BBX 4 6 0 -1
BITMAP
90
A0
C0
A0
90
10
ENDCHAR
STARTCHAR char1182
ENCODING 1182
SWIDTH 437 0
DWIDTH 7 0
BBX 6 7 0 0
BITMAP
44
E8
50
60
50
48
44
ENDCHAR
STARTCHAR char1183
ENCODING 1183
SWIDTH 375 0
DWIDTH 6 0
BBX 5 7 0 0
BITMAP
40
E0
48
50
60
50
48
ENDCHAR
STARTCHAR char1184
ENCODING 1184
SWIDTH 437 0
DWIDTH 7 0
BBX 6 7 0 0
BITMAP
C4
48
50
60
50
48
44
ENDCHAR
STARTCHAR char1185
ENCODING 1185
SWIDTH 375 0
DWIDTH 6 0
BBX 5 5 0 0
BITMAP
C8
50
60
50
48
ENDCHAR
STARTCHAR char1186
ENCODING 1186
SWIDTH 437 0
DWIDTH 7 0
BBX 6 8 0 -1
BITMAP
88
88
88
F8
88
88
8C
04
ENDCHAR
STARTCHAR char1187
ENCODING 1187
SWIDTH 375 0
DWIDTH 6 0
BBX 5 6 0 -1
BITMAP
90
90
F0
90
98
08
ENDCHAR
STARTCHAR char1188
ENCODING 1188
SWIDTH 500 0
DWIDTH 8 0
BBX 7 7 0 0
BITMAP
9E
90
90
F0
90
90
90
ENDCHAR
STARTCHAR char1189
ENCODING 1189
SWIDTH 437 0
DWIDTH 7 0
BBX 6 5 0 0
BITMAP
9C
90
F0
90
90
ENDCHAR
STARTCHAR char1190
ENCODING 1190
SWIDTH 500 0
DWIDTH 8 0
BBX 7 9 0 -2
BITMAP
F0
90
90
9C
92
92
92
02
1C
ENDCHAR
STARTCHAR char1191
ENCODING 1191
SWIDTH 437 0
DWIDTH 7 0
BBX 6 7 0 -2
BITMAP
F0
90
98
94
94
04
38
ENDCHAR
STARTCHAR char1192
ENCODING 1192
SWIDTH 375 0
DWIDTH 6 0
BBX 5 7 0 0
BITMAP
40
90
A8
A8
A8
90
68
ENDCHAR
STARTCHAR char1193
ENCODING 1193
SWIDTH 375 0
DWIDTH 6 0
BBX 5 5 0 0
BITMAP
40
90
A8
90
68
ENDCHAR
STARTCHAR char1194
ENCODING 1194
SWIDTH 375 0
DWIDTH 6 0
BBX 5 9 0 -2
BITMAP
70
88
80
80
80
88
70
20
40
ENDCHAR
STARTCHAR char1195
ENCODING 1195
SWIDTH 312 0
DWIDTH 5 0
BBX 4 7 0 -2
BITMAP
60
90
80
80
70
20
40
ENDCHAR
STARTCHAR char1196
ENCODING 1196
SWIDTH 375 0
DWIDTH 6 0
BBX 5 8 0 -1
BITMAP
F8
20
20
20
20
20
30
10
ENDCHAR
STARTCHAR char1197
ENCODING 1197
SWIDTH 375 0
DWIDTH 6 0
BBX 5 6 0 -1
BITMAP
F8
20
20
20
30
10
ENDCHAR
STARTCHAR char1198
ENCODING 1198
SWIDTH 375 0
DWIDTH 6 0
BBX 5 7 0 0
BITMAP
88
88
50
20
20
20
20
ENDCHAR
STARTCHAR char1199
ENCODING 1199
SWIDTH 375 0
DWIDTH 6 0
BBX 5 7 0 -2
BITMAP
88
88
50
50
20
20
20
ENDCHAR
STARTCHAR char1200
ENCODING 1200
SWIDTH 375 0
DWIDTH 6 0
BBX 5 7 0 0
BITMAP
88
88
50
20
20
70
20
ENDCHAR
STARTCHAR char1201
ENCODING 1201
SWIDTH 375 0
DWIDTH 6 0
BBX 5 7 0 -2
BITMAP
88
88
50
50
20
70
20
ENDCHAR
STARTCHAR char1202
ENCODING 1202
SWIDTH 375 0
DWIDTH 6 0
BBX 5 8 0 -1
BITMAP
88
88
50
20
50
88
88
08
ENDCHAR
STARTCHAR char1203
ENCODING 1203
SWIDTH 375 0
DWIDTH 6 0
BBX 5 6 0 -1
BITMAP
88
50
20
50
88
08
ENDCHAR
STARTCHAR char1204
ENCODING 1204
SWIDTH 500 0
DWIDTH 8 0
BBX 7 8 0 -1
BITMAP
F4
24
24
24
24
24
3E
02
ENDCHAR
STARTCHAR char1205
ENCODING 1205
SWIDTH 437 0
DWIDTH 7 0
BBX 6 6 0 -1
BITMAP
E8
48
48
48
7C
04
ENDCHAR
STARTCHAR char1206
ENCODING 1206
SWIDTH 437 0
DWIDTH 7 0
BBX 6 8 0 -1
BITMAP
88
88
88
98
68
08
0C
04
ENDCHAR
STARTCHAR char1207
ENCODING 1207
SWIDTH 375 0
DWIDTH 6 0
BBX 5 6 0 -1
BITMAP
90
90
70
10
18
08
ENDCHAR
STARTCHAR char1208
ENCODING 1208
SWIDTH 375 0
DWIDTH 6 0
BBX 5 7 0 0
BITMAP
88
88
A8
A8
78
28
08
ENDCHAR
STARTCHAR char1210
ENCODING 1210
SWIDTH 375 0
DWIDTH 6 0
BBX 5 7 0 0
BITMAP
80
80
B0
C8
88
88
88
ENDCHAR
STARTCHAR char1211
ENCODING 1211
SWIDTH 312 0
DWIDTH 5 0
BBX 4 7 0 0
BITMAP
80
80
E0
90
90
90
90
ENDCHAR
STARTCHAR char1212
ENCODING 1212
SWIDTH 500 0
DWIDTH 8 0
BBX 7 7 0 0
BITMAP
1C
A2
A2
7E
20
22
1C
ENDCHAR
STARTCHAR char1213
ENCODING 1213
SWIDTH 437 0
DWIDTH 7 0
BBX 6 5 0 0
BITMAP
98
A4
7C
20
1C
ENDCHAR
STARTCHAR char1214
ENCODING 1214
SWIDTH 500 0
DWIDTH 8 0
BBX 7 9 0 -2
BITMAP
1C
A2
A2
7E
20
22
1C
08
08
ENDCHAR
STARTCHAR char1215
ENCODING 1215
SWIDTH 437 0
DWIDTH 7 0
BBX 6 7 0 -2
BITMAP
98
A4
7C
20
1C
08
08
ENDCHAR
STARTCHAR char1216
ENCODING 1216
SWIDTH 250 0
DWIDTH 4 0
BBX 3 7 0 0
BITMAP
E0
40
40
40
40
40
E0
ENDCHAR
STARTCHAR char1217
ENCODING 1217
SWIDTH 500 0
DWIDTH 8 0
BBX 7 9 0 0
BITMAP
28
38
00
92
54
38
54
92
92
ENDCHAR
STARTCHAR char1218
ENCODING 1218
SWIDTH 375 0
DWIDTH 6 0
BBX 5 8 0 0
BITMAP
50
70
00
A8
A8
70
A8
A8
ENDCHAR
STARTCHAR char1219
ENCODING 1219
SWIDTH 375 0
DWIDTH 6 0
BBX 5 9 0 -2
BITMAP
88
90
A0
E0
90
88
88
08
30
ENDCHAR
STARTCHAR char1220
ENCODING 1220
SWIDTH 312 0
DWIDTH 5 0
BBX 4 7 0 -2
BITMAP
90
A0
E0
90
90
10
60
ENDCHAR
STARTCHAR char1221
ENCODING 1221
SWIDTH 437 0
DWIDTH 7 0
BBX 6 9 0 -2
BITMAP
38
48
48
48
48
48
8C
04
08
ENDCHAR
STARTCHAR char1222
ENCODING 1222
SWIDTH 375 0
DWIDTH 6 0
BBX 5 7 0 -2
BITMAP
30
50
50
50
98
08
10
ENDCHAR
STARTCHAR char1223
ENCODING 1223
SWIDTH 375 0
DWIDTH 6 0
BBX 5 9 0 -2
BITMAP
88
88
88
F8
88
88
88
08
30
ENDCHAR
STARTCHAR char1224
ENCODING 1224
SWIDTH 312 0
DWIDTH 5 0
BBX 4 7 0 -2
BITMAP
90
90
F0
90
90
10
60
ENDCHAR
STARTCHAR char1225
ENCODING 1225
SWIDTH 437 0
DWIDTH 7 0
BBX 6 9 0 -2
BITMAP
88
88
88
F8
88
88
8C
04
08
ENDCHAR
STARTCHAR char1226
ENCODING 1226
SWIDTH 375 0
DWIDTH 6 0
BBX 5 7 0 -2
BITMAP
90
90
F0
90
98
08
10
ENDCHAR
STARTCHAR char1227
ENCODING 1227
SWIDTH 375 0
DWIDTH 6 0
BBX 5 8 0 -1
BITMAP
88
88
88
98
68
08
18
10
ENDCHAR
STARTCHAR char1228
ENCODING 1228
SWIDTH 312 0
DWIDTH 5 0
BBX 4 6 0 -1
BITMAP
90
90
70
10
30
20
ENDCHAR
STARTCHAR char1229
ENCODING 1229
SWIDTH 437 0
DWIDTH 7 0
BBX 6 9 0 -2
BITMAP
88
D8
A8
88
88
88
8C
04
08
ENDCHAR
STARTCHAR char1230
ENCODING 1230
SWIDTH 437 0
DWIDTH 7 0
BBX 6 7 0 -2
BITMAP
88
D8
A8
88
8C
04
08
ENDCHAR
STARTCHAR char1231
ENCODING 1231
SWIDTH 187 0
DWIDTH 3 0
BBX 2 7 0 0
BITMAP
C0
40
40
40
40
40
40
ENDCHAR
STARTCHAR char1232
ENCODING 1232
SWIDTH 375 0
DWIDTH 6 0
BBX 5 9 0 0
BITMAP
50
70
00
20
50
88
F8
88
88
ENDCHAR
STARTCHAR char1233
ENCODING 1233
SWIDTH 312 0
DWIDTH 5 0
BBX 4 9 0 0
BITMAP
50
70
00
00
60
10
70
90
70
ENDCHAR
STARTCHAR char1234
ENCODING 1234
SWIDTH 375 0
DWIDTH 6 0
BBX 5 9 0 0
BITMAP
50
00
20
50
50
88
F8
88
88
ENDCHAR
STARTCHAR char1235
ENCODING 1235
SWIDTH 312 0
DWIDTH 5 0
BBX 4 7 0 0
BITMAP
50
00
60
10
70
90
70
ENDCHAR
STARTCHAR char1236
ENCODING 1236
SWIDTH 500 0
DWIDTH 8 0
BBX 7 7 0 0
BITMAP
3E
50
50
9C
F0
90
9E
ENDCHAR
STARTCHAR char1237
ENCODING 1237
SWIDTH 500 0
DWIDTH 8 0
BBX 7 5 0 0
BITMAP
6C
12
7E
90
6E
ENDCHAR
STARTCHAR char1238
ENCODING 1238
SWIDTH 375 0
DWIDTH 6 0
BBX 5 9 0 0
BITMAP
50
70
00
F8
80
E0
80
80
F8
ENDCHAR
STARTCHAR char1239
ENCODING 1239
SWIDTH 312 0
DWIDTH 5 0
BBX 4 8 0 0
BITMAP
50
70
00
60
90
F0
80
70
ENDCHAR
STARTCHAR char1240
ENCODING 1240
SWIDTH 375 0
DWIDTH 6 0
BBX 5 7 0 0
BITMAP
70
88
08
F8
88
88
70
ENDCHAR
STARTCHAR char1241
ENCODING 1241
SWIDTH 312 0
DWIDTH 5 0
BBX 4 5 0 0
BITMAP
E0
10
F0
90
60
ENDCHAR
STARTCHAR char1242
ENCODING 1242
SWIDTH 375 0
DWIDTH 6 0
BBX 5 9 0 0
BITMAP
50
00
70
88
08
F8
88
88
70
ENDCHAR
STARTCHAR char1243
ENCODING 1243
SWIDTH 312 0
DWIDTH 5 0
BBX 4 7 0 0
BITMAP
50
00
E0
10
F0
90
60
ENDCHAR
STARTCHAR char1244
ENCODING 1244
SWIDTH 500 0
DWIDTH 8 0
BBX 7 9 0 0
BITMAP
28
00
92
92
54
38
54
92
92
ENDCHAR
STARTCHAR char1245
ENCODING 1245
SWIDTH 375 0
DWIDTH 6 0
BBX 5 7 0 0
BITMAP
50
00
A8
A8
70
A8
A8
ENDCHAR
STARTCHAR char1246
ENCODING 1246
SWIDTH 375 0
DWIDTH 6 0
BBX 5 9 0 0
BITMAP
50
00
70
88
08
30
08
88
70
ENDCHAR
STARTCHAR char1247
ENCODING 1247
SWIDTH 312 0
DWIDTH 5 0
BBX 4 7 0 0
BITMAP
50
00
60
90
20
90
60
ENDCHAR
STARTCHAR char1248
ENCODING 1248
SWIDTH 375 0
DWIDTH 6 0
BBX 5 7 0 0
BITMAP
F8
08
30
10
08
88
70
ENDCHAR
STARTCHAR char1249
ENCODING 1249
SWIDTH 312 0
DWIDTH 5 0
BBX 4 7 0 -2
BITMAP
F0
10
60
20
10
90
60
ENDCHAR
STARTCHAR char1250
ENCODING 1250
SWIDTH 375 0
DWIDTH 6 0
BBX 5 9 0 0
BITMAP
70
00
88
88
98
A8
C8
88
88
ENDCHAR
STARTCHAR char1251
ENCODING 1251
SWIDTH 312 0
DWIDTH 5 0
BBX 4 7 0 0
BITMAP
70
00
90
B0
D0
90
90
ENDCHAR
STARTCHAR char1252
ENCODING 1252
SWIDTH 375 0
DWIDTH 6 0
BBX 5 9 0 0
BITMAP
50
00
88
88
98
A8
C8
88
88
ENDCHAR
STARTCHAR char1253
ENCODING 1253
SWIDTH 312 0
DWIDTH 5 0
BBX 4 7 0 0
BITMAP
50
00
90
B0
D0
90
90
ENDCHAR
STARTCHAR char1254
ENCODING 1254
SWIDTH 375 0
DWIDTH 6 0
BBX 5 9 0 0
BITMAP
50
00
70
88
88
88
88
88
70
ENDCHAR
STARTCHAR char1255
ENCODING 1255
SWIDTH 312 0
DWIDTH 5 0
BBX 4 7 0 0
BITMAP
50
00
60
90
90
90
60
ENDCHAR
STARTCHAR char1256
ENCODING 1256
SWIDTH 375 0
DWIDTH 6 0
BBX 5 7 0 0
BITMAP
70
88
88
F8
88
88
70
ENDCHAR
STARTCHAR char1257
ENCODING 1257
SWIDTH 312 0
DWIDTH 5 0
BBX 4 5 0 0
BITMAP
60
90
F0
90
60
ENDCHAR
STARTCHAR char1258
ENCODING 1258
SWIDTH 375 0
DWIDTH 6 0
BBX 5 9 0 0
BITMAP
50
00
70
88
88
F8
88
88
70
ENDCHAR
STARTCHAR char1259
ENCODING 1259
SWIDTH 312 0
DWIDTH 5 0
BBX 4 7 0 0
BITMAP
50
00
60
90
F0
90
60
ENDCHAR
STARTCHAR char1260
ENCODING 1260
SWIDTH 375 0
DWIDTH 6 0
BBX 5 9 0 0
BITMAP
50
00
70
88
08
78
08
88
70
ENDCHAR
STARTCHAR char1261
ENCODING 1261
SWIDTH 312 0
DWIDTH 5 0
BBX 4 7 0 0
BITMAP
50
00
E0
10
70
10
E0
ENDCHAR
STARTCHAR char1262
ENCODING 1262
SWIDTH 375 0
DWIDTH 6 0
BBX 5 9 0 0
BITMAP
70
00
88
88
88
50
20
40
80
ENDCHAR
STARTCHAR char1263
ENCODING 1263
SWIDTH 312 0
DWIDTH 5 0
BBX 4 9 0 -2
BITMAP
70
00
90
90
90
90
70
10
E0
ENDCHAR
STARTCHAR char1264
ENCODING 1264
SWIDTH 375 0
DWIDTH 6 0
BBX 5 9 0 0
BITMAP
50
00
88
88
88
50
20
40
80
ENDCHAR
STARTCHAR char1265
ENCODING 1265
SWIDTH 312 0
DWIDTH 5 0
BBX 4 9 0 -2
BITMAP
50
00
90
90
90
90
70
10
E0
ENDCHAR
STARTCHAR char1266
ENCODING 1266
SWIDTH 375 0
DWIDTH 6 0
BBX 5 9 0 0
BITMAP
48
90
00
88
88
50
20
40
80
ENDCHAR
STARTCHAR char1267
ENCODING 1267
SWIDTH 312 0
DWIDTH 5 0
BBX 5 10 0 -2
BITMAP
48
90
00
90
90
90
90
70
10
E0
ENDCHAR
STARTCHAR char1268
ENCODING 1268
SWIDTH 375 0
DWIDTH 6 0
BBX 5 9 0 0
BITMAP
50
00
88
88
88
98
68
08
08
ENDCHAR
STARTCHAR char1269
ENCODING 1269
SWIDTH 312 0
DWIDTH 5 0
BBX 4 7 0 0
BITMAP
50
00
90
90
70
10
10
ENDCHAR
STARTCHAR char1270
ENCODING 1270
SWIDTH 375 0
DWIDTH 6 0
BBX 5 8 0 -1
BITMAP
F8
80
80
80
80
80
C0
40
ENDCHAR
STARTCHAR char1271
ENCODING 1271
SWIDTH 312 0
DWIDTH 5 0
BBX 4 6 0 -1
BITMAP
F0
80
80
80
C0
40
ENDCHAR
STARTCHAR char1272
ENCODING 1272
SWIDTH 437 0
DWIDTH 7 0
BBX 6 9 0 0
BITMAP
28
00
84
84
84
E4
94
94
E4
ENDCHAR
STARTCHAR char1273
ENCODING 1273
SWIDTH 437 0
DWIDTH 7 0
BBX 6 7 0 0
BITMAP
28
00
84
84
E4
94
E4
ENDCHAR
STARTCHAR char1274
ENCODING 1274
SWIDTH 375 0
DWIDTH 6 0
BBX 5 9 0 -2
BITMAP
F8
80
80
80
80
80
C0
40
80
ENDCHAR
STARTCHAR char1275
ENCODING 1275
SWIDTH 312 0
DWIDTH 5 0
BBX 4 7 0 -2
BITMAP
F0
80
80
80
C0
40
80
ENDCHAR
STARTCHAR char1276
ENCODING 1276
SWIDTH 375 0
DWIDTH 6 0
BBX 5 9 0 -2
BITMAP
88
88
50
20
50
88
88
08
30
ENDCHAR
STARTCHAR char1277
ENCODING 1277
SWIDTH 375 0
DWIDTH 6 0
BBX 5 7 0 -2
BITMAP
88
50
20
50
88
08
30
ENDCHAR
STARTCHAR char1280
ENCODING 1280
SWIDTH 375 0
DWIDTH 6 0
BBX 5 7 0 0
BITMAP
08
08
08
78
88
88
78
ENDCHAR
STARTCHAR char1281
ENCODING 1281
SWIDTH 312 0
DWIDTH 5 0
BBX 4 7 0 0
BITMAP
10
10
70
90
90
90
70
ENDCHAR
STARTCHAR char1282
ENCODING 1282
SWIDTH 500 0
DWIDTH 8 0
BBX 7 7 0 0
BITMAP
08
08
08
7A
8A
8A
74
ENDCHAR
STARTCHAR char1283
ENCODING 1283
SWIDTH 437 0
DWIDTH 7 0
BBX 6 7 0 0
BITMAP
10
10
70
90
94
94
68
ENDCHAR
STARTCHAR char1288
ENCODING 1288
SWIDTH 500 0
DWIDTH 8 0
BBX 7 7 0 0
BITMAP
38
48
48
4A
4A
4A
84
ENDCHAR
STARTCHAR char1289
ENCODING 1289
SWIDTH 437 0
DWIDTH 7 0
BBX 6 5 0 0
BITMAP
70
50
54
54
88
ENDCHAR
STARTCHAR char1290
ENCODING 1290
SWIDTH 500 0
DWIDTH 8 0
BBX 7 7 0 0
BITMAP
88
88
88
FA
8A
8A
84
ENDCHAR
STARTCHAR char1291
ENCODING 1291
SWIDTH 437 0
DWIDTH 7 0
BBX 6 5 0 0
BITMAP
90
90
F4
94
88
ENDCHAR
STARTCHAR char1292
ENCODING 1292
SWIDTH 375 0
DWIDTH 6 0
BBX 5 7 0 0
BITMAP
78
80
80
B8
88
88
78
ENDCHAR
STARTCHAR char1293
ENCODING 1293
SWIDTH 312 0
DWIDTH 5 0
BBX 4 5 0 0
BITMAP
70
80
B0
90
70
ENDCHAR
STARTCHAR char1294
ENCODING 1294
SWIDTH 375 0
DWIDTH 6 0
BBX 5 7 0 0
BITMAP
F8
20
20
28
28
28
10
ENDCHAR
STARTCHAR char1295
ENCODING 1295
SWIDTH 375 0
DWIDTH 6 0
BBX 5 5 0 0
BITMAP
F8
20
28
28
10
ENDCHAR
STARTCHAR char1296
ENCODING 1296
SWIDTH 375 0
DWIDTH 6 0
BBX 5 7 0 0
BITMAP
70
88
80
60
80
88
70
ENDCHAR
STARTCHAR char1297
ENCODING 1297
SWIDTH 312 0
DWIDTH 5 0
BBX 4 5 0 0
BITMAP
60
90
40
90
60
ENDCHAR
STARTCHAR char1298
ENCODING 1298
SWIDTH 375 0
DWIDTH 6 0
BBX 5 9 0 -2
BITMAP
38
48
48
48
48
48
88
08
30
ENDCHAR
STARTCHAR char1299
ENCODING 1299
SWIDTH 312 0
DWIDTH 5 0
BBX 4 7 0 -2
BITMAP
30
50
50
50
90
10
20
ENDCHAR
STARTCHAR char1300
ENCODING 1300
SWIDTH 562 0
DWIDTH 9 0
BBX 8 7 0 0
BITMAP
31
51
4A
44
4A
51
91
ENDCHAR
STARTCHAR char1301
ENCODING 1301
SWIDTH 562 0
DWIDTH 9 0
BBX 8 5 0 0
BITMAP
31
4A
44
4A
91
ENDCHAR
STARTCHAR char1302
ENCODING 1302
SWIDTH 500 0
DWIDTH 8 0
BBX 7 7 0 0
BITMAP
F2
8A
8C
F8
94
A2
A2
ENDCHAR
STARTCHAR char1303
ENCODING 1303
SWIDTH 437 0
DWIDTH 7 0
BBX 6 7 0 -2
BITMAP
E4
98
90
98
E4
80
80
ENDCHAR
STARTCHAR char1304
ENCODING 1304
SWIDTH 562 0
DWIDTH 9 0
BBX 8 7 0 0
BITMAP
7F
88
88
7E
28
48
8F
ENDCHAR
STARTCHAR char1305
ENCODING 1305
SWIDTH 500 0
DWIDTH 8 0
BBX 7 5 0 0
BITMAP
7C
92
FE
50
8E
ENDCHAR
STARTCHAR char1306
ENCODING 1306
SWIDTH 375 0
DWIDTH 6 0
BBX 5 7 0 0
BITMAP
70
88
88
88
A8
90
68
ENDCHAR
STARTCHAR char1307
ENCODING 1307
SWIDTH 312 0
DWIDTH 5 0
BBX 4 7 0 -2
BITMAP
70
90
90
90
70
10
10
ENDCHAR
STARTCHAR char1308
ENCODING 1308
SWIDTH 375 0
DWIDTH 6 0
BBX 5 7 0 0
BITMAP
88
88
88
88
A8
D8
88
ENDCHAR
STARTCHAR char1309
ENCODING 1309
SWIDTH 375 0
DWIDTH 6 0
BBX 5 5 0 0
BITMAP
88
A8
A8
A8
50
ENDCHAR
STARTCHAR char1316
ENCODING 1316
SWIDTH 437 0
DWIDTH 7 0
BBX 6 8 0 -1
BITMAP
F8
88
88
88
88
88
8C
04
ENDCHAR
STARTCHAR char1317
ENCODING 1317
SWIDTH 375 0
DWIDTH 6 0
BBX 5 6 0 -1
BITMAP
F0
90
90
90
98
08
ENDCHAR
STARTCHAR char1318
ENCODING 1318
SWIDTH 437 0
DWIDTH 7 0
BBX 6 8 0 -1
BITMAP
80
80
B0
C8
88
88
8C
04
ENDCHAR
STARTCHAR char1319
ENCODING 1319
SWIDTH 375 0
DWIDTH 6 0
BBX 5 8 0 -1
BITMAP
80
80
E0
90
90
90
98
08
ENDCHAR
STARTCHAR char1320
ENCODING 1320
SWIDTH 437 0
DWIDTH 7 0
BBX 6 9 0 -2
BITMAP
44
44
44
7C
44
44
44
40
80
ENDCHAR
STARTCHAR char1321
ENCODING 1321
SWIDTH 375 0
DWIDTH 6 0
BBX 5 7 0 -2
BITMAP
48
48
78
48
48
40
80
ENDCHAR
STARTCHAR char1326
ENCODING 1326
SWIDTH 437 0
DWIDTH 7 0
BBX 6 8 0 -1
BITMAP
38
48
48
48
48
48
8C
04
ENDCHAR
STARTCHAR char1327
ENCODING 1327
SWIDTH 375 0
DWIDTH 6 0
BBX 5 6 0 -1
BITMAP
30
50
50
50
98
08
ENDCHAR
STARTCHAR char8194
ENCODING 8194
SWIDTH 375 0
DWIDTH 6 0
BBX 0 0 0 0
BITMAP
ENDCHAR
STARTCHAR char8195
ENCODING 8195
SWIDTH 375 0
DWIDTH 6 0
BBX 0 0 0 0
BITMAP
ENDCHAR
STARTCHAR char8196
ENCODING 8196
SWIDTH 125 0
DWIDTH 2 0
BBX 0 0 0 0
BITMAP
ENDCHAR
STARTCHAR char8198
ENCODING 8198
SWIDTH 62 0
DWIDTH 1 0
BBX 0 0 0 0
BITMAP
ENDCHAR
STARTCHAR char8199
ENCODING 8199
SWIDTH 375 0
DWIDTH 6 0
BBX 0 0 0 0
BITMAP
ENDCHAR
STARTCHAR char8200
ENCODING 8200
SWIDTH 125 0
DWIDTH 2 0
BBX 0 0 0 0
BITMAP
ENDCHAR
STARTCHAR char8201
ENCODING 8201
SWIDTH 62 0
DWIDTH 1 0
BBX 0 0 0 0
BITMAP
ENDCHAR
STARTCHAR char8202
ENCODING 8202
SWIDTH 62 0
DWIDTH 1 0
BBX 0 0 0 0
BITMAP
ENDCHAR
STARTCHAR char8203
ENCODING 8203
SWIDTH 0 0
DWIDTH 0 0
BBX 0 0 0 0
BITMAP
ENDCHAR
STARTCHAR char8204
ENCODING 8204
SWIDTH 0 0
DWIDTH 0 0
BBX 0 0 0 0
BITMAP
ENDCHAR
STARTCHAR char8205
ENCODING 8205
SWIDTH 0 0
DWIDTH 0 0
BBX 0 0 0 0
BITMAP
ENDCHAR
STARTCHAR char8208
ENCODING 8208
SWIDTH 312 0
DWIDTH 5 0
BBX 4 1 0 3
BITMAP
F0
ENDCHAR
STARTCHAR char8209
ENCODING 8209
SWIDTH 312 0
DWIDTH 5 0
BBX 4 1 0 3
BITMAP
F0
ENDCHAR
STARTCHAR char8210
ENCODING 8210
SWIDTH 375 0
DWIDTH 6 0
BBX 5 1 0 3
BITMAP
F8
ENDCHAR
STARTCHAR char8211
ENCODING 8211
SWIDTH 375 0
DWIDTH 6 0
BBX 5 1 0 3
BITMAP
F8
ENDCHAR
STARTCHAR char8212
ENCODING 8212
SWIDTH 375 0
DWIDTH 6 0
BBX 5 1 0 3
BITMAP
F8
ENDCHAR
STARTCHAR char8214
ENCODING 8214
SWIDTH 250 0
DWIDTH 4 0
BBX 3 9 0 -1
BITMAP
A0
A0
A0
A0
A0
A0
A0
A0
A0
ENDCHAR
STARTCHAR char8215
ENCODING 8215
SWIDTH 375 0
DWIDTH 6 0
BBX 6 3 0 -2
BITMAP
FC
00
FC
ENDCHAR
STARTCHAR char8216
ENCODING 8216
SWIDTH 187 0
DWIDTH 3 0
BBX 2 3 0 4
BITMAP
40
80
80
ENDCHAR
STARTCHAR char8217
ENCODING 8217
SWIDTH 187 0
DWIDTH 3 0
BBX 2 3 0 4
BITMAP
40
40
80
ENDCHAR
STARTCHAR char8218
ENCODING 8218
SWIDTH 187 0
DWIDTH 3 0
BBX 2 3 0 -1
BITMAP
40
40
80
ENDCHAR
STARTCHAR char8219
ENCODING 8219
SWIDTH 187 0
DWIDTH 3 0
BBX 2 3 0 4
BITMAP
80
80
40
ENDCHAR
STARTCHAR char8220
ENCODING 8220
SWIDTH 312 0
DWIDTH 5 0
BBX 4 3 0 4
BITMAP
50
A0
A0
ENDCHAR
STARTCHAR char8221
ENCODING 8221
SWIDTH 312 0
DWIDTH 5 0
BBX 4 3 0 4
BITMAP
50
50
A0
ENDCHAR
STARTCHAR char8222
ENCODING 8222
SWIDTH 312 0
DWIDTH 5 0
BBX 4 3 0 -1
BITMAP
50
50
A0
ENDCHAR
STARTCHAR char8223
ENCODING 8223
SWIDTH 312 0
DWIDTH 5 0
BBX 4 3 0 4
BITMAP
A0
A0
50
ENDCHAR
STARTCHAR char8230
ENCODING 8230
SWIDTH 375 0
DWIDTH 6 0
BBX 5 1 0 0
BITMAP
A8
ENDCHAR
STARTCHAR char8231
ENCODING 8231
SWIDTH 125 0
DWIDTH 2 0
BBX 1 1 0 3
BITMAP
80
ENDCHAR
STARTCHAR char8239
ENCODING 8239
SWIDTH 62 0
DWIDTH 1 0
BBX 0 0 0 0
BITMAP
ENDCHAR
STARTCHAR char8240
ENCODING 8240
SWIDTH 562 0
DWIDTH 9 0
BBX 8 7 0 0
BITMAP
C8
C8
10
20
40
9B
9B
ENDCHAR
STARTCHAR char8248
ENCODING 8248
SWIDTH 250 0
DWIDTH 4 0
BBX 3 2 0 -1
BITMAP
40
A0
ENDCHAR
STARTCHAR char8249
ENCODING 8249
SWIDTH 250 0
DWIDTH 4 0
BBX 3 5 0 1
BITMAP
20
40
80
40
20
ENDCHAR
STARTCHAR char8250
ENCODING 8250
SWIDTH 250 0
DWIDTH 4 0
BBX 3 5 0 1
BITMAP
80
40
20
40
80
ENDCHAR
STARTCHAR char8251
ENCODING 8251
SWIDTH 500 0
DWIDTH 8 0
BBX 7 7 0 0
BITMAP
92
44
28
92
28
44
92
ENDCHAR
STARTCHAR char8252
ENCODING 8252
SWIDTH 250 0
DWIDTH 4 0
BBX 3 7 0 0
BITMAP
A0
A0
A0
A0
A0
00
A0
ENDCHAR
STARTCHAR char8253
ENCODING 8253
SWIDTH 375 0
DWIDTH 6 0
BBX 5 7 0 0
BITMAP
70
A8
28
30
20
00
20
ENDCHAR
STARTCHAR char8254
ENCODING 8254
SWIDTH 375 0
DWIDTH 6 0
BBX 6 1 0 7
BITMAP
FC
ENDCHAR
STARTCHAR char8255
ENCODING 8255
SWIDTH 375 0
DWIDTH 6 0
BBX 5 2 0 -1
BITMAP
88
70
ENDCHAR
STARTCHAR char8256
ENCODING 8256
SWIDTH 375 0
DWIDTH 6 0
BBX 5 2 0 6
BITMAP
70
88
ENDCHAR
STARTCHAR char8257
ENCODING 8257
SWIDTH 250 0
DWIDTH 4 0
BBX 3 3 0 -1
BITMAP
20
40
A0
ENDCHAR
STARTCHAR char8261
ENCODING 8261
SWIDTH 250 0
DWIDTH 4 0
BBX 3 9 0 -1
BITMAP
E0
80
80
80
E0
80
80
80
E0
ENDCHAR
STARTCHAR char8262
ENCODING 8262
SWIDTH 250 0
DWIDTH 4 0
BBX 3 9 0 -1
BITMAP
E0
20
20
20
E0
20
20
20
E0
ENDCHAR
STARTCHAR char8263
ENCODING 8263
SWIDTH 500 0
DWIDTH 8 0
BBX 7 7 0 0
BITMAP
6C
92
12
24
48
00
48
ENDCHAR
STARTCHAR char8264
ENCODING 8264
SWIDTH 437 0
DWIDTH 7 0
BBX 6 7 0 0
BITMAP
64
94
14
24
44
00
44
ENDCHAR
STARTCHAR char8265
ENCODING 8265
SWIDTH 437 0
DWIDTH 7 0
BBX 6 7 0 0
BITMAP
98
A4
84
88
90
00
90
ENDCHAR
STARTCHAR char8266
ENCODING 8267
SWIDTH 437 0
DWIDTH 7 0
BBX 6 9 0 -2
BITMAP
F8
54
54
54
58
50
50
50
50
ENDCHAR
STARTCHAR char8271
ENCODING 8271
SWIDTH 187 0
DWIDTH 3 0
BBX 2 6 0 -1
BITMAP
80
00
00
80
80
40
ENDCHAR
STARTCHAR char8276
ENCODING 8276
SWIDTH 375 0
DWIDTH 6 0
BBX 5 2 0 -1
BITMAP
70
88
ENDCHAR
STARTCHAR char8285
ENCODING 8285
SWIDTH 125 0
DWIDTH 2 0
BBX 1 5 0 0
BITMAP
80
00
80
00
80
ENDCHAR
STARTCHAR char8286
ENCODING 8286
SWIDTH 125 0
DWIDTH 2 0
BBX 1 7 0 0
BITMAP
80
00
80
00
80
00
80
ENDCHAR
STARTCHAR char65377
ENCODING 65377
SWIDTH 375 0
DWIDTH 6 0
BBX 3 3 0 0
BITMAP
E0
A0
E0
ENDCHAR
STARTCHAR char65378
ENCODING 65378
SWIDTH 375 0
DWIDTH 6 0
BBX 3 4 2 3
BITMAP
E0
80
80
80
ENDCHAR
STARTCHAR char65379
ENCODING 65379
SWIDTH 375 0
DWIDTH 6 0
BBX 3 4 0 0
BITMAP
20
20
20
E0
ENDCHAR
STARTCHAR char65380
ENCODING 65380
SWIDTH 375 0
DWIDTH 6 0
BBX 3 3 0 0
BITMAP
80
40
20
ENDCHAR
STARTCHAR char65381
ENCODING 65381
SWIDTH 375 0
DWIDTH 6 0
BBX 2 2 1 2
BITMAP
C0
C0
ENDCHAR
STARTCHAR char65382
ENCODING 65382
SWIDTH 375 0
DWIDTH 6 0
BBX 5 6 0 0
BITMAP
F8
08
F8
08
10
20
ENDCHAR
STARTCHAR char65383
ENCODING 65383
SWIDTH 375 0
DWIDTH 6 0
BBX 5 5 0 0
BITMAP
F8
08
30
20
40
ENDCHAR
STARTCHAR char65384
ENCODING 65384
SWIDTH 375 0
DWIDTH 6 0
BBX 4 5 0 0
BITMAP
10
20
60
A0
20
ENDCHAR
STARTCHAR char65385
ENCODING 65385
SWIDTH 375 0
DWIDTH 6 0
BBX 5 5 0 0
BITMAP
20
F8
88
08
30
ENDCHAR
STARTCHAR char65386
ENCODING 65386
SWIDTH 375 0
DWIDTH 6 0
BBX 5 4 0 0
BITMAP
F8
20
20
F8
ENDCHAR
STARTCHAR char65387
ENCODING 65387
SWIDTH 375 0
DWIDTH 6 0
BBX 5 5 0 0
BITMAP
10
F8
30
50
90
ENDCHAR
STARTCHAR char65388
ENCODING 65388
SWIDTH 375 0
DWIDTH 6 0
BBX 5 5 0 0
BITMAP
40
F8
48
50
40
ENDCHAR
STARTCHAR char65389
ENCODING 65389
SWIDTH 375 0
DWIDTH 6 0
BBX 5 4 0 0
BITMAP
70
10
10
F8
ENDCHAR
STARTCHAR char65390
ENCODING 65390
SWIDTH 375 0
DWIDTH 6 0
BBX 4 5 0 0
BITMAP
F0
10
F0
10
F0
ENDCHAR
STARTCHAR char65391
ENCODING 65391
SWIDTH 375 0
DWIDTH 6 0
BBX 5 4 0 0
BITMAP
A8
A8
08
30
ENDCHAR
STARTCHAR char65392
ENCODING 65392
SWIDTH 375 0
DWIDTH 6 0
BBX 5 1 0 3
BITMAP
F8
ENDCHAR
STARTCHAR char65393
ENCODING 65393
SWIDTH 375 0
DWIDTH 6 0
BBX 5 7 0 0
BITMAP
F8
08
28
30
20
20
40
ENDCHAR
STARTCHAR char65394
ENCODING 65394
SWIDTH 375 0
DWIDTH 6 0
BBX 5 7 0 0
BITMAP
08
10
20
60
A0
20
20
ENDCHAR
STARTCHAR char65395
ENCODING 65395
SWIDTH 375 0
DWIDTH 6 0
BBX 5 7 0 0
BITMAP
20
F8
88
88
08
10
20
ENDCHAR
STARTCHAR char65396
ENCODING 65396
SWIDTH 375 0
DWIDTH 6 0
BBX 5 6 0 0
BITMAP
F8
20
20
20
20
F8
ENDCHAR
STARTCHAR char65397
ENCODING 65397
SWIDTH 375 0
DWIDTH 6 0
BBX 5 7 0 0
BITMAP
10
F8
10
30
50
90
10
ENDCHAR
STARTCHAR char65398
ENCODING 65398
SWIDTH 375 0
DWIDTH 6 0
BBX 5 7 0 0
BITMAP
40
F8
48
48
48
48
90
ENDCHAR
STARTCHAR char65399
ENCODING 65399
SWIDTH 375 0
DWIDTH 6 0
BBX 5 7 0 0
BITMAP
20
F8
20
F8
20
20
20
ENDCHAR
STARTCHAR char65400
ENCODING 65400
SWIDTH 375 0
DWIDTH 6 0
BBX 5 6 0 0
BITMAP
78
48
88
08
10
60
ENDCHAR
STARTCHAR char65401
ENCODING 65401
SWIDTH 375 0
DWIDTH 6 0
BBX 5 7 0 0
BITMAP
40
78
90
10
10
10
20
ENDCHAR
STARTCHAR char65402
ENCODING 65402
SWIDTH 375 0
DWIDTH 6 0
BBX 5 6 0 0
BITMAP
F8
08
08
08
08
F8
ENDCHAR
STARTCHAR char65403
ENCODING 65403
SWIDTH 375 0
DWIDTH 6 0
BBX 5 7 0 0
BITMAP
50
F8
50
50
10
20
40
ENDCHAR
STARTCHAR char65404
ENCODING 65404
SWIDTH 375 0
DWIDTH 6 0
BBX 5 6 0 0
BITMAP
C0
08
C8
08
10
E0
ENDCHAR
STARTCHAR char65405
ENCODING 65405
SWIDTH 375 0
DWIDTH 6 0
BBX 5 6 0 0
BITMAP
F8
08
10
20
50
88
ENDCHAR
STARTCHAR char65406
ENCODING 65406
SWIDTH 375 0
DWIDTH 6 0
BBX 5 7 0 0
BITMAP
40
F8
48
50
40
40
38
ENDCHAR
STARTCHAR char65407
ENCODING 65407
SWIDTH 375 0
DWIDTH 6 0
BBX 5 6 0 0
BITMAP
88
88
48
08
10
60
ENDCHAR
STARTCHAR char65408
ENCODING 65408
SWIDTH 375 0
DWIDTH 6 0
BBX 5 6 0 0
BITMAP
78
48
A8
18
10
60
ENDCHAR
STARTCHAR char65409
ENCODING 65409
SWIDTH 375 0
DWIDTH 6 0
BBX 5 7 0 0
BITMAP
10
E0
20
F8
20
20
40
ENDCHAR
STARTCHAR char65410
ENCODING 65410
SWIDTH 375 0
DWIDTH 6 0
BBX 5 6 0 0
BITMAP
A8
A8
A8
08
10
20
ENDCHAR
STARTCHAR char65411
ENCODING 65411
SWIDTH 375 0
DWIDTH 6 0
BBX 5 7 0 0
BITMAP
70
00
F8
20
20
20
40
ENDCHAR
STARTCHAR char65412
ENCODING 65412
SWIDTH 375 0
DWIDTH 6 0
BBX 3 7 1 0
BITMAP
80
80
80
C0
A0
80
80
ENDCHAR
STARTCHAR char65413
ENCODING 65413
SWIDTH 375 0
DWIDTH 6 0
BBX 5 7 0 0
BITMAP
20
20
F8
20
20
40
80
ENDCHAR
STARTCHAR char65414
ENCODING 65414
SWIDTH 375 0
DWIDTH 6 0
BBX 5 6 0 0
BITMAP
70
00
00
00
00
F8
ENDCHAR
STARTCHAR char65415
ENCODING 65415
SWIDTH 375 0
DWIDTH 6 0
BBX 5 6 0 0
BITMAP
F8
08
50
20
50
80
ENDCHAR
STARTCHAR char65416
ENCODING 65416
SWIDTH 375 0
DWIDTH 6 0
BBX 5 7 0 0
BITMAP
20
F8
10
20
70
A8
20
ENDCHAR
STARTCHAR char65417
ENCODING 65417
SWIDTH 375 0
DWIDTH 6 0
BBX 4 7 0 0
BITMAP
10
10
10
10
10
20
40
ENDCHAR
STARTCHAR char65418
ENCODING 65418
SWIDTH 375 0
DWIDTH 6 0
BBX 5 6 0 0
BITMAP
20
10
88
88
88
88
ENDCHAR
STARTCHAR char65419
ENCODING 65419
SWIDTH 375 0
DWIDTH 6 0
BBX 5 7 0 0
BITMAP
80
80
F8
80
80
80
78
ENDCHAR
STARTCHAR char65420
ENCODING 65420
SWIDTH 375 0
DWIDTH 6 0
BBX 5 6 0 0
BITMAP
F8
08
08
08
10
60
ENDCHAR
STARTCHAR char65421
ENCODING 65421
SWIDTH 375 0
DWIDTH 6 0
BBX 5 5 0 1
BITMAP
40
A0
10
08
08
ENDCHAR
STARTCHAR char65422
ENCODING 65422
SWIDTH 375 0
DWIDTH 6 0
BBX 5 7 0 0
BITMAP
20
F8
20
20
A8
A8
20
ENDCHAR
STARTCHAR char65423
ENCODING 65423
SWIDTH 375 0
DWIDTH 6 0
BBX 5 6 0 0
BITMAP
F8
08
08
50
20
10
ENDCHAR
STARTCHAR char65424
ENCODING 65424
SWIDTH 375 0
DWIDTH 6 0
BBX 4 6 1 0
BITMAP
E0
00
E0
00
E0
10
ENDCHAR
STARTCHAR char65425
ENCODING 65425
SWIDTH 375 0
DWIDTH 6 0
BBX 5 6 0 0
BITMAP
20
40
80
88
F8
08
ENDCHAR
STARTCHAR char65426
ENCODING 65426
SWIDTH 375 0
DWIDTH 6 0
BBX 5 6 0 0
BITMAP
08
08
50
20
50
80
ENDCHAR
STARTCHAR char65427
ENCODING 65427
SWIDTH 375 0
DWIDTH 6 0
BBX 5 6 0 0
BITMAP
F8
40
F8
40
40
38
ENDCHAR
STARTCHAR char65428
ENCODING 65428
SWIDTH 375 0
DWIDTH 6 0
BBX 5 7 0 0
BITMAP
40
40
F8
48
50
40
40
ENDCHAR
STARTCHAR char65429
ENCODING 65429
SWIDTH 375 0
DWIDTH 6 0
BBX 5 6 0 0
BITMAP
70
10
10
10
10
F8
ENDCHAR
STARTCHAR char65430
ENCODING 65430
SWIDTH 375 0
DWIDTH 6 0
BBX 5 6 0 0
BITMAP
F8
08
F8
08
08
F8
ENDCHAR
STARTCHAR char65431
ENCODING 65431
SWIDTH 375 0
DWIDTH 6 0
BBX 5 7 0 0
BITMAP
70
00
F8
08
08
10
20
ENDCHAR
STARTCHAR char65432
ENCODING 65432
SWIDTH 375 0
DWIDTH 6 0
BBX 4 7 0 0
BITMAP
90
90
90
90
10
20
40
ENDCHAR
STARTCHAR char65433
ENCODING 65433
SWIDTH 375 0
DWIDTH 6 0
BBX 5 6 0 0
BITMAP
20
A0
A0
A8
A8
B0
ENDCHAR
STARTCHAR char65434
ENCODING 65434
SWIDTH 375 0
DWIDTH 6 0
BBX 5 6 0 0
BITMAP
80
80
88
90
A0
C0
ENDCHAR
STARTCHAR char65435
ENCODING 65435
SWIDTH 375 0
DWIDTH 6 0
BBX 5 6 0 0
BITMAP
F8
88
88
88
88
F8
ENDCHAR
STARTCHAR char65436
ENCODING 65436
SWIDTH 375 0
DWIDTH 6 0
BBX 5 6 0 0
BITMAP
F8
88
88
08
10
20
ENDCHAR
STARTCHAR char65437
ENCODING 65437
SWIDTH 375 0
DWIDTH 6 0
BBX 5 6 0 0
BITMAP
C0
00
08
08
10
E0
ENDCHAR
STARTCHAR char65438
ENCODING 65438
SWIDTH 375 0
DWIDTH 6 0
BBX 4 3 0 4
BITMAP
20
90
40
ENDCHAR
STARTCHAR char65439
ENCODING 65439
SWIDTH 375 0
DWIDTH 6 0
BBX 3 3 0 4
BITMAP
E0
A0
E0
ENDCHAR
ENDFONT
